<?xml version="1.0" encoding="utf-8"?>
<!-- Generator: Adobe Illustrator 25.2.1, SVG Export Plug-In . SVG Version: 6.00 Build 0)  -->
<svg version="1.1" id="Layer_1" xmlns="http://www.w3.org/2000/svg" xmlns:xlink="http://www.w3.org/1999/xlink" x="0px" y="0px"
	 viewBox="0 0 624.5 38.5" style="enable-background:new 0 0 624.5 38.5;" xml:space="preserve">
<style type="text/css">
	.st0{fill:#D0BE9C;}
</style>
<g>
	<g>
		<path class="st0" d="M5.3,16.5c0.3,0,0.6,0,0.8,0.1c0.3,0.1,0.5,0.2,0.5,0.2c0.1,0,0.2,0.1,0.2,0.1s0.3,0.3,0.3,0.7
			s-0.3,0.8-0.3,0.8s-0.4,0.5-1.1,0.5S4.3,18,4.3,18L5.3,16.5z M4.7,20L4,18.6l0,0l0,0c0.1,0.2,0.4,0.6,1,0.8
			c1.1,0.4,2.1-0.8,2.1-0.8c0.6-0.7,0.6-1.6,0.6-1.9c0-0.2,0-0.4-0.1-0.5l0,0c0.1,0,0.2,0,0.3,0C8,16.6,8.1,17.1,8,17.7
			c0,0.3-0.1,0.6-0.2,0.9c-0.5,0.8-1.5,1.1-2.3,1.3C5.2,20,4.9,20,4.7,20z M10.2,23.1L10.2,23.1c0,0,0.8,0.5,0.8,0.8
			c0,0.4-1.3,0.8-1.5,0.8s-0.4-0.1-0.7-0.1c-0.3-0.1-0.5-0.2-0.6-0.3l0,0c0.4-0.5,0.8-1,1.1-1.3c0.8-1,0.9-1.4,1-1.7
			c0,0,0.2-0.5,0.2-1.2c0-0.2,0-0.5-0.2-0.6c-0.1-0.1-0.2-0.2-0.3-0.3C9.8,19,9.5,18.9,9.1,19c-0.3,0.1-0.5,0.2-0.6,0.4
			c-0.1,0.1-0.3,0.3-0.3,0.4c0,0.2-0.1,0.4-0.2,0.5c-0.1,0.2-0.2,0.4-0.3,0.5c-0.1,0.1-0.2,0.2-0.3,0.3c0,0-0.1,0.1,0,0.1
			c0,0,0,0.1,0.1,0.1c0.1,0.1,0.2,0.1,0.3,0.1c0.1,0,0.1-0.1,0.1-0.1c0-0.2,0.1-0.3,0.2-0.5c0.1-0.1,0.2-0.3,0.4-0.4
			c0.1,0,0.3-0.2,0.4-0.1c0.1,0,0.1,0.2,0.2,0.2c0,0.1,0,0.1,0,0.2c0,0.6-0.2,1.3-0.2,1.3c-0.1,0.2-0.2,0.5-0.4,0.9S8,23.7,7.7,24
			l0,0c-0.4-0.3-0.8-0.7-1.2-1.2c-0.6-0.7-1-1.4-1.3-1.9c0.2-0.1,0.6-0.2,1-0.4c0.4-0.2,0.9-0.4,1.5-0.8c0.7-0.4,1.5-1,1.9-2
			c0.1-0.2,0.3-0.9,0-1.6c-0.1-0.2-0.2-0.5-0.4-1.2c0-0.1-0.1-0.2-0.1-0.3c0,0,0,0-0.1-0.1c-0.2,0.2-0.4,0.5-0.7,0.7
			s-0.5,0.4-0.8,0.6l0,0c-0.1-0.1-0.2-0.2-0.4-0.4c-0.1-0.1-0.2-0.1-0.3-0.1l0,0c0,0.1-0.1,0.4-0.3,0.6C6.4,16,6.4,16,6.3,16.1
			c-0.3,0-0.5,0-0.8,0L7,13.6l-0.4-1.8l0,0c-0.1,0.3-0.4,0.8-0.7,1.3c-0.4,0.8-0.8,1.3-1.3,2.2c-0.3,0.5-0.7,1.2-1.3,2.1
			c-0.1-0.3-0.3-0.6-0.5-0.9c-0.1-0.1-0.2-0.2-0.3-0.4c0,0-0.6,0-0.9,0.1c0,0-0.1,0.1-0.2,0.2s-0.1,0.1-0.1,0.2l0,0
			c0.1,0,0.2,0,0.4,0c0,0,0.2,0,0.3,0c0.3,0.1,0.7,0.5,1,1.2c-0.6,1-0.9,1.8-1.1,2.5c-0.4,1.5-0.2,2.1-0.1,2.4s0.2,0.5,0.3,0.6
			c0,0,0,0,0.1,0c0.1-0.5,0.2-1,0.3-1.3s0.2-0.5,0.4-0.6c0.1-0.1,0.2-0.1,0.5-0.1c0.2,0,0.5-0.1,0.8-0.2l0,0
			c0.2,0.5,0.5,0.8,0.6,1.1C5.3,23,5.6,23.5,6,24c0.3,0.4,0.6,0.7,0.9,0.9l0,0c-0.3,0.2-0.5,0.5-0.8,0.7c-0.4,0.4-0.9,0.7-1.3,1
			c0,0,0,0,0,0.1l0.8,0.1c0.3-0.2,0.6-0.5,0.8-0.7c0.3-0.3,0.6-0.5,0.9-0.8l0,0C7.5,25.5,8.8,26,9.1,26c1,0,2.1-1.1,2.1-1.9
			C11.3,23.1,10.2,23.1,10.2,23.1z M3.8,20.2c-0.1,0-0.2,0-0.3,0.1c-0.1,0-0.2,0-0.4,0.1l0.4-0.9l0,0c0,0.1,0.1,0.2,0.1,0.4
			C3.7,19.9,3.7,20.1,3.8,20.2L3.8,20.2z"/>
		<path class="st0" d="M15.7,11.8L15.7,11.8c0.2,0.2,0.6,0.5,1.1,0.7c1,0.4,1.8,0.6,2.7,0.7c0.4,0.1,1,0.1,1.7,0.1v0.1
			c-0.2,0.7-0.7,1.7-1.5,2.6c-0.4,0.5-0.8,0.8-1.1,1.1c0,0,0,0-0.1,0c-0.2-0.2-0.5-0.5-0.8-0.8c-0.1-0.2-0.3-0.4-0.4-0.5l0,0
			c0.1-0.1,0.3-0.2,0.5-0.4c0.2-0.1,0.5-0.2,0.7-0.3l0,0L18.4,15c-0.1,0-0.2,0-0.3,0c-0.1,0-0.9,0-1.2,0.6c-0.3,0.5-0.1,1.1,0.1,1.4
			c0.2,0.5,0.5,0.8,0.7,1l0,0c-0.2,0.1-0.4,0.4-0.7,0.6c-0.7,0.6-1,1-1.3,1.3s-0.9,1.2-1.1,2.5c-0.1,0.5-0.1,0.8,0,1.1
			c0,0.2,0,0.4,0.1,0.6c0,0.1,0.1,0.3,0.1,0.4l0,0c0-0.1,0.1-0.2,0.1-0.4c0.1-0.4,0.1-0.7,0.1-0.8c0.1-0.9,1.7-2.4,2.6-3
			c0.1,0,0.4-0.3,0.9-0.6c0.2-0.1,0.4-0.2,0.5-0.3l0,0v0.1c-0.1,0.4-0.1,0.6-0.2,0.8c-0.2,0.6-0.2,0.8-0.3,1.2
			c0,0.3-0.1,0.5-0.1,0.8c0,0.1,0,0.7,0,1.5c0,0.1,0,0.4,0.2,0.6c0.1,0.1,0.2,0.2,0.2,0.3c0.5,0.4,0.9,0.6,1.2,0.8
			c0.6,0.4,0.9,0.5,1.6,0.9c0,0,0.4,0.2,0.9,0.3c0.1,0,0.2,0,0.3,0c0.3,0,0.5-0.1,0.7-0.2c0.8-0.5,1.5-1.1,1.5-1.1
			c0.1-0.1,0.6-0.7,1-1.4c0,0,0.2-0.3,0.2-0.8c0-0.2,0-0.4,0-0.5c-0.1-0.1-0.2-0.2-0.3-0.2c-1.1-0.5-2.1-0.8-2.1-0.8
			c-0.1,0-0.3-0.1-0.5-0.1s-0.4-0.1-0.5-0.1s-0.2,0-0.4,0c-0.1,0-0.2,0.1-0.4,0.2c-0.1,0-0.2,0.1-0.4,0.2l0,0c0.1,0,0.3,0.1,0.5,0.1
			c0.8,0.2,1,0.1,1.3,0.3c0.5,0.3,0.5,1,0.6,1.2c0,0.5,0,0.8-0.1,0.9c-0.3,1-1.4,1.5-2.3,1.5c-0.2,0-0.3,0-0.5-0.1
			c-0.5-0.2-0.5-1.1-0.4-2.5c0-0.4,0-0.7,0.1-1.2c0.1-0.8,0.3-1.5,0.5-2l0,0c1.5,0.6,2.3,0.9,2.6,1c0.3,0.1,0.6,0.1,1,0.4
			c0.1,0,0.2,0.1,0.5,0.2c0.1,0,0.2,0.1,0.3,0.1h0.1l0,0c-0.1-0.1-0.2-0.3-0.4-0.4c-0.2-0.2-0.4-0.3-0.8-0.5
			c-0.5-0.2-0.7-0.4-0.9-0.5c-0.4-0.2-1.1-0.6-2.2-1.2c0-0.2,0-0.4,0.1-0.7c0.1-0.5,0.3-0.9,0.5-1.1c0.8-1.4,1.2-2.1,1.4-2.4
			c0,0,0.1-0.1,0.5-0.9c0-0.1,0.1-0.2,0.1-0.4c0-0.1,0-0.1,0-0.2c-0.1-0.1-0.4-0.3-0.6-0.5c-0.6-0.4-1-0.7-1-0.7l0,0
			c0,0-0.2-0.1-0.5-0.3h-0.1c-0.1,0-0.2,0.1-0.3,0.2c0,0-0.1,0-0.3,0.1c-0.2,0-1.3,0-2.7,0C17.6,12,16.6,11.9,15.7,11.8z"/>
		<path class="st0" d="M36.2,18.7c0.3,0.5,0.5,0.9,0.6,1.2c0,0,0,0,0,0.1c-0.2,0.2-0.4,0.6-0.7,1c-0.2,0.3-0.6,0.7-1,1.2
			c-0.3,0.3-0.7,0.6-1.3,1l0,0c-0.5-0.4-1.1-0.9-1.8-1.5c-0.5-0.5-0.9-1.1-1.2-1.6c0,0,0,0,0-0.1c0.2-0.5,0.6-1.1,1.2-1.8
			c0.6-0.7,1.2-1.2,1.7-1.5h0.1c0.5,0.3,0.9,0.6,1.2,0.8C35.4,17.9,35.8,18.2,36.2,18.7z M40.4,13c-0.1-0.4-0.2-0.7-0.3-1
			c-0.1-0.1-0.2-0.1-0.4-0.1c0,0-0.2,0-0.5,0C37.8,12.1,36,13,36,13c-0.9,0.5-1.7,0.8-2.1,1l0,0c-0.8-0.4-1.5-0.7-2-1
			c0,0-1.5-0.7-3.4-1.1c-0.1,0-0.4-0.1-0.7,0c-0.1,0-0.3,0.1-0.3,0.1c-0.1,0.3-0.3,0.7-0.4,1.1c-0.1,0.6-0.2,1.2-0.2,1.6
			c0.4,0.3,0.8,0.6,1.1,0.7c0.3,0.2,0.8,0.4,1.3,0.5c0.3,0,0.5,0,0.6-0.1s0.1-0.2,0.1-0.2c-0.2-0.1-0.7-0.2-1.1-0.5
			c-0.5-0.4-0.7-0.8-0.8-1c0.3-0.1,1.4-0.4,2.6,0.1c0.8,0.3,1.3,0.9,1.6,1.2l0,0c-0.4,0.5-0.8,1-1.3,1.6c-0.6,0.9-1.1,1.8-1.4,2.5
			l0,0c0.5,1.1,1.1,2.3,1.8,3.5c0.8,1.3,1.6,2.5,2.3,3.5c0,0,0,0,0.1,0c0.8-1,1.6-2.1,2.5-3.5c0.7-1.2,1.3-2.4,1.8-3.4l0,0
			c-0.3-0.8-0.7-1.7-1.3-2.6c-0.5-0.7-1-1.3-1.4-1.8l0,0c0.3-0.1,0.7-0.4,1.2-0.6c1-0.5,1.2-0.5,1.4-0.5c0.3,0,0.8-0.1,1.5,0.2v0.1
			c0,0.1-0.1,0.2-0.2,0.3c-0.1,0.2-0.3,0.4-0.7,0.7c-0.2,0.2-0.5,0.4-0.8,0.6v0.1c0.4,0,1-0.1,1.6-0.4c0.6-0.2,1-0.5,1.2-0.8
			C40.5,14.4,40.5,13.7,40.4,13z"/>
	</g>
	<g>
		<path class="st0" d="M44.1,16.5c0.3,0,0.6,0,0.8,0.1c0.3,0.1,0.5,0.2,0.5,0.2c0.1,0,0.2,0.1,0.2,0.1s0.3,0.3,0.3,0.7
			s-0.3,0.8-0.3,0.8s-0.4,0.5-1.1,0.5S43.1,18,43.1,18L44.1,16.5z M43.6,20l-0.8-1.4l0,0l0,0c0.1,0.2,0.4,0.6,1,0.8
			c1.1,0.4,2.1-0.8,2.1-0.8c0.6-0.7,0.6-1.6,0.6-1.9c0-0.2,0-0.4,0-0.5l0,0c0.1,0,0.2,0,0.3,0c0.1,0.3,0.2,0.8,0.1,1.5
			c0,0.3-0.1,0.6-0.2,0.9c-0.5,0.8-1.5,1.1-2.3,1.3C44,20,43.8,20,43.6,20z M49,23.1L49,23.1c0,0,0.8,0.5,0.8,0.8
			c0,0.4-1.3,0.8-1.5,0.8s-0.4-0.1-0.7-0.1c-0.3-0.1-0.5-0.2-0.6-0.3l0,0c0.5-0.5,0.8-1,1-1.3c0.8-1,0.9-1.4,1-1.7
			c0,0,0.2-0.5,0.2-1.2c0-0.2,0-0.5-0.2-0.6c-0.1-0.1-0.2-0.2-0.3-0.3C48.6,19,48.3,18.9,48,19s-0.5,0.2-0.6,0.4
			c-0.2,0.1-0.3,0.3-0.3,0.4c0,0.2-0.1,0.4-0.2,0.5c-0.1,0.2-0.2,0.4-0.3,0.5s-0.2,0.2-0.3,0.3v0.1c0,0,0,0.1,0.1,0.1
			c0.1,0.1,0.2,0.1,0.3,0.1l0.1-0.1c0.1-0.1,0.2-0.2,0.2-0.3c0.1-0.1,0.2-0.3,0.4-0.4c0.1,0,0.3-0.2,0.5-0.1c0.1,0,0.1,0.2,0.2,0.2
			c0,0.1,0,0.1,0,0.2c0,0.6-0.2,1.3-0.2,1.3c-0.1,0.2-0.2,0.5-0.4,0.9s-0.5,0.8-0.8,1l0,0c-0.4-0.3-0.8-0.7-1.2-1.2
			c-0.6-0.7-1-1.4-1.3-1.9c0.2-0.1,0.6-0.2,1-0.4c0.4-0.2,1-0.4,1.5-0.8c0.7-0.4,1.5-1,1.8-2c0-0.2,0.3-0.9,0-1.6
			c0-0.2-0.2-0.5-0.4-1.2c0-0.1-0.1-0.2-0.1-0.3c0,0,0,0,0-0.1c-0.2,0.2-0.4,0.5-0.7,0.7s-0.5,0.4-0.8,0.6l0,0
			c-0.1-0.1-0.2-0.2-0.4-0.4c-0.1-0.1-0.2-0.1-0.3-0.1l0,0c0,0.1-0.1,0.4-0.3,0.6c-0.1,0.1-0.1,0.1-0.2,0.1c-0.3,0-0.5,0-0.8,0
			l1.5-2.5l-0.4-1.8h-0.1c-0.1,0.3-0.4,0.8-0.7,1.3c-0.5,0.8-0.8,1.3-1.3,2.2c-0.3,0.5-0.7,1.2-1.3,2.1c-0.1-0.3-0.3-0.6-0.5-0.9
			c-0.1-0.1-0.2-0.2-0.3-0.4c0,0-0.6,0-0.8,0.1c0,0-0.1,0.1-0.2,0.2c-0.1,0.1-0.1,0.1-0.1,0.2l0,0c0.1,0,0.2,0,0.4,0
			c0,0,0.2,0,0.3,0c0.3,0.1,0.7,0.5,1,1.2c-0.6,1-0.9,1.8-1.1,2.5c-0.4,1.5-0.2,2.1-0.1,2.4c0.1,0.3,0.2,0.5,0.3,0.6c0,0,0,0,0.1,0
			c0.1-0.5,0.2-1,0.3-1.3s0.2-0.5,0.4-0.6c0.1-0.1,0.2-0.1,0.5-0.1c0.2,0,0.5-0.1,0.8-0.2l0,0c0.2,0.5,0.5,0.8,0.6,1.1
			c0.5,0.8,0.7,1.2,1.1,1.7c0.3,0.4,0.6,0.7,0.9,0.9l0,0c-0.3,0.2-0.5,0.5-0.8,0.7c-0.4,0.4-0.9,0.7-1.3,1c0,0,0,0,0,0.1l0.8,0.1
			c0.3-0.2,0.6-0.5,0.8-0.7c0.3-0.3,0.6-0.5,0.9-0.8l0,0c0.2,0.2,1.5,0.7,1.8,0.7c1,0,2.1-1.1,2.1-1.9C50.2,23.1,49,23.1,49,23.1z
			 M42.6,20.2c-0.1,0-0.2,0-0.3,0.1c-0.1,0-0.2,0-0.4,0.1l0.4-0.9l0,0c0,0.1,0.1,0.2,0.1,0.4S42.6,20.1,42.6,20.2L42.6,20.2z"/>
		<path class="st0" d="M54.5,11.8L54.5,11.8c0.2,0.2,0.6,0.5,1.2,0.7c1,0.4,1.8,0.6,2.7,0.7c0.4,0.1,1,0.1,1.7,0.1v0.1
			c-0.2,0.7-0.7,1.7-1.5,2.6c-0.4,0.5-0.8,0.8-1.1,1.1c0,0,0,0-0.1,0c-0.2-0.2-0.5-0.5-0.8-0.8c-0.2-0.2-0.3-0.4-0.4-0.5l0,0
			c0.1-0.1,0.3-0.2,0.5-0.4c0.2-0.1,0.5-0.2,0.7-0.3l0,0c0,0-0.1-0.1-0.2-0.1c-0.1,0-0.2,0-0.3,0s-0.9,0-1.2,0.6
			c-0.3,0.5-0.1,1.1,0.1,1.4c0.2,0.5,0.5,0.8,0.7,1l0,0c-0.2,0.1-0.4,0.4-0.7,0.6c-0.7,0.6-1,1-1.3,1.3s-1,1.2-1.2,2.5
			c-0.1,0.5-0.1,0.8,0,1.1c0,0.2,0,0.4,0.1,0.6c0,0.1,0.1,0.3,0.1,0.4l0,0c0-0.1,0.1-0.2,0.1-0.4c0.1-0.4,0.1-0.7,0.1-0.8
			c0.1-0.9,1.7-2.4,2.6-3c0.1,0,0.4-0.3,0.9-0.6c0.2-0.1,0.3-0.2,0.5-0.3l0,0v0.1c-0.1,0.4-0.2,0.6-0.2,0.8
			c-0.2,0.6-0.2,0.8-0.3,1.2c0,0.3-0.1,0.5-0.1,0.8c0,0.1,0,0.7,0,1.5c0,0.1,0,0.4,0.2,0.6c0.1,0.1,0.2,0.2,0.2,0.3
			c0.5,0.4,0.9,0.6,1.2,0.8c0.6,0.4,0.9,0.5,1.7,0.9c0,0,0.4,0.2,0.9,0.3c0.1,0,0.2,0,0.3,0c0.3,0,0.5-0.1,0.7-0.2
			c0.8-0.5,1.5-1.1,1.5-1.1c0.1-0.1,0.6-0.7,1-1.4c0,0,0.2-0.3,0.2-0.8c0-0.2,0-0.4-0.1-0.5s-0.2-0.2-0.3-0.2
			c-1.1-0.5-2.1-0.8-2.1-0.8c-0.1,0-0.3-0.1-0.5-0.1s-0.4-0.1-0.5-0.1s-0.2,0-0.4,0c-0.1,0-0.2,0.1-0.4,0.2c-0.1,0-0.2,0.1-0.4,0.2
			l0,0c0.1,0,0.3,0.1,0.5,0.1c0.8,0.2,1,0.1,1.3,0.3c0.5,0.3,0.5,1,0.6,1.2c0,0.5,0,0.8-0.1,0.9c-0.3,1-1.4,1.5-2.3,1.5
			c-0.2,0-0.3,0-0.5-0.1c-0.5-0.2-0.5-1.1-0.4-2.5c0-0.4,0-0.7,0.1-1.2c0.1-0.8,0.3-1.5,0.5-2l0,0c1.5,0.6,2.3,0.9,2.7,1
			c0.3,0.1,0.6,0.1,1,0.4c0.1,0,0.2,0.1,0.5,0.2c0.1,0,0.2,0.1,0.3,0.1c0.1,0,0.1,0,0.2,0l0,0c-0.1-0.1-0.2-0.3-0.4-0.4
			c-0.2-0.2-0.4-0.3-0.8-0.5c-0.5-0.2-0.7-0.4-0.9-0.5c-0.4-0.2-1.1-0.6-2.2-1.2c0-0.2,0-0.4,0.1-0.7c0.1-0.5,0.3-0.9,0.5-1.1
			c0.8-1.4,1.2-2.1,1.4-2.4c0,0,0.1-0.1,0.5-0.9c0-0.1,0.1-0.2,0.1-0.4c0-0.1,0-0.1,0-0.2c-0.1-0.1-0.4-0.3-0.7-0.5
			c-0.6-0.4-1-0.7-1-0.7l0,0c0,0-0.2-0.1-0.5-0.3c0,0-0.1,0-0.2,0c-0.1,0-0.2,0.1-0.3,0.2c0,0-0.1,0-0.3,0.1c-0.2,0-1.3,0-2.7,0
			C56.4,12,55.5,11.9,54.5,11.8z"/>
		<path class="st0" d="M75,18.7c0.3,0.5,0.5,0.9,0.6,1.2c0,0,0,0,0,0.1c-0.2,0.2-0.4,0.6-0.7,1c-0.2,0.3-0.6,0.7-1,1.2
			c-0.3,0.3-0.7,0.6-1.3,1c0,0,0,0-0.1,0c-0.5-0.4-1.1-0.9-1.8-1.5c-0.5-0.5-0.9-1.1-1.2-1.6c0,0,0,0,0-0.1c0.2-0.5,0.6-1.1,1.2-1.8
			c0.6-0.7,1.2-1.2,1.7-1.5h0.1c0.5,0.3,0.9,0.6,1.2,0.8C74.2,17.9,74.6,18.2,75,18.7z M79.2,13c-0.1-0.4-0.2-0.7-0.3-1
			c-0.1-0.1-0.2-0.1-0.4-0.1c-0.1,0-0.2,0-0.5,0c-1.4,0.2-3.2,1.1-3.2,1.1c-0.9,0.5-1.7,0.8-2.1,1l0,0c-0.8-0.4-1.5-0.7-2-1
			c0,0-1.5-0.7-3.4-1.1c-0.1,0-0.4-0.1-0.7,0c-0.1,0-0.3,0.1-0.3,0.1c-0.1,0.3-0.3,0.7-0.4,1.1c-0.1,0.6-0.2,1.2-0.2,1.6
			c0.4,0.3,0.8,0.6,1.1,0.7c0.3,0.2,0.8,0.4,1.3,0.5c0.3,0,0.5,0,0.7-0.1c0.1-0.1,0.1-0.2,0.1-0.2c-0.2-0.1-0.7-0.2-1.1-0.5
			c-0.5-0.4-0.7-0.8-0.8-1c0.3-0.1,1.4-0.4,2.6,0.1c0.8,0.3,1.3,0.9,1.6,1.2l0,0c-0.4,0.5-0.8,1-1.3,1.6c-0.6,0.9-1.1,1.8-1.4,2.5
			l0,0c0.5,1.1,1.1,2.3,1.8,3.5c0.8,1.3,1.6,2.5,2.3,3.5h0.1c0.8-1,1.6-2.1,2.4-3.5c0.7-1.2,1.3-2.4,1.8-3.4l0,0
			c-0.3-0.8-0.7-1.7-1.3-2.6c-0.5-0.7-0.9-1.3-1.4-1.8l0,0c0.3-0.1,0.7-0.4,1.2-0.6c1-0.5,1.2-0.5,1.4-0.5c0.3,0,0.8-0.1,1.5,0.2
			v0.1c0,0.1-0.1,0.2-0.2,0.3c-0.1,0.2-0.3,0.4-0.7,0.7c-0.2,0.2-0.5,0.4-0.8,0.6v0.1c0.4,0,1-0.1,1.6-0.4c0.6-0.2,1-0.5,1.2-0.8
			C79.4,14.4,79.4,13.7,79.2,13z"/>
	</g>
	<g>
		<path class="st0" d="M82.9,16.5c0.3,0,0.6,0,0.8,0.1c0.3,0.1,0.5,0.2,0.5,0.2c0.1,0,0.2,0.1,0.2,0.1s0.3,0.3,0.3,0.7
			s-0.3,0.8-0.3,0.8s-0.4,0.5-1.1,0.5S82,18,82,18L82.9,16.5z M82.4,20l-0.8-1.4l0,0l0,0c0.1,0.2,0.4,0.6,1,0.8
			c1.1,0.4,2.1-0.8,2.1-0.8c0.6-0.7,0.6-1.6,0.6-1.9c0-0.2,0-0.4-0.1-0.5l0,0c0.1,0,0.2,0,0.3,0c0.1,0.3,0.2,0.8,0.1,1.5
			c-0.1,0.3-0.1,0.6-0.2,0.9c-0.5,0.8-1.5,1.1-2.3,1.3C82.8,20,82.6,20,82.4,20z M87.9,23.1L87.9,23.1c0,0,0.8,0.5,0.8,0.8
			c0,0.4-1.3,0.8-1.5,0.8s-0.4-0.1-0.7-0.1c-0.3-0.1-0.5-0.2-0.6-0.3l0,0c0.4-0.5,0.8-1,1.1-1.3c0.8-1,0.9-1.4,1-1.7
			c0,0,0.2-0.5,0.2-1.2c0-0.2,0-0.5-0.2-0.6c-0.1-0.1-0.2-0.2-0.3-0.3c-0.1-0.1-0.4-0.2-0.8-0.1c-0.3,0.1-0.5,0.2-0.6,0.4
			c-0.2,0.1-0.3,0.3-0.3,0.4c0,0.2-0.1,0.4-0.2,0.5c-0.1,0.2-0.2,0.4-0.3,0.5c-0.1,0.1-0.2,0.2-0.3,0.3c0,0-0.1,0.1,0,0.1
			c0,0,0,0.1,0.1,0.1c0.1,0.1,0.2,0.1,0.3,0.1c0.1,0,0.1-0.1,0.1-0.1c0.1-0.1,0.2-0.2,0.2-0.3c0.1-0.1,0.2-0.3,0.4-0.4
			c0.1,0,0.3-0.2,0.4-0.1c0.1,0,0.1,0.2,0.2,0.2c0,0.1,0,0.1,0,0.2c0,0.6-0.2,1.3-0.2,1.3c-0.1,0.2-0.2,0.5-0.4,0.9
			c-0.2,0.4-0.5,0.8-0.8,1l0,0c-0.4-0.3-0.8-0.7-1.2-1.2c-0.6-0.7-1-1.4-1.3-1.9c0.2-0.1,0.6-0.2,1-0.4c0.4-0.2,0.9-0.4,1.4-0.8
			c0.7-0.4,1.5-1,1.8-2c0.1-0.2,0.3-0.9,0-1.6c-0.1-0.2-0.2-0.5-0.4-1.2c0-0.1-0.1-0.2-0.1-0.3c0,0,0,0-0.1-0.1
			c-0.2,0.2-0.4,0.5-0.7,0.7c-0.3,0.2-0.5,0.4-0.8,0.6l0,0c-0.1-0.1-0.2-0.2-0.4-0.4c-0.1-0.1-0.2-0.1-0.3-0.1l0,0
			c0,0.1-0.1,0.4-0.3,0.6c0-0.1,0-0.1-0.1,0c-0.3,0-0.5,0-0.8,0l1.5-2.5l-0.4-1.8h-0.1c-0.1,0.3-0.4,0.8-0.7,1.3
			c-0.4,0.8-0.8,1.3-1.3,2.2c-0.3,0.5-0.7,1.2-1.3,2.1c-0.1-0.3-0.3-0.6-0.5-0.9c-0.1-0.1-0.2-0.2-0.3-0.4c-0.1,0-0.6,0-0.8,0.1
			c0,0-0.1,0.1-0.2,0.2S79,16.5,79,16.6l0,0c0.1,0,0.2,0,0.4,0c0,0,0.2,0,0.3,0c0.3,0.1,0.7,0.5,1,1.2c-0.6,1-0.9,1.8-1.1,2.5
			c-0.4,1.5-0.2,2.1-0.1,2.4s0.2,0.5,0.3,0.6c0,0,0,0,0.1,0c0.1-0.5,0.2-1,0.3-1.3c0.1-0.3,0.2-0.5,0.4-0.6c0.1-0.1,0.2-0.1,0.5-0.1
			c0.2,0,0.5-0.1,0.8-0.2l0,0c0.2,0.5,0.5,0.8,0.6,1.1c0.5,0.8,0.7,1.2,1.1,1.7c0.3,0.4,0.6,0.7,0.9,0.9l0,0
			c-0.3,0.2-0.5,0.5-0.8,0.7c-0.4,0.4-0.9,0.7-1.3,1c0,0,0,0,0,0.1l0.8,0.1c0.3-0.2,0.6-0.5,0.8-0.7c0.3-0.3,0.6-0.5,0.9-0.8l0,0
			c0.2,0.2,1.5,0.7,1.8,0.7c1,0,2.1-1.1,2.1-1.9C89,23.1,87.9,23.1,87.9,23.1z M81.5,20.2c-0.1,0-0.2,0-0.3,0.1
			c-0.1,0-0.2,0-0.4,0.1l0.4-0.9l0,0c0,0.1,0.1,0.2,0.1,0.4C81.4,19.9,81.4,20.1,81.5,20.2L81.5,20.2z"/>
		<path class="st0" d="M93.3,11.8L93.3,11.8c0.2,0.2,0.6,0.5,1.2,0.7c1,0.4,1.8,0.6,2.7,0.7c0.4,0.1,1,0.1,1.7,0.1v0.1
			c-0.2,0.7-0.7,1.7-1.5,2.6c-0.4,0.5-0.8,0.8-1.1,1.1c0,0,0,0-0.1,0c-0.2-0.2-0.5-0.5-0.8-0.8c-0.2-0.2-0.3-0.4-0.4-0.5l0,0
			c0.1-0.1,0.3-0.2,0.5-0.4c0.2-0.1,0.5-0.2,0.7-0.3l0,0c0,0-0.1-0.1-0.2-0.1s-0.2,0-0.3,0c-0.1,0-0.9,0-1.2,0.6
			c-0.3,0.5-0.1,1.1,0.1,1.4c0.2,0.5,0.5,0.8,0.7,1l0,0c-0.2,0.1-0.4,0.4-0.7,0.6c-0.7,0.6-1,1-1.3,1.3s-0.9,1.2-1.2,2.5
			c-0.1,0.5-0.1,0.8,0,1.1c0,0.2,0,0.4,0.1,0.6c0,0.1,0.1,0.3,0.1,0.4l0,0c0-0.1,0.1-0.2,0.1-0.4c0.1-0.4,0.1-0.7,0.1-0.8
			c0.1-0.9,1.7-2.4,2.6-3c0.1,0,0.4-0.3,0.9-0.6c0.2-0.1,0.3-0.2,0.4-0.3c0,0,0,0,0.1,0v0.1c-0.1,0.4-0.2,0.6-0.2,0.8
			c-0.2,0.6-0.2,0.8-0.3,1.2c-0.1,0.3-0.1,0.5-0.1,0.8c0,0.1,0,0.7,0.1,1.5c0,0.1,0.1,0.4,0.2,0.6c0.1,0.1,0.2,0.2,0.2,0.3
			c0.5,0.4,0.9,0.6,1.2,0.8c0.6,0.4,0.9,0.5,1.7,0.9c0,0,0.4,0.2,0.9,0.3c0.1,0,0.2,0,0.3,0c0.3,0,0.5-0.1,0.7-0.2
			c0.8-0.5,1.5-1.1,1.5-1.1c0.1-0.1,0.6-0.7,1-1.4c0,0,0.2-0.3,0.2-0.8c0-0.2,0-0.4-0.1-0.5s-0.2-0.2-0.3-0.2
			c-1.1-0.5-2.1-0.8-2.1-0.8c-0.1,0-0.3-0.1-0.5-0.1s-0.4-0.1-0.5-0.1s-0.2,0-0.4,0c-0.1,0-0.2,0.1-0.4,0.2c-0.1,0-0.2,0.1-0.4,0.2
			l0,0c0.1,0,0.3,0.1,0.5,0.1c0.8,0.2,1,0.1,1.3,0.3c0.5,0.3,0.5,1,0.6,1.2c0.1,0.5-0.1,0.8-0.1,0.9c-0.3,1-1.4,1.5-2.3,1.5
			c-0.2,0-0.3,0-0.4-0.1c-0.5-0.2-0.5-1.1-0.4-2.5c0-0.4,0-0.7,0.1-1.2c0.1-0.8,0.3-1.5,0.5-2h0.1c1.5,0.6,2.3,0.9,2.7,1
			c0.3,0.1,0.6,0.1,0.9,0.4c0.1,0,0.2,0.1,0.5,0.2c0.1,0,0.2,0.1,0.3,0.1c0.1,0,0.1,0,0.2,0l0,0c-0.1-0.1-0.2-0.3-0.4-0.4
			c-0.2-0.2-0.4-0.3-0.8-0.5s-0.7-0.4-0.9-0.5c-0.4-0.2-1.1-0.6-2.2-1.2c0-0.2,0-0.4,0.1-0.7c0.1-0.5,0.3-0.9,0.5-1.1
			c0.8-1.4,1.2-2.1,1.4-2.4c0,0,0.1-0.1,0.5-0.9c0-0.1,0.1-0.2,0.1-0.4c0-0.1,0-0.1,0-0.2c-0.1-0.1-0.4-0.3-0.7-0.5
			c-0.6-0.4-1-0.7-1-0.7l0,0c0,0-0.2-0.1-0.5-0.3c0,0-0.1,0-0.2,0s-0.2,0.1-0.3,0.2c0,0-0.1,0-0.3,0.1c-0.2,0-1.3,0-2.7,0
			C95.3,12,94.3,11.9,93.3,11.8z"/>
		<path class="st0" d="M113.9,18.7c0.3,0.5,0.5,0.9,0.6,1.2c0,0,0,0,0,0.1c-0.2,0.2-0.4,0.6-0.7,1c-0.2,0.3-0.6,0.7-1,1.2
			c-0.3,0.3-0.7,0.6-1.3,1c0,0,0,0-0.1,0c-0.5-0.4-1.1-0.9-1.8-1.5c-0.5-0.5-0.9-1.1-1.2-1.6c0,0,0,0,0-0.1c0.2-0.5,0.6-1.1,1.2-1.8
			c0.6-0.7,1.2-1.2,1.7-1.5h0.1c0.5,0.3,0.9,0.6,1.2,0.8C113.1,17.9,113.5,18.2,113.9,18.7z M118,13c-0.1-0.4-0.2-0.7-0.3-1
			c-0.1-0.1-0.2-0.1-0.4-0.1c-0.1,0-0.2,0-0.5,0c-1.4,0.2-3.2,1.1-3.2,1.1c-0.9,0.5-1.7,0.8-2.1,1l0,0c-0.8-0.4-1.5-0.7-2-1
			c0,0-1.5-0.7-3.4-1.1c-0.1,0-0.4-0.1-0.7,0c-0.1,0-0.3,0.1-0.3,0.1c-0.1,0.3-0.3,0.7-0.4,1.1c-0.1,0.6-0.2,1.2-0.2,1.6
			c0.4,0.3,0.8,0.6,1.1,0.7c0.3,0.2,0.8,0.4,1.3,0.5c0.3,0,0.5,0,0.7-0.1c0.1-0.1,0.1-0.2,0.1-0.2c-0.2-0.1-0.7-0.2-1.1-0.5
			c-0.5-0.4-0.7-0.8-0.8-1c0.3-0.1,1.4-0.4,2.6,0.1c0.8,0.3,1.3,0.9,1.6,1.2l0,0c-0.4,0.5-0.8,1-1.3,1.6c-0.6,0.9-1.1,1.8-1.4,2.5
			l0,0c0.5,1.1,1.1,2.3,1.8,3.5c0.8,1.3,1.6,2.5,2.3,3.5h0.1c0.8-1,1.6-2.1,2.4-3.5c0.7-1.2,1.3-2.4,1.8-3.4l0,0
			c-0.3-0.8-0.7-1.7-1.3-2.6c-0.5-0.7-0.9-1.3-1.4-1.8l0,0c0.3-0.1,0.7-0.4,1.2-0.6c1-0.5,1.2-0.5,1.4-0.5c0.3,0,0.8-0.1,1.5,0.2
			v0.1c0,0.1-0.1,0.2-0.2,0.3c-0.1,0.2-0.3,0.4-0.7,0.7c-0.2,0.2-0.5,0.4-0.8,0.6v0.1c0.4,0,1-0.1,1.6-0.4c0.6-0.2,1-0.5,1.2-0.8
			C118.2,14.4,118.2,13.7,118,13z"/>
	</g>
	<g>
		<path class="st0" d="M121.8,16.5c0.3,0,0.6,0,0.8,0.1c0.3,0.1,0.5,0.2,0.5,0.2c0.1,0,0.2,0.1,0.2,0.1s0.3,0.3,0.3,0.7
			s-0.3,0.8-0.3,0.8s-0.4,0.5-1.1,0.5s-1.3-0.9-1.3-0.9L121.8,16.5z M121.2,20l-0.8-1.4l0,0l0,0c0.1,0.2,0.4,0.6,1,0.8
			c1.1,0.4,2.1-0.8,2.1-0.8c0.6-0.7,0.6-1.6,0.6-1.9c0-0.2,0-0.4-0.1-0.5l0,0c0.1,0,0.2,0,0.3,0c0.1,0.3,0.2,0.8,0.1,1.5
			c-0.1,0.3-0.1,0.6-0.2,0.9c-0.5,0.8-1.5,1.1-2.3,1.3C121.7,20,121.4,20,121.2,20z M126.7,23.1L126.7,23.1c0,0,0.8,0.5,0.8,0.8
			c0,0.4-1.3,0.8-1.5,0.8s-0.4-0.1-0.7-0.1c-0.3-0.1-0.5-0.2-0.6-0.3l0,0c0.4-0.5,0.8-1,1.1-1.3c0.8-1,0.9-1.4,1-1.7
			c0,0,0.2-0.5,0.2-1.2c0-0.2,0-0.5-0.2-0.6c-0.1-0.1-0.2-0.2-0.3-0.3c-0.1-0.1-0.4-0.2-0.8-0.1c-0.3,0.1-0.5,0.2-0.6,0.4
			c-0.2,0.1-0.3,0.3-0.3,0.4c0,0.2-0.1,0.4-0.2,0.5c-0.1,0.2-0.2,0.4-0.3,0.5c-0.1,0.1-0.2,0.2-0.3,0.3c0,0-0.1,0.1,0,0.1
			c0,0,0,0.1,0.1,0.1c0.1,0.1,0.2,0.1,0.3,0.1c0.1,0,0.1-0.1,0.1-0.1c0.1-0.1,0.2-0.2,0.2-0.3c0.1-0.1,0.2-0.3,0.4-0.4
			c0.1,0,0.3-0.2,0.4-0.1c0.1,0,0.1,0.2,0.2,0.2c0,0.1,0,0.1,0,0.2c0,0.6-0.2,1.3-0.2,1.3c-0.1,0.2-0.2,0.5-0.4,0.9
			c-0.2,0.4-0.5,0.8-0.8,1l0,0c-0.4-0.3-0.8-0.7-1.2-1.2c-0.6-0.7-1-1.4-1.3-1.9c0.2-0.1,0.6-0.2,1-0.4c0.4-0.2,0.9-0.4,1.4-0.8
			c0.7-0.4,1.5-1,1.8-2c0.1-0.2,0.3-0.9,0-1.6c-0.1-0.2-0.2-0.5-0.4-1.2c0-0.1-0.1-0.2-0.1-0.3c0,0,0,0-0.1-0.1
			c-0.2,0.2-0.4,0.5-0.7,0.7c-0.3,0.2-0.5,0.4-0.8,0.6l0,0c-0.1-0.1-0.2-0.2-0.4-0.4c-0.1-0.1-0.2-0.1-0.3-0.1l0,0
			c0,0.1-0.1,0.4-0.3,0.6c-0.1,0.1-0.1,0.1-0.2,0.1c-0.3,0-0.5,0-0.8,0l1.5-2.5l-0.4-1.8h-0.1c-0.1,0.3-0.4,0.8-0.7,1.3
			c-0.4,0.8-0.8,1.3-1.3,2.2c-0.3,0.5-0.7,1.2-1.3,2.1c-0.1-0.3-0.3-0.6-0.5-0.9c-0.1-0.1-0.2-0.2-0.3-0.4c-0.1,0-0.6,0-0.8,0.1
			c0,0-0.1,0.1-0.2,0.2s-0.1,0.1-0.1,0.2l0,0c0.1,0,0.2,0,0.4,0c0,0,0.2,0,0.3,0c0.3,0.1,0.7,0.5,1,1.2c-0.6,1-0.9,1.8-1.1,2.5
			c-0.4,1.5-0.2,2.1-0.1,2.4s0.2,0.5,0.3,0.6c0,0,0,0,0.1,0c0.1-0.5,0.2-1,0.3-1.3c0.1-0.3,0.2-0.5,0.4-0.6c0.1-0.1,0.2-0.1,0.5-0.1
			c0.2,0,0.5-0.1,0.8-0.2l0,0c0.2,0.5,0.5,0.8,0.6,1.1c0.5,0.8,0.7,1.2,1.1,1.7c0.3,0.4,0.6,0.7,0.9,0.9l0,0
			c-0.3,0.2-0.5,0.5-0.8,0.7c-0.4,0.4-0.9,0.7-1.3,1c0,0,0,0,0,0.1l0.8,0.1c0.3-0.2,0.6-0.5,0.8-0.7c0.3-0.3,0.6-0.5,0.9-0.8l0,0
			c0.2,0.2,1.5,0.7,1.8,0.7c1,0,2.1-1.1,2.1-1.9C127.8,23.1,126.7,23.1,126.7,23.1z M120.3,20.2c-0.1,0-0.2,0-0.3,0.1
			c-0.1,0-0.2,0-0.4,0.1l0.4-0.9l0,0c0,0.1,0.1,0.2,0.1,0.4S120.2,20.1,120.3,20.2L120.3,20.2z"/>
		<path class="st0" d="M132.2,11.8L132.2,11.8c0.2,0.2,0.6,0.5,1.1,0.7c1,0.4,1.8,0.6,2.7,0.7c0.4,0.1,1,0.1,1.7,0.1v0.1
			c-0.2,0.7-0.7,1.7-1.5,2.6c-0.4,0.5-0.8,0.8-1.1,1.1c0,0,0,0-0.1,0c-0.2-0.2-0.5-0.5-0.8-0.8c-0.1-0.2-0.3-0.4-0.4-0.5l0,0
			c0.1-0.1,0.3-0.2,0.5-0.4c0.2-0.1,0.5-0.2,0.7-0.3l0,0l-0.1-0.1c-0.1,0-0.2,0-0.3,0s-0.9,0-1.2,0.6c-0.3,0.5-0.1,1.1,0.1,1.4
			c0.2,0.5,0.5,0.8,0.7,1l0,0c-0.2,0.1-0.4,0.4-0.7,0.6c-0.7,0.6-1,1-1.3,1.3s-0.9,1.2-1.1,2.5c-0.1,0.5-0.1,0.8,0,1.1
			c0,0.2,0,0.4,0.1,0.6c0,0.1,0.1,0.3,0.1,0.4l0,0c0-0.1,0.1-0.2,0.1-0.4c0.1-0.4,0.1-0.7,0.1-0.8c0.1-0.9,1.7-2.4,2.6-3
			c0.1,0,0.4-0.3,0.9-0.6c0.2-0.1,0.4-0.2,0.4-0.3c0,0,0,0,0.1,0v0.1c-0.1,0.4-0.1,0.6-0.2,0.8c-0.2,0.6-0.2,0.8-0.3,1.2
			c-0.1,0.3-0.1,0.5-0.1,0.8c0,0.1,0,0.7,0.1,1.5c0,0.1,0.1,0.4,0.2,0.6c0.1,0.1,0.2,0.2,0.2,0.3c0.5,0.4,0.9,0.6,1.2,0.8
			c0.6,0.4,0.9,0.5,1.6,0.9c0,0,0.4,0.2,0.9,0.3c0.1,0,0.2,0,0.3,0c0.3,0,0.5-0.1,0.7-0.2c0.8-0.5,1.5-1.1,1.5-1.1
			c0.1-0.1,0.6-0.7,1-1.4c0,0,0.2-0.3,0.2-0.8c0-0.2,0-0.4-0.1-0.5s-0.2-0.2-0.3-0.2c-1.1-0.5-2.1-0.8-2.1-0.8
			c-0.1,0-0.3-0.1-0.5-0.1s-0.4-0.1-0.5-0.1s-0.2,0-0.4,0c-0.1,0-0.2,0.1-0.4,0.2c-0.1,0-0.2,0.1-0.4,0.2l0,0c0.1,0,0.3,0.1,0.5,0.1
			c0.8,0.2,1,0.1,1.3,0.3c0.5,0.3,0.5,1,0.6,1.2c0.1,0.5-0.1,0.8-0.1,0.9c-0.3,1-1.4,1.5-2.3,1.5c-0.2,0-0.3,0-0.4-0.1
			c-0.5-0.2-0.5-1.1-0.4-2.5c0-0.4,0-0.7,0.1-1.2c0.1-0.8,0.3-1.5,0.5-2h0.1c1.5,0.6,2.3,0.9,2.6,1s0.6,0.1,0.9,0.4
			c0.1,0,0.2,0.1,0.5,0.2c0.1,0,0.2,0.1,0.3,0.1s0.1,0,0.1,0l0,0c-0.1-0.1-0.2-0.3-0.4-0.4c-0.2-0.2-0.4-0.3-0.8-0.5
			c-0.4-0.2-0.7-0.4-0.9-0.5c-0.4-0.2-1.1-0.6-2.2-1.2c0-0.2,0-0.4,0.1-0.7c0.1-0.5,0.3-0.9,0.5-1.1c0.8-1.4,1.2-2.1,1.4-2.4
			c0,0,0.1-0.1,0.5-0.9c0-0.1,0.1-0.2,0.1-0.4c0-0.1,0-0.1,0-0.2c-0.1-0.1-0.4-0.3-0.6-0.5c-0.6-0.4-1-0.7-1-0.7l0,0
			c0,0-0.2-0.1-0.5-0.3h-0.1c-0.1,0-0.2,0.1-0.3,0.2c0,0-0.1,0-0.3,0.1c-0.2,0-1.3,0-2.7,0C134.1,12,133.1,11.9,132.2,11.8z"/>
		<path class="st0" d="M152.7,18.7c0.3,0.5,0.5,0.9,0.6,1.2c0,0,0,0,0,0.1c-0.2,0.2-0.4,0.6-0.7,1c-0.2,0.3-0.6,0.7-1,1.2
			c-0.3,0.3-0.7,0.6-1.3,1c0,0,0,0-0.1,0c-0.5-0.4-1.1-0.9-1.8-1.5c-0.5-0.5-0.9-1.1-1.2-1.6c0,0,0,0,0-0.1c0.2-0.5,0.6-1.1,1.2-1.8
			c0.6-0.7,1.2-1.2,1.7-1.5h0.1c0.5,0.3,0.9,0.6,1.1,0.8C151.9,17.9,152.3,18.2,152.7,18.7z M156.9,13c-0.1-0.4-0.2-0.7-0.3-1
			c-0.1-0.1-0.2-0.1-0.4-0.1c-0.1,0-0.2,0-0.5,0c-1.4,0.2-3.2,1.1-3.2,1.1c-0.9,0.5-1.6,0.8-2.1,1l0,0c-0.8-0.4-1.5-0.7-2-1
			c0,0-1.5-0.7-3.4-1.1c-0.1,0-0.4-0.1-0.7,0c-0.1,0-0.3,0.1-0.3,0.1c-0.1,0.3-0.3,0.7-0.4,1.1c-0.1,0.6-0.2,1.2-0.2,1.6
			c0.4,0.3,0.8,0.6,1.1,0.7c0.3,0.2,0.8,0.4,1.3,0.5c0.3,0,0.5,0,0.6-0.1s0.1-0.2,0.1-0.2c-0.2-0.1-0.7-0.2-1.1-0.5
			c-0.5-0.4-0.7-0.8-0.8-1c0.3-0.1,1.4-0.4,2.6,0.1c0.8,0.3,1.3,0.9,1.6,1.2l0,0c-0.4,0.5-0.8,1-1.3,1.6c-0.6,0.9-1.1,1.8-1.4,2.5
			l0,0c0.5,1.1,1.1,2.3,1.8,3.5c0.8,1.3,1.6,2.5,2.3,3.5h0.1c0.8-1,1.6-2.1,2.4-3.5c0.7-1.2,1.3-2.4,1.8-3.4l0,0
			c-0.3-0.8-0.7-1.7-1.4-2.6c-0.5-0.7-0.9-1.3-1.4-1.8l0,0c0.3-0.1,0.7-0.4,1.2-0.6c1-0.5,1.2-0.5,1.4-0.5c0.3,0,0.8-0.1,1.5,0.2
			v0.1c0,0.1-0.1,0.2-0.2,0.3c-0.1,0.2-0.3,0.4-0.7,0.7c-0.2,0.2-0.5,0.4-0.8,0.6v0.1c0.4,0,1-0.1,1.6-0.4c0.6-0.2,1-0.5,1.2-0.8
			C157.1,14.4,157.1,13.7,156.9,13z"/>
	</g>
	<g>
		<path class="st0" d="M160.6,16.5c0.4,0,0.6,0,0.8,0.1c0.3,0.1,0.5,0.2,0.5,0.2c0.1,0,0.1,0.1,0.2,0.1c0,0,0.3,0.3,0.3,0.7
			s-0.4,0.8-0.4,0.8s-0.4,0.5-1.1,0.5s-1.3-0.9-1.3-0.9L160.6,16.5z M160.1,20l-0.8-1.4l0,0l0,0c0.1,0.2,0.4,0.6,1,0.8
			c1.1,0.4,2.1-0.8,2.1-0.8c0.6-0.7,0.6-1.6,0.6-1.9c0-0.2,0-0.4-0.1-0.5l0,0c0.1,0,0.2,0,0.3,0c0.1,0.3,0.1,0.8,0.1,1.5
			c-0.1,0.3-0.1,0.6-0.2,0.9c-0.5,0.8-1.5,1.1-2.3,1.3C160.5,20,160.3,20,160.1,20z M165.6,23.1L165.6,23.1c0,0,0.8,0.5,0.8,0.8
			c0,0.4-1.3,0.8-1.5,0.8s-0.4-0.1-0.7-0.1c-0.3-0.1-0.5-0.2-0.6-0.3l0,0c0.4-0.5,0.8-1,1.1-1.3c0.8-1,0.9-1.4,1-1.7
			c0,0,0.2-0.5,0.2-1.2c0-0.2,0-0.5-0.2-0.6c-0.1-0.1-0.2-0.2-0.3-0.3c-0.1-0.1-0.4-0.2-0.8-0.1c-0.3,0.1-0.5,0.2-0.6,0.4
			c-0.1,0.1-0.3,0.3-0.3,0.4c0,0.2-0.1,0.4-0.2,0.5c-0.1,0.2-0.2,0.4-0.3,0.5s-0.2,0.2-0.3,0.3c0,0-0.1,0.1,0,0.1c0,0,0,0.1,0.1,0.1
			c0.1,0.1,0.2,0.1,0.3,0.1s0.1-0.1,0.1-0.1c0.1-0.1,0.1-0.2,0.2-0.3c0.1-0.1,0.2-0.3,0.4-0.4c0.1,0,0.3-0.2,0.4-0.1
			c0.1,0,0.1,0.2,0.2,0.2c0,0.1,0,0.1,0,0.2c0,0.6-0.2,1.3-0.2,1.3c-0.1,0.2-0.2,0.5-0.4,0.9s-0.5,0.8-0.8,1l0,0
			c-0.4-0.3-0.8-0.7-1.2-1.2c-0.6-0.7-1-1.4-1.3-1.9c0.2-0.1,0.6-0.2,1-0.4c0.4-0.2,0.9-0.4,1.4-0.8c0.7-0.4,1.5-1,1.9-2
			c0.1-0.2,0.3-0.9,0-1.6c-0.1-0.2-0.2-0.5-0.4-1.2c0-0.1-0.1-0.2-0.1-0.3c0,0,0,0-0.1-0.1c-0.2,0.2-0.4,0.5-0.7,0.7
			s-0.5,0.4-0.8,0.6l0,0c-0.1-0.1-0.2-0.2-0.4-0.4c-0.1-0.1-0.2-0.1-0.3-0.1l0,0c0,0.1-0.1,0.4-0.3,0.6c-0.1,0.1-0.1,0.1-0.2,0.1
			c-0.3,0-0.5,0-0.8,0l1.5-2.5l-0.4-1.8h0c-0.1,0.3-0.4,0.8-0.7,1.3c-0.4,0.8-0.8,1.3-1.3,2.2c-0.3,0.5-0.7,1.2-1.3,2.1
			c-0.1-0.3-0.3-0.6-0.5-0.9c-0.1-0.1-0.2-0.2-0.3-0.4c-0.1,0-0.6,0-0.9,0.1c0,0-0.1,0.1-0.2,0.2c-0.1,0.1-0.1,0.1-0.1,0.2l0,0
			c0.1,0,0.2,0,0.4,0c0,0,0.2,0,0.3,0c0.3,0.1,0.7,0.5,1,1.2c-0.6,1-0.9,1.8-1.1,2.5c-0.4,1.5-0.2,2.1-0.1,2.4
			c0.1,0.3,0.2,0.5,0.3,0.6c0,0,0,0,0.1,0c0.1-0.5,0.2-1,0.3-1.3s0.2-0.5,0.4-0.6c0.1-0.1,0.2-0.1,0.5-0.1c0.2,0,0.5-0.1,0.8-0.2
			l0,0c0.2,0.5,0.5,0.8,0.6,1.1c0.5,0.8,0.7,1.2,1.1,1.7c0.3,0.4,0.6,0.7,0.9,0.9l0,0c-0.3,0.2-0.5,0.5-0.8,0.7
			c-0.4,0.4-0.9,0.7-1.3,1c0,0,0,0,0,0.1l0.8,0.1c0.3-0.2,0.6-0.5,0.9-0.7c0.3-0.3,0.6-0.5,0.9-0.8l0,0c0.2,0.2,1.5,0.7,1.9,0.7
			c1,0,2.1-1.1,2.1-1.9C166.7,23.1,165.6,23.1,165.6,23.1z M159.1,20.2c-0.1,0-0.2,0-0.3,0.1c-0.1,0-0.2,0-0.4,0.1l0.4-0.9l0,0
			c0,0.1,0.1,0.2,0.1,0.4C159,19.9,159.1,20.1,159.1,20.2L159.1,20.2z"/>
		<path class="st0" d="M171,11.8L171,11.8c0.2,0.2,0.6,0.5,1.1,0.7c1,0.4,1.8,0.6,2.7,0.7c0.4,0.1,1,0.1,1.7,0.1v0.1
			c-0.2,0.7-0.7,1.7-1.5,2.6c-0.4,0.5-0.8,0.8-1.1,1.1c0,0,0,0-0.1,0c-0.2-0.2-0.5-0.5-0.8-0.8c-0.1-0.2-0.3-0.4-0.4-0.5l0,0
			c0.1-0.1,0.3-0.2,0.5-0.4c0.2-0.1,0.5-0.2,0.7-0.3l0,0l-0.1-0.1c-0.1,0-0.2,0-0.3,0s-0.9,0-1.2,0.6c-0.3,0.5-0.1,1.1,0.1,1.4
			c0.2,0.5,0.5,0.8,0.7,1l0,0c-0.2,0.1-0.4,0.4-0.7,0.6c-0.7,0.6-1,1-1.3,1.3s-0.9,1.2-1.1,2.5c-0.1,0.5-0.1,0.8,0,1.1
			c0,0.2,0,0.4,0.1,0.6c0,0.1,0.1,0.3,0.1,0.4l0,0c0-0.1,0.1-0.2,0.1-0.4c0.1-0.4,0.1-0.7,0.1-0.8c0.1-0.9,1.7-2.4,2.6-3
			c0.1,0,0.4-0.3,0.9-0.6c0.2-0.1,0.4-0.2,0.4-0.3c0,0,0,0,0.1,0v0.1c-0.1,0.4-0.1,0.6-0.2,0.8c-0.2,0.6-0.2,0.8-0.3,1.2
			c-0.1,0.3-0.1,0.5-0.1,0.8c0,0.1,0,0.7,0.1,1.5c0,0.1,0.1,0.4,0.2,0.6c0.1,0.1,0.2,0.2,0.2,0.3c0.5,0.4,0.9,0.6,1.2,0.8
			c0.6,0.4,0.9,0.5,1.6,0.9c0,0,0.4,0.2,0.9,0.3c0.1,0,0.2,0,0.3,0c0.3,0,0.5-0.1,0.7-0.2c0.8-0.5,1.5-1.1,1.5-1.1
			c0.1-0.1,0.6-0.7,1-1.4c0,0,0.2-0.3,0.2-0.8c0-0.2,0-0.4-0.1-0.5s-0.2-0.2-0.3-0.2c-1.1-0.5-2.1-0.8-2.1-0.8
			c-0.1,0-0.3-0.1-0.5-0.1s-0.4-0.1-0.5-0.1s-0.2,0-0.4,0c-0.1,0-0.2,0.1-0.4,0.2c-0.1,0-0.2,0.1-0.4,0.2l0,0c0.1,0,0.3,0.1,0.5,0.1
			c0.8,0.2,1,0.1,1.3,0.3c0.5,0.3,0.5,1,0.6,1.2c0.1,0.5-0.1,0.8-0.1,0.9c-0.3,1-1.4,1.5-2.3,1.5c-0.2,0-0.3,0-0.4-0.1
			c-0.5-0.2-0.5-1.1-0.4-2.5c0-0.4,0-0.7,0.1-1.2c0.1-0.8,0.3-1.5,0.5-2h0.1c1.5,0.6,2.3,0.9,2.6,1s0.6,0.1,0.9,0.4
			c0.1,0,0.2,0.1,0.5,0.2c0.1,0,0.2,0.1,0.3,0.1s0.1,0,0.1,0l0,0c-0.1-0.1-0.2-0.3-0.4-0.4c-0.2-0.2-0.4-0.3-0.8-0.5
			c-0.4-0.2-0.7-0.4-0.9-0.5c-0.4-0.2-1.1-0.6-2.2-1.2c0-0.2,0-0.4,0.1-0.7c0.1-0.5,0.3-0.9,0.5-1.1c0.8-1.4,1.2-2.1,1.4-2.4
			c0,0,0.1-0.1,0.5-0.9c0-0.1,0.1-0.2,0.1-0.4c0-0.1,0-0.1,0-0.2c-0.1-0.1-0.4-0.3-0.6-0.5c-0.6-0.4-1-0.7-1-0.7l0,0
			c0,0-0.2-0.1-0.5-0.3h-0.1c-0.1,0-0.2,0.1-0.3,0.2c0,0-0.1,0-0.3,0.1c-0.2,0-1.3,0-2.7,0C172.9,12,172,11.9,171,11.8z"/>
		<path class="st0" d="M191.5,18.7c0.3,0.5,0.5,0.9,0.6,1.2c0,0,0,0,0,0.1c-0.2,0.2-0.4,0.6-0.7,1c-0.2,0.3-0.6,0.7-1,1.2
			c-0.3,0.3-0.7,0.6-1.3,1c0,0,0,0-0.1,0c-0.5-0.4-1.1-0.9-1.8-1.5c-0.5-0.5-0.9-1.1-1.2-1.6c0,0,0,0,0-0.1c0.2-0.5,0.6-1.1,1.2-1.8
			c0.6-0.7,1.2-1.2,1.7-1.5h0.1c0.5,0.3,0.9,0.6,1.1,0.8C190.8,17.9,191.2,18.2,191.5,18.7z M195.7,13c-0.1-0.4-0.2-0.7-0.3-1
			c-0.1-0.1-0.2-0.1-0.4-0.1c-0.1,0-0.2,0-0.5,0c-1.4,0.2-3.2,1.1-3.2,1.1c-0.9,0.5-1.6,0.8-2.1,1l0,0c-0.8-0.4-1.5-0.7-2-1
			c0,0-1.5-0.7-3.4-1.1c-0.1,0-0.4-0.1-0.7,0c-0.1,0-0.3,0.1-0.3,0.1c-0.1,0.3-0.3,0.7-0.4,1.1c-0.1,0.6-0.2,1.2-0.2,1.6
			c0.4,0.3,0.8,0.6,1.1,0.7c0.3,0.2,0.8,0.4,1.3,0.5c0.3,0,0.5,0,0.6-0.1s0.1-0.2,0.1-0.2c-0.2-0.1-0.7-0.2-1.1-0.5
			c-0.5-0.4-0.7-0.8-0.8-1c0.3-0.1,1.4-0.4,2.6,0.1c0.8,0.3,1.3,0.9,1.6,1.2l0,0c-0.4,0.5-0.8,1-1.3,1.6c-0.6,0.9-1.1,1.8-1.4,2.5
			l0,0c0.5,1.1,1.1,2.3,1.8,3.5c0.8,1.3,1.6,2.5,2.3,3.5h0.1c0.8-1,1.6-2.1,2.4-3.5c0.7-1.2,1.3-2.4,1.8-3.4l0,0
			c-0.3-0.8-0.7-1.7-1.4-2.6c-0.5-0.7-0.9-1.3-1.4-1.8l0,0c0.3-0.1,0.7-0.4,1.2-0.6c1-0.5,1.2-0.5,1.4-0.5c0.3,0,0.8-0.1,1.5,0.2
			v0.1c0,0.1-0.1,0.2-0.2,0.3c-0.1,0.2-0.3,0.4-0.7,0.7c-0.2,0.2-0.5,0.4-0.8,0.6v0.1c0.4,0,1-0.1,1.6-0.4c0.6-0.2,1-0.5,1.2-0.8
			C195.9,14.4,195.9,13.7,195.7,13z"/>
	</g>
	<g>
		<path class="st0" d="M199.5,16.5c0.4,0,0.6,0,0.8,0.1c0.3,0.1,0.5,0.2,0.5,0.2c0.1,0,0.1,0.1,0.2,0.1c0,0,0.3,0.3,0.3,0.7
			s-0.4,0.8-0.4,0.8s-0.4,0.5-1.1,0.5s-1.3-0.9-1.3-0.9L199.5,16.5z M198.9,20l-0.8-1.4l0,0l0,0c0.1,0.2,0.4,0.6,1,0.8
			c1.1,0.4,2.1-0.8,2.1-0.8c0.6-0.7,0.6-1.6,0.6-1.9c0-0.2,0-0.4-0.1-0.5l0,0c0.1,0,0.2,0,0.3,0c0.1,0.3,0.1,0.8,0.1,1.5
			c-0.1,0.3-0.1,0.6-0.2,0.9c-0.5,0.8-1.5,1.1-2.3,1.3C199.4,20,199.1,20,198.9,20z M204.4,23.1L204.4,23.1c0,0,0.8,0.5,0.8,0.8
			c0,0.4-1.3,0.8-1.5,0.8s-0.4-0.1-0.7-0.1c-0.3-0.1-0.5-0.2-0.6-0.3l0,0c0.4-0.5,0.8-1,1.1-1.3c0.8-1,0.9-1.4,1-1.7
			c0,0,0.2-0.5,0.2-1.2c0-0.2,0-0.5-0.2-0.6c-0.1-0.1-0.2-0.2-0.3-0.3c-0.1-0.1-0.4-0.2-0.8-0.1c-0.3,0.1-0.5,0.2-0.6,0.4
			c-0.1,0.1-0.3,0.3-0.3,0.4c0,0.2-0.1,0.4-0.2,0.5c-0.1,0.2-0.2,0.4-0.3,0.5s-0.2,0.2-0.3,0.3c0,0-0.1,0.1,0,0.1c0,0,0,0.1,0.1,0.1
			c0.1,0.1,0.2,0.1,0.3,0.1s0.1-0.1,0.1-0.1c0.1-0.1,0.1-0.2,0.2-0.3c0.1-0.1,0.2-0.3,0.4-0.4c0.1,0,0.3-0.2,0.4-0.1
			c0.1,0,0.1,0.2,0.2,0.2c0,0.1,0,0.1,0,0.2c0,0.6-0.2,1.3-0.2,1.3c-0.1,0.2-0.2,0.5-0.4,0.9s-0.5,0.8-0.8,1l0,0
			c-0.4-0.3-0.8-0.7-1.2-1.2c-0.6-0.7-1-1.4-1.3-1.9c0.2-0.1,0.6-0.2,1-0.4c0.4-0.2,0.9-0.4,1.4-0.8c0.7-0.4,1.5-1,1.9-2
			c0.1-0.2,0.3-0.9,0-1.6c-0.1-0.2-0.2-0.5-0.4-1.2c0-0.1-0.1-0.2-0.1-0.3c0,0,0,0-0.1-0.1c-0.2,0.2-0.4,0.5-0.7,0.7
			s-0.5,0.4-0.8,0.6l0,0c-0.1-0.1-0.2-0.2-0.4-0.4c-0.1-0.1-0.2-0.1-0.3-0.1l0,0c0,0.1-0.1,0.4-0.3,0.6c-0.1,0.1-0.1,0.1-0.2,0.1
			c-0.3,0-0.5,0-0.8,0l1.5-2.5l-0.4-1.8h-0.1c-0.1,0.3-0.4,0.8-0.7,1.3c-0.4,0.8-0.8,1.3-1.3,2.2c-0.3,0.5-0.7,1.2-1.3,2.1
			c-0.1-0.3-0.3-0.6-0.5-0.9c-0.1-0.1-0.2-0.2-0.3-0.4c-0.1,0-0.6,0-0.9,0.1c0,0-0.1,0.1-0.2,0.2c-0.1,0.1-0.1,0.1-0.1,0.2l0,0
			c0.1,0,0.2,0,0.4,0c0,0,0.2,0,0.3,0c0.3,0.1,0.7,0.5,1,1.2c-0.6,1-0.9,1.8-1.1,2.5c-0.4,1.5-0.2,2.1-0.1,2.4
			c0.1,0.3,0.2,0.5,0.3,0.6c0,0,0,0,0.1,0c0.1-0.5,0.2-1,0.3-1.3s0.2-0.5,0.4-0.6c0.1-0.1,0.2-0.1,0.5-0.1c0.2,0,0.5-0.1,0.8-0.2
			l0,0c0.2,0.5,0.5,0.8,0.6,1.1c0.5,0.8,0.7,1.2,1.1,1.7c0.3,0.4,0.6,0.7,0.9,0.9l0,0c-0.3,0.2-0.5,0.5-0.8,0.7
			c-0.4,0.4-0.9,0.7-1.3,1c0,0,0,0,0,0.1l0.8,0.1c0.3-0.2,0.6-0.5,0.9-0.7c0.3-0.3,0.6-0.5,0.9-0.8l0,0c0.2,0.2,1.5,0.7,1.9,0.7
			c1,0,2.1-1.1,2.1-1.9C205.5,23.1,204.4,23.1,204.4,23.1z M198,20.2c-0.1,0-0.2,0-0.3,0.1c-0.1,0-0.2,0-0.4,0.1l0.4-0.9l0,0
			c0,0.1,0.1,0.2,0.1,0.4C197.9,19.9,197.9,20.1,198,20.2L198,20.2z"/>
		<path class="st0" d="M209.9,11.8L209.9,11.8c0.2,0.2,0.6,0.5,1.1,0.7c1,0.4,1.8,0.6,2.7,0.7c0.4,0.1,1,0.1,1.7,0.1v0.1
			c-0.2,0.7-0.7,1.7-1.5,2.6c-0.4,0.5-0.8,0.8-1.1,1.1c0,0,0,0-0.1,0c-0.2-0.2-0.5-0.5-0.8-0.8c-0.1-0.2-0.3-0.4-0.4-0.5l0,0
			c0.1-0.1,0.3-0.2,0.5-0.4c0.2-0.1,0.5-0.2,0.7-0.3l0,0l-0.1-0.1c-0.1,0-0.2,0-0.3,0s-0.9,0-1.2,0.6c-0.3,0.5-0.1,1.1,0.1,1.4
			c0.2,0.5,0.5,0.8,0.7,1l0,0c-0.2,0.1-0.4,0.4-0.7,0.6c-0.7,0.6-1,1-1.3,1.3s-0.9,1.2-1.1,2.5c-0.1,0.5-0.1,0.8,0,1.1
			c0,0.2,0,0.4,0.1,0.6c0,0.1,0.1,0.3,0.1,0.4l0,0c0-0.1,0.1-0.2,0.1-0.4c0.1-0.4,0.1-0.7,0.1-0.8c0.1-0.9,1.7-2.4,2.6-3
			c0.1,0,0.4-0.3,0.9-0.6c0.2-0.1,0.4-0.2,0.4-0.3c0,0,0,0,0.1,0v0.1c-0.1,0.4-0.1,0.6-0.2,0.8c-0.2,0.6-0.2,0.8-0.3,1.2
			c-0.1,0.3-0.1,0.5-0.1,0.8c0,0.1,0,0.7,0.1,1.5c0,0.1,0.1,0.4,0.2,0.6c0.1,0.1,0.2,0.2,0.2,0.3c0.5,0.4,0.9,0.6,1.2,0.8
			c0.6,0.4,0.9,0.5,1.6,0.9c0,0,0.4,0.2,0.9,0.3c0.1,0,0.2,0,0.3,0c0.3,0,0.5-0.1,0.7-0.2c0.8-0.5,1.5-1.1,1.5-1.1
			c0.1-0.1,0.6-0.7,1-1.4c0,0,0.2-0.3,0.2-0.8c0-0.2,0-0.4-0.1-0.5s-0.2-0.2-0.3-0.2c-1.1-0.5-2.1-0.8-2.1-0.8
			c-0.1,0-0.3-0.1-0.5-0.1s-0.4-0.1-0.5-0.1s-0.2,0-0.4,0c-0.1,0-0.2,0.1-0.4,0.2c-0.1,0-0.2,0.1-0.4,0.2l0,0c0.1,0,0.3,0.1,0.5,0.1
			c0.8,0.2,1,0.1,1.3,0.3c0.5,0.3,0.5,1,0.6,1.2c0.1,0.5-0.1,0.8-0.1,0.9c-0.3,1-1.4,1.5-2.3,1.5c-0.2,0-0.3,0-0.4-0.1
			c-0.5-0.2-0.5-1.1-0.4-2.5c0-0.4,0-0.7,0.1-1.2c0.1-0.8,0.3-1.5,0.5-2h0.1c1.5,0.6,2.3,0.9,2.6,1s0.6,0.1,0.9,0.4
			c0.1,0,0.2,0.1,0.5,0.2c0.1,0,0.2,0.1,0.3,0.1s0.1,0,0.1,0l0,0c-0.1-0.1-0.2-0.3-0.4-0.4c-0.2-0.2-0.4-0.3-0.8-0.5
			c-0.4-0.2-0.7-0.4-0.9-0.5c-0.4-0.2-1.1-0.6-2.2-1.2c0-0.2,0-0.4,0.1-0.7c0.1-0.5,0.3-0.9,0.5-1.1c0.8-1.4,1.2-2.1,1.4-2.4
			c0,0,0.1-0.1,0.5-0.9c0-0.1,0.1-0.2,0.1-0.4c0-0.1,0-0.1,0-0.2c-0.1-0.1-0.4-0.3-0.6-0.5c-0.6-0.4-1-0.7-1-0.7l0,0
			c0,0-0.2-0.1-0.5-0.3h-0.1c-0.1,0-0.2,0.1-0.3,0.2c0,0-0.1,0-0.3,0.1c-0.2,0-1.3,0-2.7,0C211.8,12,210.8,11.9,209.9,11.8z"/>
		<path class="st0" d="M230.4,18.7c0.3,0.5,0.5,0.9,0.6,1.2c0,0,0,0,0,0.1c-0.2,0.2-0.4,0.6-0.7,1c-0.2,0.3-0.6,0.7-1,1.2
			c-0.3,0.3-0.7,0.6-1.3,1c0,0,0,0-0.1,0c-0.5-0.4-1.1-0.9-1.8-1.5c-0.5-0.5-0.9-1.1-1.2-1.6c0,0,0,0,0-0.1c0.2-0.5,0.6-1.1,1.2-1.8
			c0.6-0.7,1.2-1.2,1.7-1.5h0.1c0.5,0.3,0.9,0.6,1.1,0.8C229.6,17.9,230,18.2,230.4,18.7z M234.6,13c-0.1-0.4-0.2-0.7-0.3-1
			c-0.1-0.1-0.2-0.1-0.4-0.1c-0.1,0-0.2,0-0.5,0c-1.4,0.2-3.2,1.1-3.2,1.1c-0.9,0.5-1.6,0.8-2.1,1l0,0c-0.8-0.4-1.5-0.7-2-1
			c0,0-1.5-0.7-3.4-1.1c-0.1,0-0.4-0.1-0.7,0c-0.1,0-0.3,0.1-0.3,0.1c-0.1,0.3-0.3,0.7-0.4,1.1c-0.1,0.6-0.2,1.2-0.2,1.6
			c0.4,0.3,0.8,0.6,1.1,0.7c0.3,0.2,0.8,0.4,1.3,0.5c0.3,0,0.5,0,0.6-0.1s0.1-0.2,0.1-0.2c-0.2-0.1-0.7-0.2-1.1-0.5
			c-0.5-0.4-0.7-0.8-0.8-1c0.3-0.1,1.4-0.4,2.6,0.1c0.8,0.3,1.3,0.9,1.6,1.2l0,0c-0.4,0.5-0.8,1-1.3,1.6c-0.6,0.9-1.1,1.8-1.4,2.5
			l0,0c0.5,1.1,1.1,2.3,1.8,3.5c0.8,1.3,1.6,2.5,2.3,3.5h0.1c0.8-1,1.6-2.1,2.4-3.5c0.7-1.2,1.3-2.4,1.8-3.4l0,0
			c-0.3-0.8-0.7-1.7-1.4-2.6c-0.5-0.7-0.9-1.3-1.4-1.8l0,0c0.3-0.1,0.7-0.4,1.2-0.6c1-0.5,1.2-0.5,1.4-0.5c0.3,0,0.8-0.1,1.5,0.2
			v0.1c0,0.1-0.1,0.2-0.2,0.3c-0.1,0.2-0.3,0.4-0.7,0.7c-0.2,0.2-0.5,0.4-0.8,0.6v0.1c0.4,0,1-0.1,1.6-0.4c0.6-0.2,1-0.5,1.2-0.8
			C234.8,14.4,234.7,13.7,234.6,13z"/>
	</g>
	<g>
		<path class="st0" d="M238.3,16.5c0.4,0,0.6,0,0.8,0.1c0.3,0.1,0.5,0.2,0.5,0.2c0.1,0,0.1,0.1,0.2,0.1c0,0,0.3,0.3,0.3,0.7
			s-0.4,0.8-0.4,0.8s-0.4,0.5-1.1,0.5s-1.3-0.9-1.3-0.9L238.3,16.5z M237.8,20l-0.8-1.4l0,0l0,0c0.1,0.2,0.4,0.6,1,0.8
			c1.1,0.4,2.1-0.8,2.1-0.8c0.6-0.7,0.6-1.6,0.6-1.9c0-0.2,0-0.4-0.1-0.5l0,0c0.1,0,0.2,0,0.3,0c0.1,0.3,0.1,0.8,0.1,1.5
			c-0.1,0.3-0.1,0.6-0.2,0.9c-0.5,0.8-1.5,1.1-2.3,1.3C238.2,20,237.9,20,237.8,20z M243.2,23.1L243.2,23.1c0,0,0.8,0.5,0.8,0.8
			c0,0.4-1.3,0.8-1.5,0.8s-0.4-0.1-0.7-0.1c-0.3-0.1-0.5-0.2-0.6-0.3l0,0c0.4-0.5,0.8-1,1.1-1.3c0.8-1,0.9-1.4,1-1.7
			c0,0,0.2-0.5,0.2-1.2c0-0.2,0-0.5-0.2-0.6c-0.1-0.1-0.2-0.2-0.3-0.3c-0.1-0.1-0.4-0.2-0.8-0.1c-0.3,0.1-0.5,0.2-0.6,0.4
			c-0.1,0.1-0.3,0.3-0.3,0.4c0,0.2-0.1,0.4-0.2,0.5c-0.1,0.2-0.2,0.4-0.3,0.5s-0.2,0.2-0.3,0.3c0,0-0.1,0.1,0,0.1c0,0,0,0.1,0.1,0.1
			c0.1,0.1,0.2,0.1,0.3,0.1s0.1-0.1,0.1-0.1c0.1-0.1,0.1-0.2,0.2-0.3c0.1-0.1,0.2-0.3,0.4-0.4c0.1,0,0.3-0.2,0.4-0.1
			c0.1,0,0.1,0.2,0.2,0.2c0,0.1,0,0.1,0,0.2c0,0.6-0.2,1.3-0.2,1.3c-0.1,0.2-0.2,0.5-0.4,0.9s-0.5,0.8-0.8,1l0,0
			c-0.4-0.3-0.8-0.7-1.2-1.2c-0.6-0.7-1-1.4-1.3-1.9c0.2-0.1,0.6-0.2,1-0.4c0.4-0.2,0.9-0.4,1.4-0.8c0.7-0.4,1.5-1,1.9-2
			c0.1-0.2,0.3-0.9,0-1.6c-0.1-0.2-0.2-0.5-0.4-1.2c0-0.1-0.1-0.2-0.1-0.3c0,0,0,0-0.1-0.1c-0.2,0.2-0.4,0.5-0.7,0.7
			s-0.5,0.4-0.8,0.6l0,0c-0.1-0.1-0.2-0.2-0.4-0.4c-0.1-0.1-0.2-0.1-0.3-0.1l0,0c0,0.1-0.1,0.4-0.3,0.6c-0.1,0.1-0.1,0.1-0.2,0.1
			c-0.3,0-0.5,0-0.8,0l1.5-2.5l-0.4-1.8h-0.1c-0.1,0.3-0.4,0.8-0.7,1.3c-0.4,0.8-0.8,1.3-1.3,2.2c-0.3,0.5-0.7,1.2-1.3,2.1
			c-0.1-0.3-0.3-0.6-0.5-0.9c-0.1-0.1-0.2-0.2-0.3-0.4c-0.1,0-0.6,0-0.9,0.1c0,0-0.1,0.1-0.2,0.2c-0.1,0.1-0.1,0.1-0.1,0.2l0,0
			c0.1,0,0.2,0,0.4,0c0,0,0.2,0,0.3,0c0.3,0.1,0.7,0.5,1,1.2c-0.6,1-0.9,1.8-1.1,2.5c-0.4,1.5-0.2,2.1-0.1,2.4
			c0.1,0.3,0.2,0.5,0.3,0.6c0,0,0,0,0.1,0c0.1-0.5,0.2-1,0.3-1.3s0.2-0.5,0.4-0.6c0.1-0.1,0.2-0.1,0.5-0.1c0.2,0,0.5-0.1,0.8-0.2
			l0,0c0.2,0.5,0.5,0.8,0.6,1.1c0.5,0.8,0.7,1.2,1.1,1.7c0.3,0.4,0.6,0.7,0.9,0.9l0,0c-0.3,0.2-0.5,0.5-0.8,0.7
			c-0.4,0.4-0.9,0.7-1.3,1c0,0,0,0,0,0.1l0.8,0.1c0.3-0.2,0.6-0.5,0.9-0.7c0.3-0.3,0.6-0.5,0.9-0.8l0,0c0.2,0.2,1.5,0.7,1.9,0.7
			c1,0,2.1-1.1,2.1-1.9C244.4,23.1,243.2,23.1,243.2,23.1z M236.8,20.2c-0.1,0-0.2,0-0.3,0.1c-0.1,0-0.2,0-0.4,0.1l0.4-0.9l0,0
			c0,0.1,0.1,0.2,0.1,0.4S236.8,20.1,236.8,20.2L236.8,20.2z"/>
		<path class="st0" d="M248.7,11.8L248.7,11.8c0.2,0.2,0.6,0.5,1.1,0.7c1,0.4,1.8,0.6,2.7,0.7c0.4,0.1,1,0.1,1.7,0.1v0.1
			c-0.2,0.7-0.7,1.7-1.5,2.6c-0.4,0.5-0.8,0.8-1.1,1.1c0,0,0,0-0.1,0c-0.2-0.2-0.5-0.5-0.8-0.8c-0.1-0.2-0.3-0.4-0.4-0.5l0,0
			c0.1-0.1,0.3-0.2,0.5-0.4c0.2-0.1,0.5-0.2,0.7-0.3l0,0l-0.1-0.1c-0.1,0-0.2,0-0.3,0s-0.9,0-1.2,0.6c-0.3,0.5-0.1,1.1,0.1,1.4
			c0.2,0.5,0.5,0.8,0.7,1l0,0c-0.2,0.1-0.4,0.4-0.7,0.6c-0.7,0.6-1,1-1.3,1.3s-0.9,1.2-1.1,2.5c-0.1,0.5-0.1,0.8,0,1.1
			c0,0.2,0,0.4,0.1,0.6c0,0.1,0.1,0.3,0.1,0.4l0,0c0-0.1,0.1-0.2,0.1-0.4c0.1-0.4,0.1-0.7,0.1-0.8c0.1-0.9,1.7-2.4,2.6-3
			c0.1,0,0.4-0.3,0.9-0.6c0.2-0.1,0.4-0.2,0.4-0.3c0,0,0,0,0.1,0v0.1c-0.1,0.4-0.1,0.6-0.2,0.8c-0.2,0.6-0.2,0.8-0.3,1.2
			c-0.1,0.3-0.1,0.5-0.1,0.8c0,0.1,0,0.7,0.1,1.5c0,0.1,0.1,0.4,0.2,0.6c0.1,0.1,0.2,0.2,0.2,0.3c0.5,0.4,0.9,0.6,1.2,0.8
			c0.6,0.4,0.9,0.5,1.6,0.9c0,0,0.4,0.2,0.9,0.3c0.1,0,0.2,0,0.3,0c0.3,0,0.5-0.1,0.7-0.2c0.8-0.5,1.5-1.1,1.5-1.1
			c0.1-0.1,0.6-0.7,1-1.4c0,0,0.2-0.3,0.2-0.8c0-0.2,0-0.4,0-0.5c-0.1-0.1-0.2-0.2-0.3-0.2c-1.1-0.5-2.1-0.8-2.1-0.8
			c-0.1,0-0.3-0.1-0.5-0.1s-0.4-0.1-0.5-0.1s-0.2,0-0.4,0c-0.1,0-0.2,0.1-0.4,0.2c-0.1,0-0.2,0.1-0.4,0.2l0,0c0.1,0,0.3,0.1,0.5,0.1
			c0.8,0.2,1,0.1,1.3,0.3c0.5,0.3,0.5,1,0.6,1.2c0,0.5,0,0.8-0.1,0.9c-0.3,1-1.4,1.5-2.3,1.5c-0.2,0-0.3,0-0.4-0.1
			c-0.5-0.2-0.5-1.1-0.4-2.5c0-0.4,0-0.7,0.1-1.2c0.1-0.8,0.3-1.5,0.5-2h0.1c1.5,0.6,2.3,0.9,2.7,1c0.3,0.1,0.6,0.1,1,0.4
			c0.1,0,0.2,0.1,0.5,0.2c0.1,0,0.2,0.1,0.3,0.1h0.1l0,0c-0.1-0.1-0.2-0.3-0.4-0.4c-0.2-0.2-0.4-0.3-0.8-0.5
			c-0.5-0.2-0.7-0.4-0.9-0.5c-0.4-0.2-1.1-0.6-2.2-1.2c0-0.2,0-0.4,0.1-0.7c0.1-0.5,0.3-0.9,0.5-1.1c0.8-1.4,1.2-2.1,1.4-2.4
			c0,0,0.1-0.1,0.5-0.9c0-0.1,0.1-0.2,0.1-0.4c0-0.1,0-0.1,0-0.2c-0.1-0.1-0.4-0.3-0.6-0.5c-0.6-0.4-1-0.7-1-0.7l0,0
			c0,0-0.2-0.1-0.5-0.3h-0.1c-0.1,0-0.2,0.1-0.3,0.2c0,0-0.1,0-0.3,0.1c-0.2,0-1.3,0-2.7,0C250.6,12,249.7,11.9,248.7,11.8z"/>
		<path class="st0" d="M269.2,18.7c0.3,0.5,0.5,0.9,0.6,1.2c0,0,0,0,0,0.1c-0.2,0.2-0.4,0.6-0.7,1c-0.2,0.3-0.6,0.7-1,1.2
			c-0.3,0.3-0.7,0.6-1.3,1l0,0c-0.5-0.4-1.1-0.9-1.8-1.5c-0.5-0.5-0.9-1.1-1.2-1.6c0,0,0,0,0-0.1c0.2-0.5,0.6-1.1,1.2-1.8
			c0.6-0.7,1.2-1.2,1.7-1.5h0.1c0.5,0.3,0.9,0.6,1.1,0.8C268.4,17.9,268.8,18.2,269.2,18.7z M273.4,13c-0.1-0.4-0.2-0.7-0.3-1
			c-0.1-0.1-0.2-0.1-0.4-0.1c0,0-0.2,0-0.5,0c-1.4,0.2-3.2,1.1-3.2,1.1c-0.9,0.5-1.6,0.8-2.1,1l0,0c-0.8-0.4-1.5-0.7-2-1
			c0,0-1.5-0.7-3.4-1.1c-0.1,0-0.4-0.1-0.7,0c-0.1,0-0.3,0.1-0.3,0.1c-0.1,0.3-0.3,0.7-0.4,1.1c-0.1,0.6-0.2,1.2-0.2,1.6
			c0.4,0.3,0.8,0.6,1.1,0.7c0.3,0.2,0.8,0.4,1.3,0.5c0.3,0,0.5,0,0.6-0.1s0.1-0.2,0.1-0.2c-0.2-0.1-0.7-0.2-1.1-0.5
			c-0.5-0.4-0.7-0.8-0.8-1c0.3-0.1,1.4-0.4,2.6,0.1c0.8,0.3,1.3,0.9,1.5,1.2l0,0c-0.4,0.5-0.8,1-1.3,1.6c-0.6,0.9-1.1,1.8-1.4,2.5
			l0,0c0.5,1.1,1.1,2.3,1.8,3.5c0.8,1.3,1.6,2.5,2.3,3.5c0,0,0,0,0.1,0c0.8-1,1.6-2.1,2.5-3.5c0.7-1.2,1.3-2.4,1.8-3.4l0,0
			c-0.3-0.8-0.7-1.7-1.4-2.6c-0.5-0.7-1-1.3-1.4-1.8l0,0c0.3-0.1,0.7-0.4,1.2-0.6c1-0.5,1.2-0.5,1.4-0.5c0.3,0,0.8-0.1,1.5,0.2v0.1
			c0,0.1-0.1,0.2-0.2,0.3c-0.1,0.2-0.3,0.4-0.7,0.7c-0.2,0.2-0.5,0.4-0.8,0.6v0.1c0.4,0,1-0.1,1.6-0.4c0.6-0.2,1-0.5,1.2-0.8
			C273.6,14.4,273.6,13.7,273.4,13z"/>
	</g>
	<g>
		<path class="st0" d="M277.1,16.5c0.4,0,0.6,0,0.8,0.1c0.3,0.1,0.5,0.2,0.5,0.2c0.1,0,0.1,0.1,0.2,0.1c0,0,0.3,0.3,0.3,0.7
			s-0.4,0.8-0.4,0.8s-0.4,0.5-1.1,0.5s-1.3-0.9-1.3-0.9L277.1,16.5z M276.6,20l-0.8-1.4l0,0l0,0c0.1,0.2,0.4,0.6,1,0.8
			c1.1,0.4,2.1-0.8,2.1-0.8c0.6-0.7,0.6-1.6,0.6-1.9c0-0.2,0-0.4,0-0.5l0,0c0.1,0,0.2,0,0.3,0c0.1,0.3,0.1,0.8,0.1,1.5
			c0,0.3-0.1,0.6-0.2,0.9c-0.5,0.8-1.5,1.1-2.3,1.3C277,20,276.8,20,276.6,20z M282.1,23.1L282.1,23.1c0,0,0.8,0.5,0.8,0.8
			c0,0.4-1.3,0.8-1.5,0.8s-0.4-0.1-0.7-0.1c-0.3-0.1-0.5-0.2-0.6-0.3l0,0c0.5-0.5,0.8-1,1-1.3c0.8-1,0.9-1.4,1-1.7
			c0,0,0.2-0.5,0.2-1.2c0-0.2,0-0.5-0.2-0.6c-0.1-0.1-0.2-0.2-0.3-0.3c-0.1-0.1-0.5-0.2-0.8-0.1s-0.5,0.2-0.6,0.4
			c-0.1,0.1-0.3,0.3-0.3,0.4c0,0.2-0.1,0.4-0.2,0.5c-0.1,0.2-0.2,0.4-0.3,0.5c-0.1,0.1-0.2,0.2-0.3,0.3v0.1c0,0,0,0.1,0.1,0.1
			c0.1,0.1,0.2,0.1,0.3,0.1l0.1-0.1c0.1-0.1,0.1-0.2,0.2-0.3c0.1-0.1,0.2-0.3,0.4-0.4c0.1,0,0.3-0.2,0.5-0.1c0.1,0,0.1,0.2,0.2,0.2
			c0,0.1,0,0.1,0,0.2c0,0.6-0.2,1.3-0.2,1.3c-0.1,0.2-0.2,0.5-0.4,0.9c-0.2,0.4-0.5,0.8-0.8,1l0,0c-0.4-0.3-0.8-0.7-1.2-1.2
			c-0.6-0.7-1-1.4-1.3-1.9c0.2-0.1,0.6-0.2,1-0.4c0.4-0.2,1-0.4,1.5-0.8c0.7-0.4,1.5-1,1.9-2c0-0.2,0.3-0.9,0-1.6
			c0-0.2-0.2-0.5-0.4-1.2c0-0.1-0.1-0.2-0.1-0.3c0,0,0,0,0-0.1c-0.2,0.2-0.4,0.5-0.7,0.7c-0.3,0.2-0.5,0.4-0.8,0.6l0,0
			c-0.1-0.1-0.2-0.2-0.4-0.4c-0.1-0.1-0.2-0.1-0.3-0.1l0,0c0,0.1-0.1,0.4-0.3,0.6c-0.1,0.1-0.1,0.1-0.2,0.1c-0.3,0-0.5,0-0.8,0
			l1.5-2.5l-0.4-1.8h-0.1c-0.1,0.3-0.4,0.8-0.7,1.3c-0.5,0.8-0.8,1.3-1.3,2.2c-0.3,0.5-0.7,1.2-1.3,2.1c-0.1-0.3-0.3-0.6-0.5-0.9
			c-0.1-0.1-0.2-0.2-0.3-0.4c0,0-0.6,0-0.9,0.1c0,0-0.1,0.1-0.2,0.2s-0.1,0.1-0.1,0.2l0,0c0.1,0,0.2,0,0.4,0c0,0,0.2,0,0.3,0
			c0.3,0.1,0.7,0.5,1,1.2c-0.6,1-0.9,1.8-1.1,2.5c-0.4,1.5-0.2,2.1-0.1,2.4s0.2,0.5,0.3,0.6c0,0,0,0,0.1,0c0.1-0.5,0.2-1,0.3-1.3
			c0.1-0.3,0.2-0.5,0.4-0.6c0.1-0.1,0.2-0.1,0.5-0.1c0.2,0,0.5-0.1,0.8-0.2l0,0c0.2,0.5,0.5,0.8,0.6,1.1c0.5,0.8,0.7,1.2,1.1,1.7
			c0.3,0.4,0.6,0.7,0.9,0.9l0,0c-0.3,0.2-0.5,0.5-0.8,0.7c-0.4,0.4-0.9,0.7-1.3,1c0,0,0,0,0,0.1l0.8,0.1c0.3-0.2,0.6-0.5,0.9-0.7
			c0.3-0.3,0.6-0.5,0.9-0.8l0,0c0.2,0.2,1.5,0.7,1.9,0.7c1,0,2.1-1.1,2.1-1.9C283.2,23.1,282.1,23.1,282.1,23.1z M275.7,20.2
			c-0.1,0-0.2,0-0.3,0.1c-0.1,0-0.2,0-0.4,0.1l0.4-0.9l0,0c0,0.1,0.1,0.2,0.1,0.4C275.5,19.9,275.6,20.1,275.7,20.2L275.7,20.2z"/>
		<path class="st0" d="M287.5,11.8L287.5,11.8c0.2,0.2,0.6,0.5,1.1,0.7c1,0.4,1.8,0.6,2.7,0.7c0.4,0.1,1,0.1,1.7,0.1v0.1
			c-0.2,0.7-0.7,1.7-1.5,2.6c-0.4,0.5-0.8,0.8-1.1,1.1c0,0,0,0-0.1,0c-0.2-0.2-0.5-0.5-0.8-0.8c-0.1-0.2-0.3-0.4-0.4-0.5l0,0
			c0.1-0.1,0.3-0.2,0.5-0.4c0.2-0.1,0.5-0.2,0.7-0.3l0,0l-0.1-0.1c-0.1,0-0.2,0-0.3,0c-0.1,0-0.9,0-1.2,0.6
			c-0.3,0.5-0.1,1.1,0.1,1.4c0.2,0.5,0.5,0.8,0.7,1l0,0c-0.2,0.1-0.4,0.4-0.7,0.6c-0.7,0.6-1,1-1.3,1.3s-1,1.2-1.1,2.5
			c-0.1,0.5-0.1,0.8,0,1.1c0,0.2,0,0.4,0.1,0.6c0,0.1,0.1,0.3,0.1,0.4l0,0c0-0.1,0.1-0.2,0.1-0.4c0.1-0.4,0.1-0.7,0.1-0.8
			c0.1-0.9,1.7-2.4,2.6-3c0.1,0,0.4-0.3,0.9-0.6c0.2-0.1,0.4-0.2,0.5-0.3l0,0v0.1c-0.1,0.4-0.1,0.6-0.2,0.8
			c-0.2,0.6-0.2,0.8-0.3,1.2c0,0.3-0.1,0.5-0.1,0.8c0,0.1,0,0.7,0,1.5c0,0.1,0,0.4,0.2,0.6c0.1,0.1,0.2,0.2,0.2,0.3
			c0.5,0.4,0.9,0.6,1.2,0.8c0.6,0.4,0.9,0.5,1.6,0.9c0,0,0.4,0.2,0.9,0.3c0.1,0,0.2,0,0.3,0c0.3,0,0.5-0.1,0.7-0.2
			c0.8-0.5,1.5-1.1,1.5-1.1c0.1-0.1,0.6-0.7,1-1.4c0,0,0.2-0.3,0.2-0.8c0-0.2,0-0.4,0-0.5c-0.1-0.1-0.2-0.2-0.3-0.2
			c-1.1-0.5-2.1-0.8-2.1-0.8c-0.1,0-0.3-0.1-0.5-0.1s-0.4-0.1-0.5-0.1s-0.2,0-0.4,0c-0.1,0-0.2,0.1-0.4,0.2c-0.1,0-0.2,0.1-0.4,0.2
			l0,0c0.1,0,0.3,0.1,0.5,0.1c0.8,0.2,1,0.1,1.3,0.3c0.5,0.3,0.5,1,0.6,1.2c0,0.5,0,0.8-0.1,0.9c-0.3,1-1.4,1.5-2.3,1.5
			c-0.2,0-0.3,0-0.5-0.1c-0.5-0.2-0.5-1.1-0.4-2.5c0-0.4,0-0.7,0.1-1.2c0.1-0.8,0.3-1.5,0.5-2l0,0c1.5,0.6,2.3,0.9,2.6,1
			c0.3,0.1,0.6,0.1,1,0.4c0.1,0,0.2,0.1,0.5,0.2c0.1,0,0.2,0.1,0.3,0.1h0.1l0,0c-0.1-0.1-0.2-0.3-0.4-0.4c-0.2-0.2-0.4-0.3-0.8-0.5
			c-0.5-0.2-0.7-0.4-0.9-0.5c-0.4-0.2-1.1-0.6-2.2-1.2c0-0.2,0-0.4,0.1-0.7c0.1-0.5,0.3-0.9,0.5-1.1c0.8-1.4,1.2-2.1,1.4-2.4
			c0,0,0.1-0.1,0.5-0.9c0-0.1,0.1-0.2,0.1-0.4c0-0.1,0-0.1,0-0.2c-0.1-0.1-0.4-0.3-0.6-0.5c-0.6-0.4-1-0.7-1-0.7l0,0
			c0,0-0.2-0.1-0.5-0.3h-0.1c-0.1,0-0.2,0.1-0.3,0.2c0,0-0.1,0-0.3,0.1c-0.2,0-1.3,0-2.7,0C289.5,12,288.5,11.9,287.5,11.8z"/>
		<path class="st0" d="M308.1,18.7c0.3,0.5,0.5,0.9,0.6,1.2c0,0,0,0,0,0.1c-0.2,0.2-0.4,0.6-0.7,1c-0.2,0.3-0.6,0.7-1,1.2
			c-0.3,0.3-0.7,0.6-1.3,1l0,0c-0.5-0.4-1.1-0.9-1.8-1.5c-0.5-0.5-0.9-1.1-1.2-1.6c0,0,0,0,0-0.1c0.2-0.5,0.6-1.1,1.2-1.8
			c0.6-0.7,1.2-1.2,1.7-1.5h0.1c0.5,0.3,0.9,0.6,1.1,0.8C307.3,17.9,307.7,18.2,308.1,18.7z M312.2,13c-0.1-0.4-0.2-0.7-0.3-1
			c-0.1-0.1-0.2-0.1-0.4-0.1c0,0-0.2,0-0.5,0c-1.4,0.2-3.2,1.1-3.2,1.1c-0.9,0.5-1.6,0.8-2.1,1l0,0c-0.8-0.4-1.5-0.7-2-1
			c0,0-1.5-0.7-3.4-1.1c-0.1,0-0.4-0.1-0.7,0c-0.1,0-0.3,0.1-0.3,0.1c-0.1,0.3-0.3,0.7-0.4,1.1c-0.1,0.6-0.2,1.2-0.2,1.6
			c0.4,0.3,0.8,0.6,1.1,0.7c0.3,0.2,0.8,0.4,1.3,0.5c0.3,0,0.5,0,0.6-0.1s0.1-0.2,0.1-0.2c-0.2-0.1-0.7-0.2-1.1-0.5
			c-0.5-0.4-0.7-0.8-0.8-1c0.3-0.1,1.4-0.4,2.6,0.1c0.8,0.3,1.3,0.9,1.5,1.2l0,0c-0.4,0.5-0.8,1-1.3,1.6c-0.6,0.9-1.1,1.8-1.4,2.5
			l0,0c0.5,1.1,1.1,2.3,1.8,3.5c0.8,1.3,1.6,2.5,2.3,3.5c0,0,0,0,0.1,0c0.8-1,1.6-2.1,2.5-3.5c0.7-1.2,1.3-2.4,1.8-3.4l0,0
			c-0.3-0.8-0.7-1.7-1.4-2.6c-0.5-0.7-1-1.3-1.4-1.8l0,0c0.3-0.1,0.7-0.4,1.2-0.6c1-0.5,1.2-0.5,1.4-0.5c0.3,0,0.8-0.1,1.5,0.2v0.1
			c0,0.1-0.1,0.2-0.2,0.3c-0.1,0.2-0.3,0.4-0.7,0.7c-0.2,0.2-0.5,0.4-0.8,0.6v0.1c0.4,0,1-0.1,1.6-0.4c0.6-0.2,1-0.5,1.2-0.8
			C312.4,14.4,312.4,13.7,312.2,13z"/>
	</g>
	<g>
		<path class="st0" d="M316,16.5c0.4,0,0.6,0,0.8,0.1c0.3,0.1,0.5,0.2,0.5,0.2c0.1,0,0.1,0.1,0.2,0.1c0,0,0.3,0.3,0.3,0.7
			s-0.4,0.8-0.4,0.8s-0.4,0.5-1.1,0.5S315,18,315,18L316,16.5z M315.5,20l-0.8-1.4l0,0l0,0c0.1,0.2,0.4,0.6,1,0.8
			c1.1,0.4,2.1-0.8,2.1-0.8c0.6-0.7,0.6-1.6,0.6-1.9c0-0.2,0-0.4,0-0.5l0,0c0.1,0,0.2,0,0.3,0c0.1,0.3,0.1,0.8,0.1,1.5
			c0,0.3-0.1,0.6-0.2,0.9c-0.5,0.8-1.5,1.1-2.3,1.3C315.9,20,315.6,20,315.5,20z M320.9,23.1L320.9,23.1c0,0,0.8,0.5,0.8,0.8
			c0,0.4-1.3,0.8-1.5,0.8s-0.4-0.1-0.7-0.1c-0.3-0.1-0.5-0.2-0.6-0.3l0,0c0.5-0.5,0.8-1,1-1.3c0.8-1,0.9-1.4,1-1.7
			c0,0,0.2-0.5,0.2-1.2c0-0.2,0-0.5-0.2-0.6c-0.1-0.1-0.2-0.2-0.3-0.3c-0.1-0.1-0.5-0.2-0.8-0.1s-0.5,0.2-0.6,0.4
			c-0.1,0.1-0.3,0.3-0.3,0.4c0,0.2-0.1,0.4-0.2,0.5c-0.1,0.2-0.2,0.4-0.3,0.5c-0.1,0.1-0.2,0.2-0.3,0.3v0.1c0,0,0,0.1,0.1,0.1
			c0.1,0.1,0.2,0.1,0.3,0.1l0.1-0.1c0.1-0.1,0.1-0.2,0.2-0.3c0.1-0.1,0.2-0.3,0.4-0.4c0.1,0,0.3-0.2,0.5-0.1c0.1,0,0.1,0.2,0.2,0.2
			c0,0.1,0,0.1,0,0.2c0,0.6-0.2,1.3-0.2,1.3c-0.1,0.2-0.2,0.5-0.4,0.9c-0.2,0.4-0.5,0.8-0.8,1l0,0c-0.4-0.3-0.8-0.7-1.2-1.2
			c-0.6-0.7-1-1.4-1.3-1.9c0.2-0.1,0.6-0.2,1-0.4c0.4-0.2,1-0.4,1.5-0.8c0.7-0.4,1.5-1,1.9-2c0-0.2,0.3-0.9,0-1.6
			c0-0.2-0.2-0.5-0.4-1.2c0-0.1-0.1-0.2-0.1-0.3c0,0,0,0,0-0.1c-0.2,0.2-0.4,0.5-0.7,0.7c-0.3,0.2-0.5,0.4-0.8,0.6l0,0
			c-0.1-0.1-0.2-0.2-0.4-0.4c-0.1-0.1-0.2-0.1-0.3-0.1l0,0c0,0.1-0.1,0.4-0.3,0.6c-0.1,0.1-0.1,0.1-0.2,0.1c-0.3,0-0.5,0-0.8,0
			l1.5-2.5l-0.4-1.8h-0.1c-0.1,0.3-0.4,0.8-0.7,1.3c-0.5,0.8-0.8,1.3-1.3,2.2c-0.3,0.5-0.7,1.2-1.3,2.1c-0.1-0.3-0.3-0.6-0.5-0.9
			c-0.1-0.1-0.2-0.2-0.3-0.4c0,0-0.6,0-0.9,0.1c0,0-0.1,0.1-0.2,0.2s-0.1,0.1-0.1,0.2l0,0c0.1,0,0.2,0,0.4,0c0,0,0.2,0,0.3,0
			c0.3,0.1,0.7,0.5,1,1.2c-0.6,1-0.9,1.8-1.1,2.5c-0.4,1.5-0.2,2.1-0.1,2.4s0.2,0.5,0.3,0.6c0,0,0,0,0.1,0c0.1-0.5,0.2-1,0.3-1.3
			c0.1-0.3,0.2-0.5,0.4-0.6c0.1-0.1,0.2-0.1,0.5-0.1c0.2,0,0.5-0.1,0.8-0.2l0,0c0.2,0.5,0.5,0.8,0.6,1.1c0.5,0.8,0.7,1.2,1.1,1.7
			c0.3,0.4,0.6,0.7,0.9,0.9l0,0c-0.3,0.2-0.5,0.5-0.8,0.7c-0.4,0.4-0.9,0.7-1.3,1c0,0,0,0,0,0.1l0.8,0.1c0.3-0.2,0.6-0.5,0.9-0.7
			c0.3-0.3,0.6-0.5,0.9-0.8l0,0c0.2,0.2,1.5,0.7,1.9,0.7c1,0,2.1-1.1,2.1-1.9C322,23.1,320.9,23.1,320.9,23.1z M314.5,20.2
			c-0.1,0-0.2,0-0.3,0.1c-0.1,0-0.2,0-0.4,0.1l0.4-0.9l0,0c0,0.1,0.1,0.2,0.1,0.4S314.4,20.1,314.5,20.2L314.5,20.2z"/>
		<path class="st0" d="M326.4,11.8L326.4,11.8c0.2,0.2,0.6,0.5,1.1,0.7c1,0.4,1.8,0.6,2.7,0.7c0.4,0.1,1,0.1,1.7,0.1v0.1
			c-0.2,0.7-0.7,1.7-1.5,2.6c-0.4,0.5-0.8,0.8-1.1,1.1c0,0,0,0-0.1,0c-0.2-0.2-0.5-0.5-0.8-0.8c-0.1-0.2-0.3-0.4-0.4-0.5l0,0
			c0.1-0.1,0.3-0.2,0.5-0.4c0.2-0.1,0.5-0.2,0.7-0.3l0,0l-0.1-0.1c-0.1,0-0.2,0-0.3,0c-0.1,0-0.9,0-1.2,0.6
			c-0.3,0.5-0.1,1.1,0.1,1.4c0.2,0.5,0.5,0.8,0.7,1l0,0c-0.2,0.1-0.4,0.4-0.7,0.6c-0.7,0.6-1,1-1.3,1.3s-1,1.2-1.1,2.5
			c-0.1,0.5-0.1,0.8,0,1.1c0,0.2,0,0.4,0.1,0.6c0,0.1,0.1,0.3,0.1,0.4l0,0c0-0.1,0.1-0.2,0.1-0.4c0.1-0.4,0.1-0.7,0.1-0.8
			c0.1-0.9,1.7-2.4,2.6-3c0.1,0,0.4-0.3,0.9-0.6c0.2-0.1,0.4-0.2,0.5-0.3l0,0v0.1c-0.1,0.4-0.1,0.6-0.2,0.8
			c-0.2,0.6-0.2,0.8-0.3,1.2c0,0.3-0.1,0.5-0.1,0.8c0,0.1,0,0.7,0,1.5c0,0.1,0,0.4,0.2,0.6c0.1,0.1,0.2,0.2,0.2,0.3
			c0.5,0.4,0.9,0.6,1.2,0.8c0.6,0.4,0.9,0.5,1.6,0.9c0,0,0.4,0.2,0.9,0.3c0.1,0,0.2,0,0.3,0c0.3,0,0.5-0.1,0.7-0.2
			c0.8-0.5,1.5-1.1,1.5-1.1c0.1-0.1,0.6-0.7,1-1.4c0,0,0.2-0.3,0.2-0.8c0-0.2,0-0.4,0-0.5c-0.1-0.1-0.2-0.2-0.3-0.2
			c-1.1-0.5-2.1-0.8-2.1-0.8c-0.1,0-0.3-0.1-0.5-0.1s-0.4-0.1-0.5-0.1s-0.2,0-0.4,0c-0.1,0-0.2,0.1-0.4,0.2c-0.1,0-0.2,0.1-0.4,0.2
			l0,0c0.1,0,0.3,0.1,0.5,0.1c0.8,0.2,1,0.1,1.3,0.3c0.5,0.3,0.5,1,0.6,1.2c0,0.5,0,0.8-0.1,0.9c-0.3,1-1.4,1.5-2.3,1.5
			c-0.2,0-0.3,0-0.5-0.1c-0.5-0.2-0.5-1.1-0.4-2.5c0-0.4,0-0.7,0.1-1.2c0.1-0.8,0.3-1.5,0.5-2l0,0c1.5,0.6,2.3,0.9,2.6,1
			c0.3,0.1,0.6,0.1,1,0.4c0.1,0,0.2,0.1,0.5,0.2c0.1,0,0.2,0.1,0.3,0.1h0.1l0,0c-0.1-0.1-0.2-0.3-0.4-0.4c-0.2-0.2-0.4-0.3-0.8-0.5
			c-0.5-0.2-0.7-0.4-0.9-0.5c-0.4-0.2-1.1-0.6-2.2-1.2c0-0.2,0-0.4,0.1-0.7c0.1-0.5,0.3-0.9,0.5-1.1c0.8-1.4,1.2-2.1,1.4-2.4
			c0,0,0.1-0.1,0.5-0.9c0-0.1,0.1-0.2,0.1-0.4c0-0.1,0-0.1,0-0.2c-0.1-0.1-0.4-0.3-0.6-0.5c-0.6-0.4-1-0.7-1-0.7l0,0
			c0,0-0.2-0.1-0.5-0.3h-0.1c-0.1,0-0.2,0.1-0.3,0.2c0,0-0.1,0-0.3,0.1c-0.2,0-1.3,0-2.7,0C328.3,12,327.3,11.9,326.4,11.8z"/>
		<path class="st0" d="M346.9,18.7c0.3,0.5,0.5,0.9,0.6,1.2c0,0,0,0,0,0.1c-0.2,0.2-0.4,0.6-0.7,1c-0.2,0.3-0.6,0.7-1,1.2
			c-0.3,0.3-0.7,0.6-1.3,1l0,0c-0.5-0.4-1.1-0.9-1.8-1.5c-0.5-0.5-0.9-1.1-1.2-1.6c0,0,0,0,0-0.1c0.2-0.5,0.6-1.1,1.2-1.8
			c0.6-0.7,1.2-1.2,1.7-1.5h0.1c0.5,0.3,0.9,0.6,1.1,0.8C346.1,17.9,346.5,18.2,346.9,18.7z M351.1,13c-0.1-0.4-0.2-0.7-0.3-1
			c-0.1-0.1-0.2-0.1-0.4-0.1c0,0-0.2,0-0.5,0c-1.4,0.2-3.2,1.1-3.2,1.1c-0.9,0.5-1.6,0.8-2.1,1l0,0c-0.8-0.4-1.5-0.7-2-1
			c0,0-1.5-0.7-3.4-1.1c-0.1,0-0.4-0.1-0.7,0c-0.1,0-0.3,0.1-0.3,0.1c-0.1,0.3-0.3,0.7-0.4,1.1c-0.1,0.6-0.2,1.2-0.2,1.6
			c0.4,0.3,0.8,0.6,1.1,0.7c0.3,0.2,0.8,0.4,1.3,0.5c0.3,0,0.5,0,0.6-0.1s0.1-0.2,0.1-0.2c-0.2-0.1-0.7-0.2-1.1-0.5
			c-0.5-0.4-0.7-0.8-0.8-1c0.3-0.1,1.4-0.4,2.6,0.1c0.8,0.3,1.3,0.9,1.5,1.2l0,0c-0.4,0.5-0.8,1-1.3,1.6c-0.6,0.9-1.1,1.8-1.4,2.5
			l0,0c0.5,1.1,1.1,2.3,1.8,3.5c0.8,1.3,1.6,2.5,2.3,3.5c0,0,0,0,0.1,0c0.8-1,1.6-2.1,2.5-3.5c0.7-1.2,1.3-2.4,1.8-3.4l0,0
			c-0.3-0.8-0.7-1.7-1.4-2.6c-0.5-0.7-1-1.3-1.4-1.8l0,0c0.3-0.1,0.7-0.4,1.2-0.6c1-0.5,1.2-0.5,1.4-0.5c0.3,0,0.8-0.1,1.5,0.2v0.1
			c0,0.1-0.1,0.2-0.2,0.3c-0.1,0.2-0.3,0.4-0.7,0.7c-0.2,0.2-0.5,0.4-0.8,0.6v0.1c0.4,0,1-0.1,1.6-0.4c0.6-0.2,1-0.5,1.2-0.8
			C351.3,14.4,351.2,13.7,351.1,13z"/>
	</g>
	<g>
		<path class="st0" d="M354.8,16.5c0.4,0,0.6,0,0.8,0.1c0.3,0.1,0.5,0.2,0.5,0.2c0.1,0,0.1,0.1,0.2,0.1c0,0,0.3,0.3,0.3,0.7
			s-0.4,0.8-0.4,0.8s-0.4,0.5-1.1,0.5s-1.3-0.9-1.3-0.9L354.8,16.5z M354.3,20l-0.8-1.4l0,0l0,0c0.1,0.2,0.4,0.6,1,0.8
			c1.1,0.4,2.1-0.8,2.1-0.8c0.6-0.7,0.6-1.6,0.6-1.9c0-0.2,0-0.4,0-0.5l0,0c0.1,0,0.2,0,0.3,0c0.1,0.3,0.1,0.8,0.1,1.5
			c0,0.3-0.1,0.6-0.2,0.9c-0.5,0.8-1.5,1.1-2.3,1.3C354.7,20,354.5,20,354.3,20z M359.8,23.1L359.8,23.1c0,0,0.8,0.5,0.8,0.8
			c0,0.4-1.3,0.8-1.5,0.8s-0.4-0.1-0.7-0.1c-0.3-0.1-0.5-0.2-0.6-0.3l0,0c0.5-0.5,0.8-1,1-1.3c0.8-1,0.9-1.4,1-1.7
			c0,0,0.2-0.5,0.2-1.2c0-0.2,0-0.5-0.2-0.6c-0.1-0.1-0.2-0.2-0.3-0.3c-0.1-0.1-0.5-0.2-0.8-0.1s-0.5,0.2-0.6,0.4
			c-0.1,0.1-0.3,0.3-0.3,0.4c0,0.2-0.1,0.4-0.2,0.5c-0.1,0.2-0.2,0.4-0.3,0.5c-0.1,0.1-0.2,0.2-0.3,0.3v0.1c0,0,0,0.1,0.1,0.1
			c0.1,0.1,0.2,0.1,0.3,0.1l0.1-0.1c0.1-0.1,0.1-0.2,0.2-0.3c0.1-0.1,0.2-0.3,0.4-0.4c0.1,0,0.3-0.2,0.5-0.1c0.1,0,0.1,0.2,0.2,0.2
			c0,0.1,0,0.1,0,0.2c0,0.6-0.2,1.3-0.2,1.3c-0.1,0.2-0.2,0.5-0.4,0.9c-0.2,0.4-0.5,0.8-0.8,1l0,0c-0.4-0.3-0.8-0.7-1.2-1.2
			c-0.6-0.7-1-1.4-1.3-1.9c0.2-0.1,0.6-0.2,1-0.4c0.4-0.2,1-0.4,1.5-0.8c0.7-0.4,1.5-1,1.9-2c0-0.2,0.3-0.9,0-1.6
			c0-0.2-0.2-0.5-0.4-1.2c0-0.1-0.1-0.2-0.1-0.3c0,0,0,0,0-0.1c-0.2,0.2-0.4,0.5-0.7,0.7c-0.3,0.2-0.5,0.4-0.8,0.6l0,0
			c-0.1-0.1-0.2-0.2-0.4-0.4c-0.1-0.1-0.2-0.1-0.3-0.1l0,0c0,0.1-0.1,0.4-0.3,0.6c-0.1,0.1-0.1,0.1-0.2,0.1c-0.3,0-0.5,0-0.8,0
			l1.5-2.5l-0.4-1.8h-0.1c-0.1,0.3-0.4,0.8-0.7,1.3c-0.5,0.8-0.8,1.3-1.3,2.2c-0.3,0.5-0.7,1.2-1.3,2.1c-0.1-0.3-0.3-0.6-0.5-0.9
			c-0.1-0.1-0.2-0.2-0.3-0.4c0,0-0.6,0-0.9,0.1c0,0-0.1,0.1-0.2,0.2s-0.1,0.1-0.1,0.2l0,0c0.1,0,0.2,0,0.4,0c0,0,0.2,0,0.3,0
			c0.3,0.1,0.7,0.5,1,1.2c-0.6,1-0.9,1.8-1.1,2.5c-0.4,1.5-0.2,2.1-0.1,2.4s0.2,0.5,0.3,0.6c0,0,0,0,0.1,0c0.1-0.5,0.2-1,0.3-1.3
			c0.1-0.3,0.2-0.5,0.4-0.6c0.1-0.1,0.2-0.1,0.5-0.1c0.2,0,0.5-0.1,0.8-0.2l0,0c0.2,0.5,0.5,0.8,0.6,1.1c0.5,0.8,0.7,1.2,1.1,1.7
			c0.3,0.4,0.6,0.7,0.9,0.9l0,0c-0.3,0.2-0.5,0.5-0.8,0.7c-0.4,0.4-0.9,0.7-1.3,1c0,0,0,0,0,0.1l0.8,0.1c0.3-0.2,0.6-0.5,0.9-0.7
			c0.3-0.3,0.6-0.5,0.9-0.8l0,0c0.2,0.2,1.5,0.7,1.9,0.7c1,0,2.1-1.1,2.1-1.9C360.9,23.1,359.8,23.1,359.8,23.1z M353.3,20.2
			c-0.1,0-0.2,0-0.3,0.1c-0.1,0-0.2,0-0.4,0.1l0.4-0.9l0,0c0,0.1,0.1,0.2,0.1,0.4S353.3,20.1,353.3,20.2L353.3,20.2z"/>
		<path class="st0" d="M365.2,11.8L365.2,11.8c0.2,0.2,0.6,0.5,1.1,0.7c1,0.4,1.8,0.6,2.7,0.7c0.4,0.1,1,0.1,1.7,0.1v0.1
			c-0.2,0.7-0.7,1.7-1.5,2.6c-0.4,0.5-0.8,0.8-1.1,1.1c0,0,0,0-0.1,0c-0.2-0.2-0.5-0.5-0.8-0.8c-0.1-0.2-0.3-0.4-0.4-0.5l0,0
			c0.1-0.1,0.3-0.2,0.5-0.4c0.2-0.1,0.5-0.2,0.7-0.3l0,0l-0.1-0.1c-0.1,0-0.2,0-0.3,0c-0.1,0-0.9,0-1.2,0.6
			c-0.3,0.5-0.1,1.1,0.1,1.4c0.2,0.5,0.5,0.8,0.7,1l0,0c-0.2,0.1-0.4,0.4-0.7,0.6c-0.7,0.6-1,1-1.3,1.3s-1,1.2-1.1,2.5
			c-0.1,0.5-0.1,0.8,0,1.1c0,0.2,0,0.4,0.1,0.6c0,0.1,0.1,0.3,0.1,0.4l0,0c0-0.1,0.1-0.2,0.1-0.4c0.1-0.4,0.1-0.7,0.1-0.8
			c0.1-0.9,1.7-2.4,2.6-3c0.1,0,0.4-0.3,0.9-0.6c0.2-0.1,0.4-0.2,0.5-0.3l0,0v0.1c-0.1,0.4-0.1,0.6-0.2,0.8
			c-0.2,0.6-0.2,0.8-0.3,1.2c0,0.3-0.1,0.5-0.1,0.8c0,0.1,0,0.7,0,1.5c0,0.1,0,0.4,0.2,0.6c0.1,0.1,0.2,0.2,0.2,0.3
			c0.5,0.4,0.9,0.6,1.2,0.8c0.6,0.4,0.9,0.5,1.6,0.9c0,0,0.4,0.2,0.9,0.3c0.1,0,0.2,0,0.3,0c0.3,0,0.5-0.1,0.7-0.2
			c0.8-0.5,1.5-1.1,1.5-1.1c0.1-0.1,0.6-0.7,1-1.4c0,0,0.2-0.3,0.2-0.8c0-0.2,0-0.4,0-0.5c-0.1-0.1-0.2-0.2-0.3-0.2
			c-1.1-0.5-2.1-0.8-2.1-0.8c-0.1,0-0.3-0.1-0.5-0.1s-0.4-0.1-0.5-0.1s-0.2,0-0.4,0c-0.1,0-0.2,0.1-0.4,0.2c-0.1,0-0.2,0.1-0.4,0.2
			l0,0c0.1,0,0.3,0.1,0.5,0.1c0.8,0.2,1,0.1,1.3,0.3c0.5,0.3,0.5,1,0.6,1.2c0,0.5,0,0.8-0.1,0.9c-0.3,1-1.4,1.5-2.3,1.5
			c-0.2,0-0.3,0-0.5-0.1c-0.5-0.2-0.5-1.1-0.4-2.5c0-0.4,0-0.7,0.1-1.2c0.1-0.8,0.3-1.5,0.5-2l0,0c1.5,0.6,2.3,0.9,2.6,1
			c0.3,0.1,0.6,0.1,1,0.4c0.1,0,0.2,0.1,0.5,0.2c0.1,0,0.2,0.1,0.3,0.1h0.1l0,0c-0.1-0.1-0.2-0.3-0.4-0.4c-0.2-0.2-0.4-0.3-0.8-0.5
			c-0.5-0.2-0.7-0.4-0.9-0.5c-0.4-0.2-1.1-0.6-2.2-1.2c0-0.2,0-0.4,0.1-0.7c0.1-0.5,0.3-0.9,0.5-1.1c0.8-1.4,1.2-2.1,1.4-2.4
			c0,0,0.1-0.1,0.5-0.9c0-0.1,0.1-0.2,0.1-0.4c0-0.1,0-0.1,0-0.2c-0.1-0.1-0.4-0.3-0.6-0.5c-0.6-0.4-1-0.7-1-0.7l0,0
			c0,0-0.2-0.1-0.5-0.3h-0.1c-0.1,0-0.2,0.1-0.3,0.2c0,0-0.1,0-0.3,0.1c-0.2,0-1.3,0-2.7,0C367.1,12,366.2,11.9,365.2,11.8z"/>
		<path class="st0" d="M385.7,18.7c0.3,0.5,0.5,0.9,0.6,1.2c0,0,0,0,0,0.1c-0.2,0.2-0.4,0.6-0.7,1c-0.2,0.3-0.6,0.7-1,1.2
			c-0.3,0.3-0.7,0.6-1.3,1l0,0c-0.5-0.4-1.1-0.9-1.8-1.5c-0.5-0.5-0.9-1.1-1.2-1.6c0,0,0,0,0-0.1c0.2-0.5,0.6-1.1,1.2-1.8
			c0.6-0.7,1.2-1.2,1.7-1.5h0.1c0.5,0.3,0.9,0.6,1.1,0.8C384.9,17.9,385.4,18.2,385.7,18.7z M389.9,13c-0.1-0.4-0.2-0.7-0.3-1
			c-0.1-0.1-0.2-0.1-0.4-0.1c0,0-0.2,0-0.5,0c-1.4,0.2-3.2,1.1-3.2,1.1c-0.9,0.5-1.6,0.8-2.1,1l0,0c-0.8-0.4-1.5-0.7-2-1
			c0,0-1.5-0.7-3.4-1.1c-0.1,0-0.4-0.1-0.7,0c-0.1,0-0.3,0.1-0.3,0.1c-0.1,0.3-0.3,0.7-0.4,1.1c-0.1,0.6-0.2,1.2-0.2,1.6
			c0.4,0.3,0.8,0.6,1.1,0.7c0.3,0.2,0.8,0.4,1.3,0.5c0.3,0,0.5,0,0.6-0.1s0.1-0.2,0.1-0.2c-0.2-0.1-0.7-0.2-1.1-0.5
			c-0.5-0.4-0.7-0.8-0.8-1c0.3-0.1,1.4-0.4,2.6,0.1c0.8,0.3,1.3,0.9,1.5,1.2l0,0c-0.4,0.5-0.8,1-1.3,1.6c-0.6,0.9-1.1,1.8-1.4,2.5
			l0,0c0.5,1.1,1.1,2.3,1.8,3.5c0.8,1.3,1.6,2.5,2.3,3.5c0,0,0,0,0.1,0c0.8-1,1.6-2.1,2.5-3.5c0.7-1.2,1.3-2.4,1.8-3.4l0,0
			c-0.3-0.8-0.7-1.7-1.4-2.6c-0.5-0.7-1-1.3-1.4-1.8l0,0c0.3-0.1,0.7-0.4,1.2-0.6c1-0.5,1.2-0.5,1.4-0.5c0.3,0,0.8-0.1,1.5,0.2v0.1
			c0,0.1-0.1,0.2-0.2,0.3c-0.1,0.2-0.3,0.4-0.7,0.7c-0.2,0.2-0.5,0.4-0.8,0.6v0.1c0.4,0,1-0.1,1.6-0.4c0.6-0.2,1-0.5,1.2-0.8
			C390.1,14.4,390.1,13.7,389.9,13z"/>
	</g>
	<g>
		<path class="st0" d="M393.7,16.5c0.4,0,0.6,0,0.8,0.1c0.3,0.1,0.5,0.2,0.5,0.2c0.1,0,0.1,0.1,0.2,0.1c0,0,0.3,0.3,0.3,0.7
			s-0.4,0.8-0.4,0.8s-0.4,0.5-1.1,0.5s-1.3-0.9-1.3-0.9L393.7,16.5z M393.1,20l-0.8-1.4l0,0l0,0c0.1,0.2,0.4,0.6,1,0.8
			c1.1,0.4,2.1-0.8,2.1-0.8c0.6-0.7,0.6-1.6,0.6-1.9c0-0.2,0-0.4,0-0.5l0,0c0.1,0,0.2,0,0.3,0c0.1,0.3,0.1,0.8,0.1,1.5
			c0,0.3-0.1,0.6-0.2,0.9c-0.5,0.8-1.5,1.1-2.3,1.3C393.5,20,393.3,20,393.1,20z M398.6,23.1L398.6,23.1c0,0,0.8,0.5,0.8,0.8
			c0,0.4-1.3,0.8-1.5,0.8s-0.4-0.1-0.7-0.1c-0.3-0.1-0.5-0.2-0.6-0.3l0,0c0.5-0.5,0.8-1,1-1.3c0.8-1,0.9-1.4,1-1.7
			c0,0,0.2-0.5,0.2-1.2c0-0.2,0-0.5-0.2-0.6c-0.1-0.1-0.2-0.2-0.3-0.3c-0.1-0.1-0.5-0.2-0.8-0.1s-0.5,0.2-0.6,0.4
			c-0.1,0.1-0.3,0.3-0.3,0.4c0,0.2-0.1,0.4-0.2,0.5c-0.1,0.2-0.2,0.4-0.3,0.5c-0.1,0.1-0.2,0.2-0.3,0.3v0.1c0,0,0,0.1,0.1,0.1
			c0.1,0.1,0.2,0.1,0.3,0.1l0.1-0.1c0.1-0.1,0.1-0.2,0.2-0.3c0.1-0.1,0.2-0.3,0.4-0.4c0.1,0,0.3-0.2,0.5-0.1c0.1,0,0.1,0.2,0.2,0.2
			c0,0.1,0,0.1,0,0.2c0,0.6-0.2,1.3-0.2,1.3c-0.1,0.2-0.2,0.5-0.4,0.9c-0.2,0.4-0.5,0.8-0.8,1l0,0c-0.4-0.3-0.8-0.7-1.2-1.2
			c-0.6-0.7-1-1.4-1.3-1.9c0.2-0.1,0.6-0.2,1-0.4c0.4-0.2,1-0.4,1.5-0.8c0.7-0.4,1.5-1,1.9-2c0-0.2,0.3-0.9,0-1.6
			c0-0.2-0.2-0.5-0.4-1.2c0-0.1-0.1-0.2-0.1-0.3c0,0,0,0,0-0.1c-0.2,0.2-0.4,0.5-0.7,0.7c-0.3,0.2-0.5,0.4-0.8,0.6l0,0
			c-0.1-0.1-0.2-0.2-0.4-0.4c-0.1-0.1-0.2-0.1-0.3-0.1l0,0c0,0.1-0.1,0.4-0.3,0.6c-0.1,0.1-0.1,0.1-0.2,0.1c-0.3,0-0.5,0-0.8,0
			l1.5-2.5l-0.4-1.8H395c-0.1,0.3-0.4,0.8-0.7,1.3c-0.5,0.8-0.8,1.3-1.3,2.2c-0.3,0.5-0.7,1.2-1.3,2.1c-0.1-0.3-0.3-0.6-0.5-0.9
			c-0.1-0.1-0.2-0.2-0.3-0.4c0,0-0.6,0-0.9,0.1c0,0-0.1,0.1-0.2,0.2s-0.1,0.1-0.1,0.2l0,0c0.1,0,0.2,0,0.4,0c0,0,0.2,0,0.3,0
			c0.3,0.1,0.7,0.5,1,1.2c-0.6,1-0.9,1.8-1.1,2.5c-0.4,1.5-0.2,2.1-0.1,2.4s0.2,0.5,0.3,0.6c0,0,0,0,0.1,0c0.1-0.5,0.2-1,0.3-1.3
			c0.1-0.3,0.2-0.5,0.4-0.6c0.1-0.1,0.2-0.1,0.5-0.1c0.2,0,0.5-0.1,0.8-0.2l0,0c0.2,0.5,0.5,0.8,0.6,1.1c0.5,0.8,0.7,1.2,1.1,1.7
			c0.3,0.4,0.6,0.7,0.9,0.9l0,0c-0.3,0.2-0.5,0.5-0.8,0.7c-0.4,0.4-0.9,0.7-1.3,1c0,0,0,0,0,0.1l0.8,0.1c0.3-0.2,0.6-0.5,0.9-0.7
			c0.3-0.3,0.6-0.5,0.9-0.8l0,0c0.2,0.2,1.5,0.7,1.9,0.7c1,0,2.1-1.1,2.1-1.9C399.7,23.1,398.6,23.1,398.6,23.1z M392.2,20.2
			c-0.1,0-0.2,0-0.3,0.1c-0.1,0-0.2,0-0.4,0.1l0.4-0.9l0,0c0,0.1,0.1,0.2,0.1,0.4S392.1,20.1,392.2,20.2L392.2,20.2z"/>
		<path class="st0" d="M404,11.8L404,11.8c0.2,0.2,0.6,0.5,1.1,0.7c1,0.4,1.8,0.6,2.7,0.7c0.4,0.1,1,0.1,1.7,0.1v0.1
			c-0.2,0.7-0.7,1.7-1.5,2.6c-0.4,0.5-0.8,0.8-1.1,1.1c0,0,0,0-0.1,0c-0.2-0.2-0.5-0.5-0.8-0.8c-0.1-0.2-0.3-0.4-0.4-0.5l0,0
			c0.1-0.1,0.3-0.2,0.5-0.4c0.2-0.1,0.5-0.2,0.7-0.3l0,0l-0.1-0.1c-0.1,0-0.2,0-0.3,0c-0.1,0-0.9,0-1.2,0.6
			c-0.3,0.5-0.1,1.1,0.1,1.4c0.2,0.5,0.5,0.8,0.7,1l0,0c-0.2,0.1-0.4,0.4-0.7,0.6c-0.7,0.6-1,1-1.3,1.3s-1,1.2-1.1,2.5
			c-0.1,0.5-0.1,0.8,0,1.1c0,0.2,0,0.4,0.1,0.6c0,0.1,0.1,0.3,0.1,0.4l0,0c0-0.1,0.1-0.2,0.1-0.4c0.1-0.4,0.1-0.7,0.1-0.8
			c0.1-0.9,1.7-2.4,2.6-3c0.1,0,0.4-0.3,0.9-0.6c0.2-0.1,0.4-0.2,0.5-0.3l0,0v0.1c-0.1,0.4-0.1,0.6-0.2,0.8
			c-0.2,0.6-0.2,0.8-0.3,1.2c0,0.3-0.1,0.5-0.1,0.8c0,0.1,0,0.7,0,1.5c0,0.1,0,0.4,0.2,0.6c0.1,0.1,0.2,0.2,0.2,0.3
			c0.5,0.4,0.9,0.6,1.2,0.8c0.6,0.4,0.9,0.5,1.6,0.9c0,0,0.4,0.2,0.9,0.3c0.1,0,0.2,0,0.3,0c0.3,0,0.5-0.1,0.7-0.2
			c0.8-0.5,1.5-1.1,1.5-1.1c0.1-0.1,0.6-0.7,1-1.4c0,0,0.2-0.3,0.2-0.8c0-0.2,0-0.4,0-0.5c-0.1-0.1-0.2-0.2-0.3-0.2
			c-1.1-0.5-2.1-0.8-2.1-0.8c-0.1,0-0.3-0.1-0.5-0.1s-0.4-0.1-0.5-0.1s-0.2,0-0.4,0c-0.1,0-0.2,0.1-0.4,0.2c-0.1,0-0.2,0.1-0.4,0.2
			l0,0c0.1,0,0.3,0.1,0.5,0.1c0.8,0.2,1,0.1,1.3,0.3c0.5,0.3,0.5,1,0.6,1.2c0,0.5,0,0.8-0.1,0.9c-0.3,1-1.4,1.5-2.3,1.5
			c-0.2,0-0.3,0-0.5-0.1c-0.5-0.2-0.5-1.1-0.4-2.5c0-0.4,0-0.7,0.1-1.2c0.1-0.8,0.3-1.5,0.5-2l0,0c1.5,0.6,2.3,0.9,2.6,1
			c0.3,0.1,0.6,0.1,1,0.4c0.1,0,0.2,0.1,0.5,0.2c0.1,0,0.2,0.1,0.3,0.1h0.1l0,0c-0.1-0.1-0.2-0.3-0.4-0.4c-0.2-0.2-0.4-0.3-0.8-0.5
			c-0.5-0.2-0.7-0.4-0.9-0.5c-0.4-0.2-1.1-0.6-2.2-1.2c0-0.2,0-0.4,0.1-0.7c0.1-0.5,0.3-0.9,0.5-1.1c0.8-1.4,1.2-2.1,1.4-2.4
			c0,0,0.1-0.1,0.5-0.9c0-0.1,0.1-0.2,0.1-0.4c0-0.1,0-0.1,0-0.2c-0.1-0.1-0.4-0.3-0.6-0.5c-0.6-0.4-1-0.7-1-0.7l0,0
			c0,0-0.2-0.1-0.5-0.3h-0.1c-0.1,0-0.2,0.1-0.3,0.2c0,0-0.1,0-0.3,0.1c-0.2,0-1.3,0-2.7,0C406,12,405,11.9,404,11.8z"/>
		<path class="st0" d="M424.6,18.7c0.3,0.5,0.5,0.9,0.6,1.2c0,0,0,0,0,0.1c-0.2,0.2-0.4,0.6-0.7,1c-0.2,0.3-0.6,0.7-1,1.2
			c-0.3,0.3-0.7,0.6-1.3,1l0,0c-0.5-0.4-1.1-0.9-1.8-1.5c-0.5-0.5-0.9-1.1-1.2-1.6c0,0,0,0,0-0.1c0.2-0.5,0.6-1.1,1.2-1.8
			c0.6-0.7,1.2-1.2,1.7-1.5h0.1c0.5,0.3,0.9,0.6,1.1,0.8C423.8,17.9,424.2,18.2,424.6,18.7z M428.8,13c-0.1-0.4-0.2-0.7-0.3-1
			c-0.1-0.1-0.2-0.1-0.4-0.1c0,0-0.2,0-0.5,0c-1.4,0.2-3.2,1.1-3.2,1.1c-0.9,0.5-1.6,0.8-2.1,1l0,0c-0.8-0.4-1.5-0.7-2-1
			c0,0-1.5-0.7-3.4-1.1c-0.1,0-0.4-0.1-0.7,0c-0.1,0-0.3,0.1-0.3,0.1c-0.1,0.3-0.3,0.7-0.4,1.1c-0.1,0.6-0.2,1.2-0.2,1.6
			c0.4,0.3,0.8,0.6,1.1,0.7c0.3,0.2,0.8,0.4,1.3,0.5c0.3,0,0.5,0,0.6-0.1s0.1-0.2,0.1-0.2c-0.2-0.1-0.7-0.2-1.1-0.5
			c-0.5-0.4-0.7-0.8-0.8-1c0.3-0.1,1.4-0.4,2.6,0.1c0.8,0.3,1.3,0.9,1.5,1.2l0,0c-0.4,0.5-0.8,1-1.3,1.6c-0.6,0.9-1.1,1.8-1.4,2.5
			l0,0c0.5,1.1,1.1,2.3,1.8,3.5c0.8,1.3,1.6,2.5,2.3,3.5c0,0,0,0,0.1,0c0.8-1,1.6-2.1,2.5-3.5c0.7-1.2,1.3-2.4,1.8-3.4l0,0
			c-0.3-0.8-0.7-1.7-1.4-2.6c-0.5-0.7-1-1.3-1.4-1.8l0,0c0.3-0.1,0.7-0.4,1.2-0.6c1-0.5,1.2-0.5,1.4-0.5c0.3,0,0.8-0.1,1.5,0.2v0.1
			c0,0.1-0.1,0.2-0.2,0.3c-0.1,0.2-0.3,0.4-0.7,0.7c-0.2,0.2-0.5,0.4-0.8,0.6v0.1c0.4,0,1-0.1,1.6-0.4c0.6-0.2,1-0.5,1.2-0.8
			C428.9,14.4,428.9,13.7,428.8,13z"/>
	</g>
	<g>
		<path class="st0" d="M432.5,16.5c0.4,0,0.6,0,0.8,0.1c0.3,0.1,0.5,0.2,0.5,0.2c0.1,0,0.1,0.1,0.2,0.1c0,0,0.3,0.3,0.3,0.7
			s-0.4,0.8-0.4,0.8s-0.4,0.5-1.1,0.5s-1.3-0.9-1.3-0.9L432.5,16.5z M432,20l-0.8-1.4l0,0l0,0c0.1,0.2,0.4,0.6,1,0.8
			c1.1,0.4,2.1-0.8,2.1-0.8c0.6-0.7,0.6-1.6,0.6-1.9c0-0.2,0-0.4,0-0.5l0,0c0.1,0,0.2,0,0.3,0c0.1,0.3,0.1,0.8,0.1,1.5
			c0,0.3-0.1,0.6-0.2,0.9c-0.5,0.8-1.5,1.1-2.3,1.3C432.4,20,432.1,20,432,20z M437.4,23.1L437.4,23.1c0,0,0.8,0.5,0.8,0.8
			c0,0.4-1.3,0.8-1.5,0.8s-0.4-0.1-0.7-0.1c-0.3-0.1-0.5-0.2-0.6-0.3l0,0c0.5-0.5,0.8-1,1-1.3c0.8-1,0.9-1.4,1-1.7
			c0,0,0.2-0.5,0.2-1.2c0-0.2,0-0.5-0.2-0.6c-0.1-0.1-0.2-0.2-0.3-0.3c-0.1-0.1-0.5-0.2-0.8-0.1s-0.5,0.2-0.6,0.4
			c-0.1,0.1-0.3,0.3-0.3,0.4c0,0.2-0.1,0.4-0.2,0.5c-0.1,0.2-0.2,0.4-0.3,0.5c-0.1,0.1-0.2,0.2-0.3,0.3v0.1c0,0,0,0.1,0.1,0.1
			c0.1,0.1,0.2,0.1,0.3,0.1l0.1-0.1c0.1-0.1,0.1-0.2,0.2-0.3c0.1-0.1,0.2-0.3,0.4-0.4c0.1,0,0.3-0.2,0.5-0.1c0.1,0,0.1,0.2,0.2,0.2
			c0,0.1,0,0.1,0,0.2c0,0.6-0.2,1.3-0.2,1.3c-0.1,0.2-0.2,0.5-0.4,0.9c-0.2,0.4-0.5,0.8-0.8,1l0,0c-0.4-0.3-0.8-0.7-1.2-1.2
			c-0.6-0.7-1-1.4-1.3-1.9c0.2-0.1,0.6-0.2,1-0.4c0.4-0.2,1-0.4,1.5-0.8c0.7-0.4,1.5-1,1.9-2c0-0.2,0.3-0.9,0-1.6
			c0-0.2-0.2-0.5-0.4-1.2c0-0.1-0.1-0.2-0.1-0.3c0,0,0,0,0-0.1c-0.2,0.2-0.4,0.5-0.7,0.7c-0.3,0.2-0.5,0.4-0.8,0.6l0,0
			c-0.1-0.1-0.2-0.2-0.4-0.4c-0.1-0.1-0.2-0.1-0.3-0.1l0,0c0,0.1-0.1,0.4-0.3,0.6c-0.1,0.1-0.1,0.1-0.2,0.1c-0.3,0-0.5,0-0.8,0
			l1.5-2.5l-0.4-1.8h-0.1c-0.1,0.3-0.4,0.8-0.7,1.3c-0.5,0.8-0.8,1.3-1.3,2.2c-0.3,0.5-0.7,1.2-1.3,2.1c-0.1-0.3-0.3-0.6-0.5-0.9
			c-0.1-0.1-0.2-0.2-0.3-0.4c0,0-0.6,0-0.9,0.1c0,0-0.1,0.1-0.2,0.2s-0.1,0.1-0.1,0.2l0,0c0.1,0,0.2,0,0.4,0c0,0,0.2,0,0.3,0
			c0.3,0.1,0.7,0.5,1,1.2c-0.6,1-0.9,1.8-1.1,2.5c-0.4,1.5-0.2,2.1-0.1,2.4s0.2,0.5,0.3,0.6c0,0,0,0,0.1,0c0.1-0.5,0.2-1,0.3-1.3
			c0.1-0.3,0.2-0.5,0.4-0.6c0.1-0.1,0.2-0.1,0.5-0.1c0.2,0,0.5-0.1,0.8-0.2l0,0c0.2,0.5,0.5,0.8,0.6,1.1c0.5,0.8,0.7,1.2,1.1,1.7
			c0.3,0.4,0.6,0.7,0.9,0.9l0,0c-0.3,0.2-0.5,0.5-0.8,0.7c-0.4,0.4-0.9,0.7-1.3,1c0,0,0,0,0,0.1l0.8,0.1c0.3-0.2,0.6-0.5,0.9-0.7
			c0.3-0.3,0.6-0.5,0.9-0.8l0,0c0.2,0.2,1.5,0.7,1.9,0.7c1,0,2.1-1.1,2.1-1.9C438.5,23.1,437.4,23.1,437.4,23.1z M431,20.2
			c-0.1,0-0.2,0-0.3,0.1c-0.1,0-0.2,0-0.4,0.1l0.4-0.9l0,0c0,0.1,0.1,0.2,0.1,0.4C430.9,19.9,430.9,20.1,431,20.2L431,20.2z"/>
		<path class="st0" d="M442.9,11.8L442.9,11.8c0.2,0.2,0.6,0.5,1.1,0.7c1,0.4,1.8,0.6,2.7,0.7c0.4,0.1,1,0.1,1.7,0.1v0.1
			c-0.2,0.7-0.7,1.7-1.5,2.6c-0.4,0.5-0.8,0.8-1.1,1.1c0,0,0,0-0.1,0c-0.2-0.2-0.5-0.5-0.8-0.8c-0.1-0.2-0.3-0.4-0.4-0.5l0,0
			c0.1-0.1,0.3-0.2,0.5-0.4c0.2-0.1,0.5-0.2,0.7-0.3l0,0l-0.1-0.1c-0.1,0-0.2,0-0.3,0c-0.1,0-0.9,0-1.2,0.6
			c-0.3,0.5-0.1,1.1,0.1,1.4c0.2,0.5,0.5,0.8,0.7,1l0,0c-0.2,0.1-0.4,0.4-0.7,0.6c-0.7,0.6-1,1-1.3,1.3s-1,1.2-1.1,2.5
			c-0.1,0.5-0.1,0.8,0,1.1c0,0.2,0,0.4,0.1,0.6c0,0.1,0.1,0.3,0.1,0.4l0,0c0-0.1,0.1-0.2,0.1-0.4c0.1-0.4,0.1-0.7,0.1-0.8
			c0.1-0.9,1.7-2.4,2.6-3c0.1,0,0.4-0.3,0.9-0.6c0.2-0.1,0.4-0.2,0.5-0.3l0,0v0.1c-0.1,0.4-0.1,0.6-0.2,0.8
			c-0.2,0.6-0.2,0.8-0.3,1.2c0,0.3-0.1,0.5-0.1,0.8c0,0.1,0,0.7,0,1.5c0,0.1,0,0.4,0.2,0.6c0.1,0.1,0.2,0.2,0.2,0.3
			c0.5,0.4,0.9,0.6,1.2,0.8c0.6,0.4,0.9,0.5,1.6,0.9c0,0,0.4,0.2,0.9,0.3c0.1,0,0.2,0,0.3,0c0.3,0,0.5-0.1,0.7-0.2
			c0.8-0.5,1.5-1.1,1.5-1.1c0.1-0.1,0.6-0.7,1-1.4c0,0,0.2-0.3,0.2-0.8c0-0.2,0-0.4,0-0.5c-0.1-0.1-0.2-0.2-0.3-0.2
			c-1.1-0.5-2.1-0.8-2.1-0.8c-0.1,0-0.3-0.1-0.5-0.1s-0.4-0.1-0.5-0.1s-0.2,0-0.4,0c-0.1,0-0.2,0.1-0.4,0.2c-0.1,0-0.2,0.1-0.4,0.2
			l0,0c0.1,0,0.3,0.1,0.5,0.1c0.8,0.2,1,0.1,1.3,0.3c0.5,0.3,0.5,1,0.6,1.2c0,0.5,0,0.8-0.1,0.9c-0.3,1-1.4,1.5-2.3,1.5
			c-0.2,0-0.3,0-0.5-0.1c-0.5-0.2-0.5-1.1-0.4-2.5c0-0.4,0-0.7,0.1-1.2c0.1-0.8,0.3-1.5,0.5-2l0,0c1.5,0.6,2.3,0.9,2.6,1
			c0.3,0.1,0.6,0.1,1,0.4c0.1,0,0.2,0.1,0.5,0.2c0.1,0,0.2,0.1,0.3,0.1h0.1l0,0c-0.1-0.1-0.2-0.3-0.4-0.4c-0.2-0.2-0.4-0.3-0.8-0.5
			c-0.5-0.2-0.7-0.4-0.9-0.5c-0.4-0.2-1.1-0.6-2.2-1.2c0-0.2,0-0.4,0.1-0.7c0.1-0.5,0.3-0.9,0.5-1.1c0.8-1.4,1.2-2.1,1.4-2.4
			c0,0,0.1-0.1,0.5-0.9c0-0.1,0.1-0.2,0.1-0.4c0-0.1,0-0.1,0-0.2c-0.1-0.1-0.4-0.3-0.6-0.5c-0.6-0.4-1-0.7-1-0.7l0,0
			c0,0-0.2-0.1-0.5-0.3h-0.1c-0.1,0-0.2,0.1-0.3,0.2c0,0-0.1,0-0.3,0.1c-0.2,0-1.3,0-2.7,0C444.8,12,443.9,11.9,442.9,11.8z"/>
		<path class="st0" d="M463.4,18.7c0.3,0.5,0.5,0.9,0.6,1.2c0,0,0,0,0,0.1c-0.2,0.2-0.4,0.6-0.7,1c-0.2,0.3-0.6,0.7-1,1.2
			c-0.3,0.3-0.7,0.6-1.3,1l0,0c-0.5-0.4-1.1-0.9-1.8-1.5c-0.5-0.5-0.9-1.1-1.2-1.6c0,0,0,0,0-0.1c0.2-0.5,0.6-1.1,1.2-1.8
			c0.6-0.7,1.2-1.2,1.7-1.5h0.1c0.5,0.3,0.9,0.6,1.1,0.8C462.6,17.9,463,18.2,463.4,18.7z M467.6,13c-0.1-0.4-0.2-0.7-0.3-1
			c-0.1-0.1-0.2-0.1-0.4-0.1c0,0-0.2,0-0.5,0c-1.4,0.2-3.2,1.1-3.2,1.1c-0.9,0.5-1.6,0.8-2.1,1l0,0c-0.8-0.4-1.5-0.7-2-1
			c0,0-1.5-0.7-3.4-1.1c-0.1,0-0.4-0.1-0.7,0c-0.1,0-0.3,0.1-0.3,0.1c-0.1,0.3-0.3,0.7-0.4,1.1c-0.1,0.6-0.2,1.2-0.2,1.6
			c0.4,0.3,0.8,0.6,1.1,0.7c0.3,0.2,0.8,0.4,1.3,0.5c0.3,0,0.5,0,0.6-0.1s0.1-0.2,0.1-0.2c-0.2-0.1-0.7-0.2-1.1-0.5
			c-0.5-0.4-0.7-0.8-0.8-1c0.3-0.1,1.4-0.4,2.6,0.1c0.8,0.3,1.3,0.9,1.5,1.2l0,0c-0.4,0.5-0.8,1-1.3,1.6c-0.6,0.9-1.1,1.8-1.4,2.5
			l0,0c0.5,1.1,1.1,2.3,1.8,3.5c0.8,1.3,1.6,2.5,2.3,3.5c0,0,0,0,0.1,0c0.8-1,1.6-2.1,2.5-3.5c0.7-1.2,1.3-2.4,1.8-3.4l0,0
			c-0.3-0.8-0.7-1.7-1.4-2.6c-0.5-0.7-1-1.3-1.4-1.8l0,0c0.3-0.1,0.7-0.4,1.2-0.6c1-0.5,1.2-0.5,1.4-0.5c0.3,0,0.8-0.1,1.5,0.2v0.1
			c0,0.1-0.1,0.2-0.2,0.3c-0.1,0.2-0.3,0.4-0.7,0.7c-0.2,0.2-0.5,0.4-0.8,0.6v0.1c0.4,0,1-0.1,1.6-0.4c0.6-0.2,1-0.5,1.2-0.8
			C467.8,14.4,467.8,13.7,467.6,13z"/>
	</g>
	<g>
		<path class="st0" d="M471.3,16.5c0.4,0,0.6,0,0.8,0.1c0.3,0.1,0.5,0.2,0.5,0.2c0.1,0,0.1,0.1,0.2,0.1c0,0,0.3,0.3,0.3,0.7
			s-0.4,0.8-0.4,0.8s-0.4,0.5-1.1,0.5s-1.3-0.9-1.3-0.9L471.3,16.5z M470.8,20l-0.8-1.4l0,0l0,0c0.1,0.2,0.4,0.6,1,0.8
			c1.1,0.4,2.1-0.8,2.1-0.8c0.6-0.7,0.6-1.6,0.6-1.9c0-0.2,0-0.4,0-0.5l0,0c0.1,0,0.2,0,0.3,0c0.1,0.3,0.1,0.8,0.1,1.5
			c0,0.3-0.1,0.6-0.2,0.9c-0.5,0.8-1.5,1.1-2.3,1.3C471.2,20,471,20,470.8,20z M476.3,23.1L476.3,23.1c0,0,0.8,0.5,0.8,0.8
			c0,0.4-1.3,0.8-1.5,0.8s-0.4-0.1-0.7-0.1c-0.3-0.1-0.5-0.2-0.6-0.3l0,0c0.5-0.5,0.8-1,1-1.3c0.8-1,0.9-1.4,1-1.7
			c0,0,0.2-0.5,0.2-1.2c0-0.2,0-0.5-0.2-0.6c-0.1-0.1-0.2-0.2-0.3-0.3c-0.1-0.1-0.5-0.2-0.8-0.1s-0.5,0.2-0.6,0.4
			c-0.1,0.1-0.3,0.3-0.3,0.4c0,0.2-0.1,0.4-0.2,0.5c-0.1,0.2-0.2,0.4-0.3,0.5c-0.1,0.1-0.2,0.2-0.3,0.3v0.1c0,0,0,0.1,0.1,0.1
			c0.1,0.1,0.2,0.1,0.3,0.1l0.1-0.1c0.1-0.1,0.1-0.2,0.2-0.3c0.1-0.1,0.2-0.3,0.4-0.4c0.1,0,0.3-0.2,0.5-0.1c0.1,0,0.1,0.2,0.2,0.2
			c0,0.1,0,0.1,0,0.2c0,0.6-0.2,1.3-0.2,1.3c-0.1,0.2-0.2,0.5-0.4,0.9c-0.2,0.4-0.5,0.8-0.8,1l0,0c-0.4-0.3-0.8-0.7-1.2-1.2
			c-0.6-0.7-1-1.4-1.3-1.9c0.2-0.1,0.6-0.2,1-0.4c0.4-0.2,1-0.4,1.5-0.8c0.7-0.4,1.5-1,1.9-2c0-0.2,0.3-0.9,0-1.6
			c0-0.2-0.2-0.5-0.4-1.2c0-0.1-0.1-0.2-0.1-0.3c0,0,0,0,0-0.1c-0.2,0.2-0.4,0.5-0.7,0.7c-0.3,0.2-0.5,0.4-0.8,0.6l0,0
			c-0.1-0.1-0.2-0.2-0.4-0.4c-0.1-0.1-0.2-0.1-0.3-0.1l0,0c0,0.1-0.1,0.4-0.3,0.6c-0.1,0.1-0.1,0.1-0.2,0.1c-0.3,0-0.5,0-0.8,0
			l1.5-2.5l-0.4-1.8h-0.1c-0.1,0.3-0.4,0.8-0.7,1.3c-0.5,0.8-0.8,1.3-1.3,2.2c-0.3,0.5-0.7,1.2-1.3,2.1c-0.1-0.3-0.3-0.6-0.5-0.9
			c-0.1-0.1-0.2-0.2-0.3-0.4c0,0-0.6,0-0.9,0.1c0,0-0.1,0.1-0.2,0.2s-0.1,0.1-0.1,0.2l0,0c0.1,0,0.2,0,0.4,0c0,0,0.2,0,0.3,0
			c0.3,0.1,0.7,0.5,1,1.2c-0.6,1-0.9,1.8-1.1,2.5c-0.4,1.5-0.2,2.1-0.1,2.4s0.2,0.5,0.3,0.6c0,0,0,0,0.1,0c0.1-0.5,0.2-1,0.3-1.3
			c0.1-0.3,0.2-0.5,0.4-0.6c0.1-0.1,0.2-0.1,0.5-0.1c0.2,0,0.5-0.1,0.8-0.2l0,0c0.2,0.5,0.5,0.8,0.6,1.1c0.5,0.8,0.7,1.2,1.1,1.7
			c0.3,0.4,0.6,0.7,0.9,0.9l0,0c-0.3,0.2-0.5,0.5-0.8,0.7c-0.4,0.4-0.9,0.7-1.3,1c0,0,0,0,0,0.1l0.8,0.1c0.3-0.2,0.6-0.5,0.9-0.7
			c0.3-0.3,0.6-0.5,0.9-0.8l0,0c0.2,0.2,1.5,0.7,1.9,0.7c1,0,2.1-1.1,2.1-1.9C477.4,23.1,476.3,23.1,476.3,23.1z M469.9,20.2
			c-0.1,0-0.2,0-0.3,0.1c-0.1,0-0.2,0-0.4,0.1l0.4-0.9l0,0c0,0.1,0.1,0.2,0.1,0.4C469.7,19.9,469.8,20.1,469.9,20.2L469.9,20.2z"/>
		<path class="st0" d="M481.7,11.8L481.7,11.8c0.2,0.2,0.6,0.5,1.1,0.7c1,0.4,1.8,0.6,2.7,0.7c0.4,0.1,1,0.1,1.7,0.1v0.1
			c-0.2,0.7-0.7,1.7-1.5,2.6c-0.4,0.5-0.8,0.8-1.1,1.1c0,0,0,0-0.1,0c-0.2-0.2-0.5-0.5-0.8-0.8c-0.1-0.2-0.3-0.4-0.4-0.5l0,0
			c0.1-0.1,0.3-0.2,0.5-0.4c0.2-0.1,0.5-0.2,0.7-0.3l0,0l-0.1-0.1c-0.1,0-0.2,0-0.3,0c-0.1,0-0.9,0-1.2,0.6
			c-0.3,0.5-0.1,1.1,0.1,1.4c0.2,0.5,0.5,0.8,0.7,1l0,0c-0.2,0.1-0.4,0.4-0.7,0.6c-0.7,0.6-1,1-1.3,1.3s-1,1.2-1.1,2.5
			c-0.1,0.5-0.1,0.8,0,1.1c0,0.2,0,0.4,0.1,0.6c0,0.1,0.1,0.3,0.1,0.4l0,0c0-0.1,0.1-0.2,0.1-0.4c0.1-0.4,0.1-0.7,0.1-0.8
			c0.1-0.9,1.7-2.4,2.6-3c0.1,0,0.4-0.3,0.9-0.6c0.2-0.1,0.4-0.2,0.5-0.3l0,0v0.1c-0.1,0.4-0.1,0.6-0.2,0.8
			c-0.2,0.6-0.2,0.8-0.3,1.2c0,0.3-0.1,0.5-0.1,0.8c0,0.1,0,0.7,0,1.5c0,0.1,0,0.4,0.2,0.6c0.1,0.1,0.2,0.2,0.2,0.3
			c0.5,0.4,0.9,0.6,1.2,0.8c0.6,0.4,0.9,0.5,1.6,0.9c0,0,0.4,0.2,0.9,0.3c0.1,0,0.2,0,0.3,0c0.3,0,0.5-0.1,0.7-0.2
			c0.8-0.5,1.5-1.1,1.5-1.1c0.1-0.1,0.6-0.7,1-1.4c0,0,0.2-0.3,0.2-0.8c0-0.2,0-0.4,0-0.5c-0.1-0.1-0.2-0.2-0.3-0.2
			c-1.1-0.5-2.1-0.8-2.1-0.8c-0.1,0-0.3-0.1-0.5-0.1s-0.4-0.1-0.5-0.1s-0.2,0-0.4,0c-0.1,0-0.2,0.1-0.4,0.2c-0.1,0-0.2,0.1-0.4,0.2
			l0,0c0.1,0,0.3,0.1,0.5,0.1c0.8,0.2,1,0.1,1.3,0.3c0.5,0.3,0.5,1,0.6,1.2c0,0.5,0,0.8-0.1,0.9c-0.3,1-1.4,1.5-2.3,1.5
			c-0.2,0-0.3,0-0.5-0.1c-0.5-0.2-0.5-1.1-0.4-2.5c0-0.4,0-0.7,0.1-1.2c0.1-0.8,0.3-1.5,0.5-2l0,0c1.5,0.6,2.3,0.9,2.6,1
			c0.3,0.1,0.6,0.1,1,0.4c0.1,0,0.2,0.1,0.5,0.2c0.1,0,0.2,0.1,0.3,0.1h0.1l0,0c-0.1-0.1-0.2-0.3-0.4-0.4c-0.2-0.2-0.4-0.3-0.8-0.5
			c-0.5-0.2-0.7-0.4-0.9-0.5c-0.4-0.2-1.1-0.6-2.2-1.2c0-0.2,0-0.4,0.1-0.7c0.1-0.5,0.3-0.9,0.5-1.1c0.8-1.4,1.2-2.1,1.4-2.4
			c0,0,0.1-0.1,0.5-0.9c0-0.1,0.1-0.2,0.1-0.4c0-0.1,0-0.1,0-0.2c-0.1-0.1-0.4-0.3-0.6-0.5c-0.6-0.4-1-0.7-1-0.7l0,0
			c0,0-0.2-0.1-0.5-0.3h-0.1c-0.1,0-0.2,0.1-0.3,0.2c0,0-0.1,0-0.3,0.1c-0.2,0-1.3,0-2.7,0C483.6,12,482.7,11.9,481.7,11.8z"/>
		<path class="st0" d="M502.2,18.7c0.3,0.5,0.5,0.9,0.6,1.2c0,0,0,0,0,0.1c-0.2,0.2-0.4,0.6-0.7,1c-0.2,0.3-0.6,0.7-1,1.2
			c-0.3,0.3-0.7,0.6-1.3,1l0,0c-0.5-0.4-1.1-0.9-1.8-1.5c-0.5-0.5-0.9-1.1-1.2-1.6c0,0,0,0,0-0.1c0.2-0.5,0.6-1.1,1.2-1.8
			c0.6-0.7,1.2-1.2,1.7-1.5h0.1c0.5,0.3,0.9,0.6,1.1,0.8C501.5,17.9,501.9,18.2,502.2,18.7z M506.4,13c-0.1-0.4-0.2-0.7-0.3-1
			c-0.1-0.1-0.2-0.1-0.4-0.1c0,0-0.2,0-0.5,0c-1.4,0.2-3.2,1.1-3.2,1.1c-0.9,0.5-1.6,0.8-2.1,1l0,0c-0.8-0.4-1.5-0.7-2-1
			c0,0-1.5-0.7-3.4-1.1c-0.1,0-0.4-0.1-0.7,0c-0.1,0-0.3,0.1-0.3,0.1c-0.1,0.3-0.3,0.7-0.4,1.1c-0.1,0.6-0.2,1.2-0.2,1.6
			c0.4,0.3,0.8,0.6,1.1,0.7c0.3,0.2,0.8,0.4,1.3,0.5c0.3,0,0.5,0,0.6-0.1s0.1-0.2,0.1-0.2c-0.2-0.1-0.7-0.2-1.1-0.5
			c-0.5-0.4-0.7-0.8-0.8-1c0.3-0.1,1.4-0.4,2.6,0.1c0.8,0.3,1.3,0.9,1.5,1.2l0,0c-0.4,0.5-0.8,1-1.3,1.6c-0.6,0.9-1.1,1.8-1.4,2.5
			l0,0c0.5,1.1,1.1,2.3,1.8,3.5c0.8,1.3,1.6,2.5,2.3,3.5c0,0,0,0,0.1,0c0.8-1,1.6-2.1,2.5-3.5c0.7-1.2,1.3-2.4,1.8-3.4l0,0
			c-0.3-0.8-0.7-1.7-1.4-2.6c-0.5-0.7-1-1.3-1.4-1.8l0,0c0.3-0.1,0.7-0.4,1.2-0.6c1-0.5,1.2-0.5,1.4-0.5c0.3,0,0.8-0.1,1.5,0.2v0.1
			c0,0.1-0.1,0.2-0.2,0.3c-0.1,0.2-0.3,0.4-0.7,0.7c-0.2,0.2-0.5,0.4-0.8,0.6v0.1c0.4,0,1-0.1,1.6-0.4c0.6-0.2,1-0.5,1.2-0.8
			C506.6,14.4,506.6,13.7,506.4,13z"/>
	</g>
	<g>
		<path class="st0" d="M510.2,16.5c0.4,0,0.6,0,0.8,0.1c0.3,0.1,0.5,0.2,0.5,0.2c0.1,0,0.1,0.1,0.2,0.1c0,0,0.3,0.3,0.3,0.7
			s-0.4,0.8-0.4,0.8s-0.4,0.5-1.1,0.5s-1.3-0.9-1.3-0.9L510.2,16.5z M509.6,20l-0.8-1.4l0,0l0,0c0.1,0.2,0.4,0.6,1,0.8
			c1.1,0.4,2.1-0.8,2.1-0.8c0.6-0.7,0.6-1.6,0.6-1.9c0-0.2,0-0.4,0-0.5l0,0c0.1,0,0.2,0,0.3,0c0.1,0.3,0.2,0.8,0.1,1.5
			c0,0.3-0.1,0.6-0.2,0.9c-0.5,0.8-1.5,1.1-2.3,1.3C510.1,20,509.8,20,509.6,20z M515.1,23.1L515.1,23.1c0,0,0.8,0.5,0.8,0.8
			c0,0.4-1.3,0.8-1.5,0.8s-0.4-0.1-0.7-0.1c-0.3-0.1-0.5-0.2-0.6-0.3l0,0c0.5-0.5,0.8-1,1-1.3c0.8-1,0.9-1.4,1-1.7
			c0,0,0.2-0.5,0.2-1.2c0-0.2,0-0.5-0.2-0.6c-0.1-0.1-0.2-0.2-0.3-0.3c-0.1-0.1-0.5-0.2-0.8-0.1s-0.5,0.2-0.6,0.4
			c-0.2,0.1-0.3,0.3-0.3,0.4c0,0.2-0.1,0.4-0.2,0.5c-0.1,0.2-0.2,0.4-0.3,0.5s-0.2,0.2-0.3,0.3v0.1c0,0,0,0.1,0.1,0.1
			c0.1,0.1,0.2,0.1,0.3,0.1l0.1-0.1c0.1-0.1,0.2-0.2,0.2-0.3c0.1-0.1,0.2-0.3,0.4-0.4c0.1,0,0.3-0.2,0.5-0.1c0.1,0,0.1,0.2,0.2,0.2
			c0,0.1,0,0.1,0,0.2c0,0.6-0.2,1.3-0.2,1.3c-0.1,0.2-0.2,0.5-0.4,0.9s-0.5,0.8-0.8,1l0,0c-0.4-0.3-0.8-0.7-1.2-1.2
			c-0.6-0.7-1-1.4-1.3-1.9c0.2-0.1,0.6-0.2,1-0.4c0.4-0.2,0.9-0.4,1.4-0.8c0.7-0.4,1.5-1,1.8-2c0-0.2,0.3-0.9,0-1.6
			c0-0.2-0.2-0.5-0.4-1.2c0-0.1-0.1-0.2-0.1-0.3c0,0,0,0,0-0.1c-0.2,0.2-0.4,0.5-0.7,0.7s-0.5,0.4-0.8,0.6l0,0
			c-0.1-0.1-0.2-0.2-0.4-0.4c-0.1-0.1-0.2-0.1-0.3-0.1l0,0c0,0.1-0.1,0.4-0.3,0.6c-0.1,0.1-0.1,0.1-0.2,0.1c-0.3,0-0.5,0-0.8,0
			l1.5-2.5l-0.4-1.8h-0.1c-0.1,0.3-0.4,0.8-0.7,1.3c-0.5,0.8-0.8,1.3-1.3,2.2c-0.3,0.5-0.7,1.2-1.3,2.1c-0.1-0.3-0.3-0.6-0.5-0.9
			c-0.1-0.1-0.2-0.2-0.3-0.4c0,0-0.6,0-0.9,0.1c0,0-0.1,0.1-0.2,0.2s-0.1,0.1-0.1,0.2l0,0c0.1,0,0.2,0,0.4,0c0,0,0.2,0,0.3,0
			c0.3,0.1,0.7,0.5,1,1.2c-0.6,1-0.9,1.8-1.1,2.5c-0.4,1.5-0.2,2.1-0.1,2.4s0.2,0.5,0.3,0.6c0,0,0,0,0.1,0c0.1-0.5,0.2-1,0.3-1.3
			c0.1-0.3,0.2-0.5,0.4-0.6c0.1-0.1,0.2-0.1,0.5-0.1c0.2,0,0.5-0.1,0.8-0.2l0,0c0.2,0.5,0.5,0.8,0.6,1.1c0.5,0.8,0.7,1.2,1.1,1.7
			c0.3,0.4,0.6,0.7,0.9,0.9l0,0c-0.3,0.2-0.5,0.5-0.8,0.7c-0.4,0.4-0.9,0.7-1.3,1c0,0,0,0,0,0.1l0.8,0.1c0.3-0.2,0.6-0.5,0.9-0.7
			c0.3-0.3,0.6-0.5,0.9-0.8l0,0c0.2,0.2,1.5,0.7,1.8,0.7c1,0,2.1-1.1,2.1-1.9C516.2,23.1,515.1,23.1,515.1,23.1z M508.7,20.2
			c-0.1,0-0.2,0-0.3,0.1c-0.1,0-0.2,0-0.4,0.1l0.4-0.9l0,0c0,0.1,0.1,0.2,0.1,0.4C508.6,19.9,508.6,20.1,508.7,20.2L508.7,20.2z"/>
		<path class="st0" d="M520.6,11.8L520.6,11.8c0.2,0.2,0.6,0.5,1.2,0.7c1,0.4,1.8,0.6,2.7,0.7c0.4,0.1,1,0.1,1.7,0.1v0.1
			c-0.2,0.7-0.7,1.7-1.5,2.6c-0.4,0.5-0.8,0.8-1.1,1.1c0,0,0,0-0.1,0c-0.2-0.2-0.5-0.5-0.8-0.8c-0.2-0.2-0.3-0.4-0.4-0.5l0,0
			c0.1-0.1,0.3-0.2,0.5-0.4c0.2-0.1,0.5-0.2,0.7-0.3l0,0c0,0-0.1-0.1-0.2-0.1c-0.1,0-0.2,0-0.3,0s-0.9,0-1.2,0.6
			c-0.3,0.5-0.1,1.1,0.1,1.4c0.2,0.5,0.5,0.8,0.7,1l0,0c-0.2,0.1-0.4,0.4-0.7,0.6c-0.7,0.6-1,1-1.3,1.3s-1,1.2-1.2,2.5
			c-0.1,0.5-0.1,0.8,0,1.1c0,0.2,0,0.4,0.1,0.6c0,0.1,0.1,0.3,0.1,0.4l0,0c0-0.1,0.1-0.2,0.1-0.4c0.1-0.4,0.1-0.7,0.1-0.8
			c0.1-0.9,1.7-2.4,2.6-3c0.1,0,0.4-0.3,0.9-0.6c0.2-0.1,0.3-0.2,0.5-0.3l0,0v0.1c-0.1,0.4-0.2,0.6-0.2,0.8
			c-0.2,0.6-0.2,0.8-0.3,1.2c0,0.3-0.1,0.5-0.1,0.8c0,0.1,0,0.7,0,1.5c0,0.1,0,0.4,0.2,0.6c0.1,0.1,0.2,0.2,0.2,0.3
			c0.5,0.4,0.9,0.6,1.2,0.8c0.6,0.4,0.9,0.5,1.7,0.9c0,0,0.4,0.2,0.9,0.3c0.1,0,0.2,0,0.3,0c0.3,0,0.5-0.1,0.7-0.2
			c0.8-0.5,1.5-1.1,1.5-1.1c0.1-0.1,0.6-0.7,1-1.4c0,0,0.2-0.3,0.2-0.8c0-0.2,0-0.4,0-0.5c-0.1-0.1-0.2-0.2-0.3-0.2
			c-1.1-0.5-2.1-0.8-2.1-0.8c-0.1,0-0.3-0.1-0.5-0.1s-0.4-0.1-0.5-0.1s-0.2,0-0.4,0c-0.1,0-0.2,0.1-0.4,0.2c-0.1,0-0.2,0.1-0.4,0.2
			l0,0c0.1,0,0.3,0.1,0.5,0.1c0.8,0.2,1,0.1,1.3,0.3c0.5,0.3,0.5,1,0.6,1.2c0,0.5,0,0.8-0.1,0.9c-0.3,1-1.4,1.5-2.3,1.5
			c-0.2,0-0.3,0-0.5-0.1c-0.5-0.2-0.5-1.1-0.4-2.5c0-0.4,0-0.7,0.1-1.2c0.1-0.8,0.3-1.5,0.5-2l0,0c1.5,0.6,2.3,0.9,2.7,1
			c0.3,0.1,0.6,0.1,1,0.4c0.1,0,0.2,0.1,0.5,0.2c0.1,0,0.2,0.1,0.3,0.1c0,0,0.1,0,0.2,0l0,0c-0.1-0.1-0.2-0.3-0.4-0.4
			c-0.2-0.2-0.4-0.3-0.8-0.5c-0.5-0.2-0.7-0.4-0.9-0.5c-0.4-0.2-1.1-0.6-2.2-1.2c0-0.2,0-0.4,0.1-0.7c0.1-0.5,0.3-0.9,0.5-1.1
			c0.8-1.4,1.2-2.1,1.4-2.4c0,0,0.1-0.1,0.5-0.9c0-0.1,0.1-0.2,0.1-0.4c0-0.1,0-0.1,0-0.2c-0.1-0.1-0.4-0.3-0.7-0.5
			c-0.6-0.4-1-0.7-1-0.7l0,0c0,0-0.2-0.1-0.5-0.3c0,0-0.1,0-0.2,0c-0.1,0-0.2,0.1-0.3,0.2c0,0-0.1,0-0.3,0.1c-0.2,0-1.3,0-2.7,0
			C522.5,12,521.5,11.9,520.6,11.8z"/>
		<path class="st0" d="M541.1,18.7c0.3,0.5,0.5,0.9,0.6,1.2c0,0,0,0,0,0.1c-0.2,0.2-0.4,0.6-0.7,1c-0.2,0.3-0.6,0.7-1,1.2
			c-0.3,0.3-0.7,0.6-1.3,1l0,0c-0.5-0.4-1.1-0.9-1.8-1.5c-0.5-0.5-0.9-1.1-1.2-1.6c0,0,0,0,0-0.1c0.2-0.5,0.6-1.1,1.2-1.8
			c0.6-0.7,1.2-1.2,1.7-1.5h0.1c0.5,0.3,0.9,0.6,1.2,0.8C540.3,17.9,540.7,18.2,541.1,18.7z M545.3,13c-0.1-0.4-0.2-0.7-0.3-1
			c-0.1-0.1-0.2-0.1-0.4-0.1c0,0-0.2,0-0.5,0c-1.4,0.2-3.2,1.1-3.2,1.1c-0.9,0.5-1.7,0.8-2.1,1l0,0c-0.8-0.4-1.5-0.7-2-1
			c0,0-1.5-0.7-3.4-1.1c-0.1,0-0.4-0.1-0.7,0c-0.1,0-0.3,0.1-0.3,0.1c-0.1,0.3-0.3,0.7-0.4,1.1c-0.1,0.6-0.2,1.2-0.2,1.6
			c0.4,0.3,0.8,0.6,1.1,0.7c0.3,0.2,0.8,0.4,1.3,0.5c0.3,0,0.5,0,0.7-0.1c0.1-0.1,0.1-0.2,0.1-0.2c-0.2-0.1-0.7-0.2-1.1-0.5
			c-0.5-0.4-0.7-0.8-0.8-1c0.3-0.1,1.4-0.4,2.6,0.1c0.8,0.3,1.3,0.9,1.5,1.2l0,0c-0.4,0.5-0.8,1-1.3,1.6c-0.6,0.9-1.1,1.8-1.4,2.5
			l0,0c0.5,1.1,1.1,2.3,1.8,3.5c0.8,1.3,1.6,2.5,2.3,3.5c0,0,0,0,0.1,0c0.8-1,1.6-2.1,2.5-3.5c0.7-1.2,1.3-2.4,1.8-3.4l0,0
			c-0.3-0.8-0.7-1.7-1.3-2.6c-0.5-0.7-1-1.3-1.4-1.8l0,0c0.3-0.1,0.7-0.4,1.2-0.6c1-0.5,1.2-0.5,1.4-0.5c0.3,0,0.8-0.1,1.5,0.2v0.1
			c0,0.1-0.1,0.2-0.2,0.3c-0.1,0.2-0.3,0.4-0.7,0.7c-0.2,0.2-0.5,0.4-0.8,0.6v0.1c0.4,0,1-0.1,1.6-0.4c0.6-0.2,1-0.5,1.2-0.8
			C545.5,14.4,545.4,13.7,545.3,13z"/>
	</g>
	<g>
		<path class="st0" d="M549,16.5c0.3,0,0.6,0,0.8,0.1c0.3,0.1,0.5,0.2,0.5,0.2c0.1,0,0.2,0.1,0.2,0.1s0.3,0.3,0.3,0.7
			s-0.3,0.8-0.3,0.8s-0.4,0.5-1.1,0.5S548,18,548,18L549,16.5z M548.5,20l-0.8-1.4l0,0l0,0c0.1,0.2,0.4,0.6,1,0.8
			c1.1,0.4,2.1-0.8,2.1-0.8c0.6-0.7,0.6-1.6,0.6-1.9c0-0.2,0-0.4,0-0.5l0,0c0.1,0,0.2,0,0.3,0c0.1,0.3,0.2,0.8,0.1,1.5
			c0,0.3-0.1,0.6-0.2,0.9c-0.5,0.8-1.5,1.1-2.3,1.3C548.9,20,548.6,20,548.5,20z M554,23.1L554,23.1c0,0,0.8,0.5,0.8,0.8
			c0,0.4-1.3,0.8-1.5,0.8s-0.4-0.1-0.7-0.1c-0.3-0.1-0.5-0.2-0.6-0.3l0,0c0.5-0.5,0.8-1,1-1.3c0.8-1,0.9-1.4,1-1.7
			c0,0,0.2-0.5,0.2-1.2c0-0.2,0-0.5-0.2-0.6c-0.1-0.1-0.2-0.2-0.3-0.3c-0.1-0.1-0.5-0.2-0.8-0.1s-0.5,0.2-0.6,0.4
			c-0.2,0.1-0.3,0.3-0.3,0.4c0,0.2-0.1,0.4-0.2,0.5c-0.1,0.2-0.2,0.4-0.3,0.5s-0.2,0.2-0.3,0.3v0.1c0,0,0,0.1,0.1,0.1
			c0.1,0.1,0.2,0.1,0.3,0.1l0.1-0.1c0.1-0.1,0.2-0.2,0.2-0.3c0.1-0.1,0.2-0.3,0.4-0.4c0.1,0,0.3-0.2,0.5-0.1c0.1,0,0.1,0.2,0.2,0.2
			c0,0.1,0,0.1,0,0.2c0,0.6-0.2,1.3-0.2,1.3c-0.1,0.2-0.2,0.5-0.4,0.9s-0.5,0.8-0.8,1l0,0c-0.4-0.3-0.8-0.7-1.2-1.2
			c-0.6-0.7-1-1.4-1.3-1.9c0.2-0.1,0.6-0.2,1-0.4c0.4-0.2,1-0.4,1.5-0.8c0.7-0.4,1.5-1,1.8-2c0-0.2,0.3-0.9,0-1.6
			c0-0.2-0.2-0.5-0.4-1.2c0-0.1-0.1-0.2-0.1-0.3c0,0,0,0,0-0.1c-0.2,0.2-0.4,0.5-0.7,0.7s-0.5,0.4-0.8,0.6l0,0
			c-0.1-0.1-0.2-0.2-0.4-0.4c-0.1-0.1-0.2-0.1-0.3-0.1l0,0c0,0.1-0.1,0.4-0.3,0.6c-0.1,0.1-0.1,0.1-0.2,0.1c-0.3,0-0.5,0-0.8,0
			l1.5-2.5l-0.4-1.8h-0.1c-0.1,0.3-0.4,0.8-0.7,1.3c-0.5,0.8-0.8,1.3-1.3,2.2c-0.3,0.5-0.7,1.2-1.3,2.1c-0.1-0.3-0.3-0.6-0.5-0.9
			c-0.1-0.1-0.2-0.2-0.3-0.4c0,0-0.6,0-0.8,0.1c0,0-0.1,0.1-0.2,0.2c-0.1,0.1-0.1,0.1-0.1,0.2l0,0c0.1,0,0.2,0,0.4,0
			c0,0,0.2,0,0.3,0c0.3,0.1,0.7,0.5,1,1.2c-0.6,1-0.9,1.8-1.1,2.5c-0.4,1.5-0.2,2.1-0.1,2.4c0.1,0.3,0.2,0.5,0.3,0.6c0,0,0,0,0.1,0
			c0.1-0.5,0.2-1,0.3-1.3s0.2-0.5,0.4-0.6c0.1-0.1,0.2-0.1,0.5-0.1c0.2,0,0.5-0.1,0.8-0.2l0,0c0.2,0.5,0.5,0.8,0.6,1.1
			c0.5,0.8,0.7,1.2,1.1,1.7c0.3,0.4,0.6,0.7,0.9,0.9l0,0c-0.3,0.2-0.5,0.5-0.8,0.7c-0.4,0.4-0.9,0.7-1.3,1c0,0,0,0,0,0.1l0.8,0.1
			c0.3-0.2,0.6-0.5,0.8-0.7c0.3-0.3,0.6-0.5,0.9-0.8l0,0c0.2,0.2,1.5,0.7,1.8,0.7c1,0,2.1-1.1,2.1-1.9C555.1,23.1,554,23.1,554,23.1
			z M547.5,20.2c-0.1,0-0.2,0-0.3,0.1c-0.1,0-0.2,0-0.4,0.1l0.4-0.9l0,0c0,0.1,0.1,0.2,0.1,0.4S547.5,20.1,547.5,20.2L547.5,20.2z"
			/>
		<path class="st0" d="M559.4,11.8L559.4,11.8c0.2,0.2,0.6,0.5,1.2,0.7c1,0.4,1.8,0.6,2.7,0.7c0.4,0.1,1,0.1,1.7,0.1v0.1
			c-0.2,0.7-0.7,1.7-1.5,2.6c-0.4,0.5-0.8,0.8-1.1,1.1c0,0,0,0-0.1,0c-0.2-0.2-0.5-0.5-0.8-0.8c-0.2-0.2-0.3-0.4-0.4-0.5l0,0
			c0.1-0.1,0.3-0.2,0.5-0.4c0.2-0.1,0.5-0.2,0.7-0.3l0,0c0,0-0.1-0.1-0.2-0.1c-0.1,0-0.2,0-0.3,0s-0.9,0-1.2,0.6
			c-0.3,0.5-0.1,1.1,0.1,1.4c0.2,0.5,0.5,0.8,0.7,1l0,0c-0.2,0.1-0.4,0.4-0.7,0.6c-0.7,0.6-1,1-1.3,1.3s-1,1.2-1.2,2.5
			c-0.1,0.5-0.1,0.8,0,1.1c0,0.2,0,0.4,0.1,0.6c0,0.1,0.1,0.3,0.1,0.4l0,0c0-0.1,0.1-0.2,0.1-0.4c0.1-0.4,0.1-0.7,0.1-0.8
			c0.1-0.9,1.7-2.4,2.6-3c0.1,0,0.4-0.3,0.9-0.6c0.2-0.1,0.3-0.2,0.5-0.3l0,0v0.1c-0.1,0.4-0.2,0.6-0.2,0.8
			c-0.2,0.6-0.2,0.8-0.3,1.2c0,0.3-0.1,0.5-0.1,0.8c0,0.1,0,0.7,0,1.5c0,0.1,0,0.4,0.2,0.6c0.1,0.1,0.2,0.2,0.2,0.3
			c0.5,0.4,0.9,0.6,1.2,0.8c0.6,0.4,0.9,0.5,1.7,0.9c0,0,0.4,0.2,0.9,0.3c0.1,0,0.2,0,0.3,0c0.3,0,0.5-0.1,0.7-0.2
			c0.8-0.5,1.5-1.1,1.5-1.1c0.1-0.1,0.6-0.7,1-1.4c0,0,0.2-0.3,0.2-0.8c0-0.2,0-0.4,0-0.5c-0.1-0.1-0.2-0.2-0.3-0.2
			c-1.1-0.5-2.1-0.8-2.1-0.8c-0.1,0-0.3-0.1-0.5-0.1s-0.4-0.1-0.5-0.1s-0.2,0-0.4,0c-0.1,0-0.2,0.1-0.4,0.2c-0.1,0-0.2,0.1-0.4,0.2
			l0,0c0.1,0,0.3,0.1,0.5,0.1c0.8,0.2,1,0.1,1.3,0.3c0.5,0.3,0.5,1,0.6,1.2c0,0.5,0,0.8-0.1,0.9c-0.3,1-1.4,1.5-2.3,1.5
			c-0.2,0-0.3,0-0.5-0.1c-0.5-0.2-0.5-1.1-0.4-2.5c0-0.4,0-0.7,0.1-1.2c0.1-0.8,0.3-1.5,0.5-2l0,0c1.5,0.6,2.3,0.9,2.7,1
			c0.3,0.1,0.6,0.1,1,0.4c0.1,0,0.2,0.1,0.5,0.2c0.1,0,0.2,0.1,0.3,0.1c0,0,0.1,0,0.2,0l0,0c-0.1-0.1-0.2-0.3-0.4-0.4
			c-0.2-0.2-0.4-0.3-0.8-0.5c-0.5-0.2-0.7-0.4-0.9-0.5c-0.4-0.2-1.1-0.6-2.2-1.2c0-0.2,0-0.4,0.1-0.7c0.1-0.5,0.3-0.9,0.5-1.1
			c0.8-1.4,1.2-2.1,1.4-2.4c0,0,0.1-0.1,0.5-0.9c0-0.1,0.1-0.2,0.1-0.4c0-0.1,0-0.1,0-0.2c-0.1-0.1-0.4-0.3-0.7-0.5
			c-0.6-0.4-1-0.7-1-0.7l0,0c0,0-0.2-0.1-0.5-0.3c0,0-0.1,0-0.2,0c-0.1,0-0.2,0.1-0.3,0.2c0,0-0.1,0-0.3,0.1c-0.2,0-1.3,0-2.7,0
			C561.3,12,560.4,11.9,559.4,11.8z"/>
		<path class="st0" d="M579.9,18.7c0.3,0.5,0.5,0.9,0.6,1.2c0,0,0,0,0,0.1c-0.2,0.2-0.4,0.6-0.7,1c-0.2,0.3-0.6,0.7-1,1.2
			c-0.3,0.3-0.7,0.6-1.3,1l0,0c-0.5-0.4-1.1-0.9-1.8-1.5c-0.5-0.5-0.9-1.1-1.2-1.6c0,0,0,0,0-0.1c0.2-0.5,0.6-1.1,1.2-1.8
			c0.6-0.7,1.2-1.2,1.7-1.5h0.1c0.5,0.3,0.9,0.6,1.2,0.8C579.1,17.9,579.5,18.2,579.9,18.7z M584.1,13c-0.1-0.4-0.2-0.7-0.3-1
			c-0.1-0.1-0.2-0.1-0.4-0.1c0,0-0.2,0-0.5,0c-1.4,0.2-3.2,1.1-3.2,1.1c-0.9,0.5-1.7,0.8-2.1,1l0,0c-0.8-0.4-1.5-0.7-2-1
			c0,0-1.5-0.7-3.4-1.1c-0.1,0-0.4-0.1-0.7,0c-0.1,0-0.3,0.1-0.3,0.1c-0.1,0.3-0.3,0.7-0.4,1.1c-0.1,0.6-0.2,1.2-0.2,1.6
			c0.4,0.3,0.8,0.6,1.1,0.7c0.3,0.2,0.8,0.4,1.3,0.5c0.3,0,0.5,0,0.7-0.1c0.1-0.1,0.1-0.2,0.1-0.2c-0.2-0.1-0.7-0.2-1.1-0.5
			c-0.5-0.4-0.7-0.8-0.8-1c0.3-0.1,1.4-0.4,2.6,0.1c0.8,0.3,1.3,0.9,1.5,1.2l0,0c-0.4,0.5-0.8,1-1.3,1.6c-0.6,0.9-1.1,1.8-1.4,2.5
			l0,0c0.5,1.1,1.1,2.3,1.8,3.5c0.8,1.3,1.6,2.5,2.3,3.5c0,0,0,0,0.1,0c0.8-1,1.6-2.1,2.5-3.5c0.7-1.2,1.3-2.4,1.8-3.4l0,0
			c-0.3-0.8-0.7-1.7-1.3-2.6c-0.5-0.7-1-1.3-1.4-1.8l0,0c0.3-0.1,0.7-0.4,1.2-0.6c1-0.5,1.2-0.5,1.4-0.5c0.3,0,0.8-0.1,1.5,0.2v0.1
			c0,0.1-0.1,0.2-0.2,0.3c-0.1,0.2-0.3,0.4-0.7,0.7c-0.2,0.2-0.5,0.4-0.8,0.6v0.1c0.4,0,1-0.1,1.6-0.4c0.6-0.2,1-0.5,1.2-0.8
			C584.3,14.4,584.3,13.7,584.1,13z"/>
	</g>
	<g>
		<path class="st0" d="M587.8,16.5c0.3,0,0.6,0,0.8,0.1c0.3,0.1,0.5,0.2,0.5,0.2c0.1,0,0.2,0.1,0.2,0.1s0.3,0.3,0.3,0.7
			s-0.3,0.8-0.3,0.8s-0.4,0.5-1.1,0.5s-1.3-0.9-1.3-0.9L587.8,16.5z M587.3,20l-0.8-1.4l0,0l0,0c0.1,0.2,0.4,0.6,1,0.8
			c1.1,0.4,2.1-0.8,2.1-0.8c0.6-0.7,0.6-1.6,0.6-1.9c0-0.2,0-0.4,0-0.5l0,0c0.1,0,0.2,0,0.3,0c0.1,0.3,0.2,0.8,0.1,1.5
			c0,0.3-0.1,0.6-0.2,0.9c-0.5,0.8-1.5,1.1-2.3,1.3C587.7,20,587.5,20,587.3,20z M592.8,23.1L592.8,23.1c0,0,0.8,0.5,0.8,0.8
			c0,0.4-1.3,0.8-1.5,0.8s-0.4-0.1-0.7-0.1c-0.3-0.1-0.5-0.2-0.6-0.3l0,0c0.5-0.5,0.8-1,1-1.3c0.8-1,0.9-1.4,1-1.7
			c0,0,0.2-0.5,0.2-1.2c0-0.2,0-0.5-0.2-0.6c-0.1-0.1-0.2-0.2-0.3-0.3c-0.1-0.1-0.5-0.2-0.8-0.1s-0.5,0.2-0.6,0.4
			c-0.2,0.1-0.3,0.3-0.3,0.4c0,0.2-0.1,0.4-0.2,0.5c-0.1,0.2-0.2,0.4-0.3,0.5s-0.2,0.2-0.3,0.3v0.1c0,0,0,0.1,0.1,0.1
			c0.1,0.1,0.2,0.1,0.3,0.1l0.1-0.1c0.1-0.1,0.2-0.2,0.2-0.3c0.1-0.1,0.2-0.3,0.4-0.4c0.1,0,0.3-0.2,0.5-0.1c0.1,0,0.1,0.2,0.2,0.2
			c0,0.1,0,0.1,0,0.2c0,0.6-0.2,1.3-0.2,1.3c-0.1,0.2-0.2,0.5-0.4,0.9s-0.5,0.8-0.8,1l0,0c-0.4-0.3-0.8-0.7-1.2-1.2
			c-0.6-0.7-1-1.4-1.3-1.9c0.2-0.1,0.6-0.2,1-0.4c0.4-0.2,1-0.4,1.5-0.8c0.7-0.4,1.5-1,1.8-2c0-0.2,0.3-0.9,0-1.6
			c0-0.2-0.2-0.5-0.4-1.2c0-0.1-0.1-0.2-0.1-0.3c0,0,0,0,0-0.1c-0.2,0.2-0.4,0.5-0.7,0.7s-0.5,0.4-0.8,0.6l0,0
			c-0.1-0.1-0.2-0.2-0.4-0.4c-0.1-0.1-0.2-0.1-0.3-0.1l0,0c0,0.1-0.1,0.4-0.3,0.6c-0.1,0.1-0.1,0.1-0.2,0.1c-0.3,0-0.5,0-0.8,0
			l1.5-2.5l-0.4-1.8h-0.1c-0.1,0.3-0.4,0.8-0.7,1.3c-0.5,0.8-0.8,1.3-1.3,2.2c-0.3,0.5-0.7,1.2-1.3,2.1c-0.1-0.3-0.3-0.6-0.5-0.9
			c-0.1-0.1-0.2-0.2-0.3-0.4c0,0-0.6,0-0.8,0.1c0,0-0.1,0.1-0.2,0.2c-0.1,0.1-0.1,0.1-0.1,0.2l0,0c0.1,0,0.2,0,0.4,0
			c0,0,0.2,0,0.3,0c0.3,0.1,0.7,0.5,1,1.2c-0.6,1-0.9,1.8-1.1,2.5c-0.4,1.5-0.2,2.1-0.1,2.4c0.1,0.3,0.2,0.5,0.3,0.6c0,0,0,0,0.1,0
			c0.1-0.5,0.2-1,0.3-1.3s0.2-0.5,0.4-0.6c0.1-0.1,0.2-0.1,0.5-0.1c0.2,0,0.5-0.1,0.8-0.2l0,0c0.2,0.5,0.5,0.8,0.6,1.1
			c0.5,0.8,0.7,1.2,1.1,1.7c0.3,0.4,0.6,0.7,0.9,0.9l0,0c-0.3,0.2-0.5,0.5-0.8,0.7c-0.4,0.4-0.9,0.7-1.3,1c0,0,0,0,0,0.1l0.8,0.1
			c0.3-0.2,0.6-0.5,0.8-0.7c0.3-0.3,0.6-0.5,0.9-0.8l0,0c0.2,0.2,1.5,0.7,1.8,0.7c1,0,2.1-1.1,2.1-1.9
			C593.9,23.1,592.8,23.1,592.8,23.1z M586.4,20.2c-0.1,0-0.2,0-0.3,0.1c-0.1,0-0.2,0-0.4,0.1l0.4-0.9l0,0c0,0.1,0.1,0.2,0.1,0.4
			S586.3,20.1,586.4,20.2L586.4,20.2z"/>
		<path class="st0" d="M598.2,11.8L598.2,11.8c0.2,0.2,0.6,0.5,1.2,0.7c1,0.4,1.8,0.6,2.7,0.7c0.4,0.1,1,0.1,1.7,0.1v0.1
			c-0.2,0.7-0.7,1.7-1.5,2.6c-0.4,0.5-0.8,0.8-1.1,1.1c0,0,0,0-0.1,0c-0.2-0.2-0.5-0.5-0.8-0.8c-0.2-0.2-0.3-0.4-0.4-0.5l0,0
			c0.1-0.1,0.3-0.2,0.5-0.4c0.2-0.1,0.5-0.2,0.7-0.3l0,0c0,0-0.1-0.1-0.2-0.1c-0.1,0-0.2,0-0.3,0s-0.9,0-1.2,0.6
			c-0.3,0.5-0.1,1.1,0.1,1.4c0.2,0.5,0.5,0.8,0.7,1l0,0c-0.2,0.1-0.4,0.4-0.7,0.6c-0.7,0.6-1,1-1.3,1.3s-1,1.2-1.2,2.5
			c-0.1,0.5-0.1,0.8,0,1.1c0,0.2,0,0.4,0.1,0.6c0,0.1,0.1,0.3,0.1,0.4l0,0c0-0.1,0.1-0.2,0.1-0.4c0.1-0.4,0.1-0.7,0.1-0.8
			c0.1-0.9,1.7-2.4,2.6-3c0.1,0,0.4-0.3,0.9-0.6c0.2-0.1,0.3-0.2,0.5-0.3l0,0v0.1c-0.1,0.4-0.2,0.6-0.2,0.8
			c-0.2,0.6-0.2,0.8-0.3,1.2c0,0.3-0.1,0.5-0.1,0.8c0,0.1,0,0.7,0,1.5c0,0.1,0,0.4,0.2,0.6c0.1,0.1,0.2,0.2,0.2,0.3
			c0.5,0.4,0.9,0.6,1.2,0.8c0.6,0.4,0.9,0.5,1.7,0.9c0,0,0.4,0.2,0.9,0.3c0.1,0,0.2,0,0.3,0c0.3,0,0.5-0.1,0.7-0.2
			c0.8-0.5,1.5-1.1,1.5-1.1c0.1-0.1,0.6-0.7,1-1.4c0,0,0.2-0.3,0.2-0.8c0-0.2,0-0.4,0-0.5c-0.1-0.1-0.2-0.2-0.3-0.2
			c-1.1-0.5-2.1-0.8-2.1-0.8c-0.1,0-0.3-0.1-0.5-0.1s-0.4-0.1-0.5-0.1s-0.2,0-0.4,0c-0.1,0-0.2,0.1-0.4,0.2c-0.1,0-0.2,0.1-0.4,0.2
			l0,0c0.1,0,0.3,0.1,0.5,0.1c0.8,0.2,1,0.1,1.3,0.3c0.5,0.3,0.5,1,0.6,1.2c0,0.5,0,0.8-0.1,0.9c-0.3,1-1.4,1.5-2.3,1.5
			c-0.2,0-0.3,0-0.5-0.1c-0.5-0.2-0.5-1.1-0.4-2.5c0-0.4,0-0.7,0.1-1.2c0.1-0.8,0.3-1.5,0.5-2l0,0c1.5,0.6,2.3,0.9,2.7,1
			c0.3,0.1,0.6,0.1,1,0.4c0.1,0,0.2,0.1,0.5,0.2c0.1,0,0.2,0.1,0.3,0.1c0,0,0.1,0,0.2,0l0,0c-0.1-0.1-0.2-0.3-0.4-0.4
			c-0.2-0.2-0.4-0.3-0.8-0.5c-0.5-0.2-0.7-0.4-0.9-0.5c-0.4-0.2-1.1-0.6-2.2-1.2c0-0.2,0-0.4,0.1-0.7c0.1-0.5,0.3-0.9,0.5-1.1
			c0.8-1.4,1.2-2.1,1.4-2.4c0,0,0.1-0.1,0.5-0.9c0-0.1,0.1-0.2,0.1-0.4c0-0.1,0-0.1,0-0.2c-0.1-0.1-0.4-0.3-0.7-0.5
			c-0.6-0.4-1-0.7-1-0.7l0,0c0,0-0.2-0.1-0.5-0.3c0,0-0.1,0-0.2,0c-0.1,0-0.2,0.1-0.3,0.2c0,0-0.1,0-0.3,0.1c-0.2,0-1.3,0-2.7,0
			C600.2,12,599.2,11.9,598.2,11.8z"/>
		<path class="st0" d="M618.8,18.7c0.3,0.5,0.5,0.9,0.6,1.2c0,0,0,0,0,0.1c-0.2,0.2-0.4,0.6-0.7,1c-0.2,0.3-0.6,0.7-1,1.2
			c-0.3,0.3-0.7,0.6-1.3,1l0,0c-0.5-0.4-1.1-0.9-1.8-1.5c-0.5-0.5-0.9-1.1-1.2-1.6c0,0,0,0,0-0.1c0.2-0.5,0.6-1.1,1.2-1.8
			c0.6-0.7,1.2-1.2,1.7-1.5h0.1c0.5,0.3,0.9,0.6,1.2,0.8C618,17.9,618.4,18.2,618.8,18.7z M622.9,13c-0.1-0.4-0.2-0.7-0.3-1
			c-0.1-0.1-0.2-0.1-0.4-0.1c0,0-0.2,0-0.5,0c-1.4,0.2-3.2,1.1-3.2,1.1c-0.9,0.5-1.7,0.8-2.1,1l0,0c-0.8-0.4-1.5-0.7-2-1
			c0,0-1.5-0.7-3.4-1.1c-0.1,0-0.4-0.1-0.7,0c-0.1,0-0.3,0.1-0.3,0.1c-0.1,0.3-0.3,0.7-0.4,1.1c-0.1,0.6-0.2,1.2-0.2,1.6
			c0.4,0.3,0.8,0.6,1.1,0.7c0.3,0.2,0.8,0.4,1.3,0.5c0.3,0,0.5,0,0.7-0.1c0.1-0.1,0.1-0.2,0.1-0.2c-0.2-0.1-0.7-0.2-1.1-0.5
			c-0.5-0.4-0.7-0.8-0.8-1c0.3-0.1,1.4-0.4,2.6,0.1c0.8,0.3,1.3,0.9,1.5,1.2l0,0c-0.4,0.5-0.8,1-1.3,1.6c-0.6,0.9-1.1,1.8-1.4,2.5
			l0,0c0.5,1.1,1.1,2.3,1.8,3.5c0.8,1.3,1.6,2.5,2.3,3.5c0,0,0,0,0.1,0c0.8-1,1.6-2.1,2.5-3.5c0.7-1.2,1.3-2.4,1.8-3.4l0,0
			c-0.3-0.8-0.7-1.7-1.3-2.6c-0.5-0.7-1-1.3-1.4-1.8l0,0c0.3-0.1,0.7-0.4,1.2-0.6c1-0.5,1.2-0.5,1.4-0.5c0.3,0,0.8-0.1,1.5,0.2v0.1
			c0,0.1-0.1,0.2-0.2,0.3c-0.1,0.2-0.3,0.4-0.7,0.7c-0.2,0.2-0.5,0.4-0.8,0.6v0.1c0.4,0,1-0.1,1.6-0.4c0.6-0.2,1-0.5,1.2-0.8
			C623.1,14.4,623.1,13.7,622.9,13z"/>
	</g>
</g>
</svg>
