<?xml version="1.0" encoding="utf-8"?>
<!-- Generator: Adobe Illustrator 25.2.1, SVG Export Plug-In . SVG Version: 6.00 Build 0)  -->
<svg version="1.1" id="Layer_2" xmlns="http://www.w3.org/2000/svg" xmlns:xlink="http://www.w3.org/1999/xlink" x="0px" y="0px"
	 viewBox="0 0 600 600" style="enable-background:new 0 0 600 600;" xml:space="preserve">
<path d="M118.8,7.1v1.6c9.7,7.3,25,17.7,45.2,27.3c37.6,17.8,70.8,22.4,107.5,27.3c16.2,2.1,38.9,4.4,66.3,4.9c0,1.1,0,2.3,0,3.4
	c-9.4,27.3-26.6,65.4-58.5,103.1c-15.1,17.8-30.5,31.9-44.4,43c-0.9,0-1.7,0-2.6,0c-9.9-7.6-21-17.5-32.1-30.1
	c-6.2-7.1-11.4-14.1-15.8-20.6c0-0.5,0-0.9,0-1.4c4.7-4.6,11.1-10,19.3-15c10.1-6.1,19.5-9.6,26.7-11.6c0.1-0.6,0.1-1,0-1.4
	c-0.5-1.8-2.9-3.1-6-3.3c-3.8,0.2-7.5,0.3-11.3,0.5c-2.3,0-34.9,0.7-49.1,25c-11.7,20-2.9,42.5,2.3,55.8
	c7.7,19.7,20.3,32.1,27.5,38.2c0,0.3,0,0.6,0,0.9c-6.9,5.8-16.8,14.3-28.4,24.9c-27.3,24.9-41,37.3-52.3,51.2
	c-10.5,13-37.4,46.9-45.3,97C65,445.3,65.3,460,66,470c0.1,6.9,0.8,15.5,3.2,25.1c1.5,6,3.4,11.3,5.3,15.8c0.3,0,0.6,0,0.9,0
	c1-3.4,2.6-9,4.2-15.8c3.9-16.6,5.3-29.1,5.6-31.3c4.4-34,66.2-96.2,102.7-120.4c2.6-1.7,16.3-10.7,35.1-23.7
	c7.5-5.1,13.6-9.4,17.7-12.3c0.7,0,1.4,0,2.1,0v3.8c-3.2,13.6-6.1,24.5-8,31.6c-6.6,24.4-9.6,31.8-12.3,47.4
	c-1.9,11.1-2.3,19-3,29.6c-0.2,2.5-1.5,27.6,2.2,57.2c0.8,6.2,2,13.9,6.7,22.5c3.2,5.8,6.9,9.9,9.4,12.4
	c18.8,13.8,35.2,24.5,47.9,32.4c22.4,13.9,36.7,20.9,65.1,34.8c1.7,0.9,17.1,8.3,36.9,12.4c4.3,0.9,7.9,1.4,12.2,1.4
	c11.4-0.1,20.2-4.1,27.1-7.9c32.2-17.5,58.1-45.4,58.1-45.4c4.2-4.5,24.1-26.1,38.7-54.9c0,0,6.6-13,9.6-32.1
	c1.5-9.7,1.2-15.9-2-21.1c-3.2-5.3-8.2-7.8-10.8-9c-42.3-20.1-83.2-32.1-83.2-32.1c-4.1-1.2-11.5-3.3-21.4-5.3
	c-8.4-1.6-15.5-2.5-20.5-3c-3.9-0.1-9.7,0.1-16.3,1.9c-5.5,1.6-9.2,3.6-15.2,6.9c-3.9,2.1-9,5.2-14.8,9.3c0,0.3,0,0.6,0,0.9
	c4.4,1.5,11.2,3.8,19.8,6c31.7,8.2,38.9,3.1,50.6,10.6c18.4,11.8,21.4,38,22.4,46.7c2,17.5-2.2,31-3.4,34.4
	c-12.8,38.3-55,60.3-89.5,60.9c-8.5,0.1-12.7,0.2-17.5-2.4c-18.5-10.1-18.1-44.6-16.8-100.5c0.4-16.1,0.7-28.4,2.8-45.8
	c4-32.8,11.6-59.6,18.3-78.8h2.1c60.7,24.6,89.6,34.5,104.5,38.8c12.1,3.5,24.9,6.2,37.4,13.9c2.4,1.5,9.3,5.9,19.4,10
	c4.8,1.9,8.9,3.2,11.6,3.9c2.1,0,4.1,0,6.2,0v-1.8c-3.7-4.3-9.3-10.3-16.8-16.6c-9-7.6-16.9-12.3-29.7-19.7
	c-17.6-10.2-26.5-15.3-34.1-19.2c-16.5-8.6-43.1-23.1-87.5-49.2c0.4-6.5,1.5-16.3,4.5-27.8c5.2-20.1,13.1-33.9,19.2-44.5
	c32.8-56.4,49.2-84.6,56.6-94.9c0,0,4.1-5.8,19-35.7c1.3-2.7,4.4-8.9,4.9-17.4c0.2-2.7,0.1-4.9-0.1-6.3
	c-5.5-4.3-14.4-11.1-25.6-19.4c-23.7-17.4-40.7-28.4-40.9-28.3c-0.1,0.1,1,1.1,0.9,1c0,0-6.8-5.8-19.9-11.1c-1.7-0.7-3.6-1.4-6-1.2
	c-5,0.3-7.1,4-12.5,6.9c0,0-3.2,1.7-11.4,3.2c-9.6,1.7-50.3,1.8-105.6-0.3C194.6,13.5,156.7,10.3,118.8,7.1z"/>
</svg>
