<?xml version="1.0" encoding="utf-8"?>
<!-- Generator: Adobe Illustrator 25.2.1, SVG Export Plug-In . SVG Version: 6.00 Build 0)  -->
<svg version="1.1" id="Layer_2" xmlns="http://www.w3.org/2000/svg" xmlns:xlink="http://www.w3.org/1999/xlink" x="0px" y="0px"
	 viewBox="0 0 600 600" style="enable-background:new 0 0 600 600;" xml:space="preserve">
<path d="M454,453.1v1.9c0,0,30.4,16.6,30.4,29.1c0,17.4-51.7,31.3-60.5,31.3c-7.2,0-16.2-2.3-26.4-5.8c-10.3-3.6-18.6-8-24.7-11.9
	c0-0.4,0-0.8,0-1.2c17.6-20.1,31.3-37.6,41.1-50.6c30.6-40.7,37-56.6,40.3-66.3c0,0,7.1-21.1,6.4-49.2c-0.2-9.2-1.3-17.5-6.4-25.7
	c-3.8-6-8.5-9.9-11.8-12.1c-5.4-2.3-17.5-6.5-31.7-3.2c-11.9,2.7-19.8,9.4-24.9,13.7c-6.2,5.2-10.5,10.5-13.3,14.5
	c-1.8,7.9-4.3,14.2-6.5,18.8c-4.2,9.2-6.4,13.8-11.2,18.6c-5.7,5.7-7.5,8.2-11.2,13.4c-0.6,0.8-1.9,2.7-1.7,5
	c0.2,2.2,1.7,3.7,2.4,4.4c3.1,3,8.5,4.4,12.3,2.4c1.9-1,2.6-2.6,3.8-4.7c2.6-4.6,6-8.6,9-12.9c2.7-4,7.7-11.2,16.1-16.1
	c3.8-2.2,11.9-6.9,17.7-3.6c3.6,2,5.3,6.6,6.3,9.2c1.3,3.3,1.6,6.2,1.7,7.9c1.4,22.9-9.1,50.5-9.1,50.5c-3,7.8-7.4,19.3-15.7,34
	c-9.4,16.6-19.9,30.3-29.9,41.3c-0.6,0-1.2,0-1.8,0c-14.7-12.1-31.1-27.3-47.4-46.3c-23.6-27.4-39.9-54.3-51.2-76.3
	c9.5-3.3,22.8-8.3,38.3-15.1c15.4-6.8,37.4-16.4,57.5-29.5c25.9-16.8,60.6-39.4,73-80.4c2-6.6,10.7-35.5,1.8-63.2
	c-2-6.3-7.8-21.3-15.5-46.7c-1.3-4.4-2.4-8-3.1-10.4c-0.7-0.7-1.4-1.4-2.1-2.1c-7.8,8.8-16.9,18.2-27.5,27.7
	c-10.4,9.4-20.5,17.5-29.9,24.3c-0.4,0-0.7,0-1.1,0c-2.6-3.7-7.2-9.2-14.3-13.7c-4.4-2.8-8.5-4.5-11.8-5.6c-0.3,0-0.6,0-0.9,0.1
	c-0.8,4.1-3.4,14.3-12.6,21.7c-2.8,2.3-5.7,3.8-8.2,4.9c-10.3,0-20.5,0-30.8,0l60.5-99.1L314.3,6.9h-2.6
	c-5.5,11.6-14.3,29.7-26.2,51.5c-17.8,32.6-31.3,52.7-52.3,86.2c-11.9,18.9-29.3,47.1-50.1,82.4c-5.3-10.5-12.2-22-21-33.8
	c-3.7-5-7.5-9.6-11.2-13.9c-2-0.2-23.3-2.2-33.8,5.9c-1.1,0.9-5,4.1-9.2,8.9c-2.5,2.8-4.3,5.4-5.6,7.2c0.6,0.6,1.1,1.3,1.7,1.9
	c3.5-1,8.6-2.1,14.7-2.1c0,0,6.4,0,12.5,1.4c10.4,2.5,27.4,19.5,39,47.1c-23.3,38-35.7,72.4-42.5,96.6c-16.3,57.6-8.9,84.1-5.6,93.9
	c3.7,11,8.5,19.4,12.2,25.1c0.9,0,1.7,0,2.6,0c3.3-20.6,7.7-37.4,11.4-49.7c3.8-12.5,7-20.7,14.8-25.8c5.3-3.5,9.6-3.6,19.7-5.5
	c8-1.6,19.3-4.3,32.9-9.4c0.5,0,1,0,1.5,0c9.7,18.2,18.3,33.2,24.9,44.2c17.9,30.1,28.2,47.3,44.9,66.8c13.1,15.3,25.4,26.5,34,33.8
	c0,0.6,0,1.3,0,1.9c-10.3,9.2-21.4,18.5-33.1,27.8c-17.4,13.9-34.5,26.3-50.8,37.5c0,0.8,0,1.6,0,2.3l33.3,4
	c11.2-9.2,22.4-18.3,33.6-27.5c11.7-10.8,23.3-21.7,35-32.5c0,0,1.5-0.3,1.8,0c8.8,8.8,58.1,27.1,72.8,27.1
	c40.6,0,84.2-44.2,84.2-74.7C497.7,452.5,454,453.1,454,453.1z M259.4,189.8c13.5-0.6,24.2,1.4,31,3.3c12.4,3.4,19.8,8,21.4,9.1
	c3.3,2.2,5.9,4.3,7.7,5.9c0,0,11.8,10.5,11.8,27.1c0,16.7-13.7,32.5-13.7,32.5s-15.3,19.9-43.8,19.9c-28.5,0-52.6-35.9-52.6-35.9
	L259.4,189.8z M201.1,337.3c-4.3,0.7-8.7,1.6-13.2,2.6c-4.9,1.1-9.5,2.2-14,3.4l16.1-35.7h0.7c1.2,4.5,2.7,9.4,4.6,14.5
	c1.9,5.1,3.8,9.8,5.8,14.1C201.1,336.6,201.1,337,201.1,337.3z M238.4,330.6l-30.1-55.6v-1.7h0.9c4.8,7.4,17.2,24.2,38.8,30.8
	c44.4,13.6,82.6-29.6,84.3-31.6c24.7-28.8,23.5-65.1,23.3-74.1c-0.2-7.7-1.2-14-2.2-18.6v-1c3.7,0.6,7.4,1.3,11.1,1.9
	c3,13,6,33.3,2.3,57.5c-2,12.9-3.6,23.8-10.2,35.6c-18.5,33.3-59.3,43.8-89.5,51.5C254.9,328.2,244.8,329.8,238.4,330.6z"/>
</svg>
